<?xml version="1.0" encoding="UTF-8" standalone="no"?>
<svg
   id="svg60"
   version="1.1"
   viewBox="0 0 935 932"
   sodipodi:docname="REAL.svg"
   inkscape:version="1.3.2 (091e20e, 2023-11-25, custom)"
   xmlns:inkscape="http://www.inkscape.org/namespaces/inkscape"
   xmlns:sodipodi="http://sodipodi.sourceforge.net/DTD/sodipodi-0.dtd"
   xmlns:xlink="http://www.w3.org/1999/xlink"
   xmlns="http://www.w3.org/2000/svg"
   xmlns:svg="http://www.w3.org/2000/svg">
  <sodipodi:namedview
     id="namedview1"
     pagecolor="#ffffff"
     bordercolor="#000000"
     borderopacity="0.25"
     inkscape:showpageshadow="2"
     inkscape:pageopacity="0.0"
     inkscape:pagecheckerboard="0"
     inkscape:deskcolor="#d1d1d1"
     inkscape:zoom="4.98313"
     inkscape:cx="100.2382"
     inkscape:cy="214.42346"
     inkscape:window-width="1920"
     inkscape:window-height="1017"
     inkscape:window-x="1912"
     inkscape:window-y="-8"
     inkscape:window-maximized="1"
     inkscape:current-layer="svg60" />
  <defs
     id="defs4">
    <linearGradient
       id="b">
      <stop
         id="stop1"
         offset="0"
         stop-color="red" />
      <stop
         id="stop2"
         offset="1" />
    </linearGradient>
    <linearGradient
       id="a">
      <stop
         id="stop3"
         offset="0"
         stop-color="red" />
      <stop
         id="stop4"
         offset="1" />
    </linearGradient>
    <linearGradient
       xlink:href="#a"
       id="d"
       x1="204.7055"
       x2="219.8101"
       y1="377.2761"
       y2="119.2054"
       gradientUnits="userSpaceOnUse" />
    <linearGradient
       xlink:href="#b"
       id="c"
       x1="107.5879"
       x2="104.1239"
       y1="340.7662"
       y2="120.0215"
       gradientUnits="userSpaceOnUse" />
  </defs>
  <path
     id="path4"
     fill="#ff0000"
     d="m 805.45,292.9 c -31.8667,-11.5333 -65.4667,-14.9 -100.8,-10.1 -35.3333,4.8 -66.8333,16.95 -94.5,36.45 -26.7667,18.8 -49.0333,42.4833 -66.8,71.05 -6.6333,10.6333 -12.45,21.6667 -17.45,33.1 -5.7333,12.9667 -10.3333,26.4 -13.8,40.3 -1.5333,5.8 -2.85,11.7167 -3.95,17.75 v 0.45 c -0.1,0.3333 -0.05,0.65 0.15,0.95 0.1,0.3 0.35,0.55 0.75,0.75 0.2,0.1 0.5667,0.2 1.1,0.3 0.2,0 0.5,0.05 0.9,0.15 0.4,-0.1 0.9167,-0.15 1.55,-0.15 h 0.3 c 0.2,-0.1 1.4167,-0.15 3.65,-0.15 4.6,-17.3667 8.5333,-29.7667 11.8,-37.2 7.9667,-24.7333 24.417,-44.8068 39.317,-66.0402 22.4666,-31.9666 48.1428,-53.9599 81.2428,-69.9932 38.3,-18.5667 75.6375,-23.6174 119.4375,-14.7507 45.2333,9.2 77.8589,30.0983 102.4922,63.6983 21.5333,29.5 28.314,63.7933 31.7807,106.8933 2.7667,36.9666 -3.8865,73.9534 -27.9865,118.7867 -3.4666,6.6334 -12.4153,19.7426 -27.6486,43.7426 -0.3,0.3 -4.9649,1.369 -5.1649,1.8024 -12.2667,19.3 -17.9898,36.286 -23.1898,49.3527 -11.8334,30.0333 -8.8317,62.5332 8.0017,77.8332 8.5,7.7666 24.1632,10.7112 39.1632,12.0445 12.3666,1 26.538,-6.003 39.7047,-9.3696 2.5333,-0.6 -5.6532,3.9013 -2.8866,2.868 -1,1.9333 1.2945,1.1238 0.2612,3.1905 -10.3333,16.6333 -21.7446,20.3052 -37.4446,27.6719 -15.7333,7.3333 -30.4477,12.5914 -55.381,10.958 -0.9,-0.1 -2.218,-0.9023 -3.1514,-1.0023 -11.0017,-4.0105 -31.74,-2.0173 -40.04,-2.9507 l 9.28292,6.31714 c 7.9667,4.4667 17.09978,8.81426 27.36758,9.66676 -0.92705,1.09292 -2.83748,1.61109 -2.40006,0.5854 9.8,0.7 21.97526,-0.005 30.84196,-0.6047 14.1,-1.0333 27.0666,-3.6333 38.9,-7.8 18.9,-6.6667 34.5333,-19.2833 46.9,-37.85 3.6666,-5.5333 7.6,-12.4333 11.8,-20.7 0.9,-1.8333 1.8166,-3.7167 2.75,-5.65 1.1333,-2.3667 2.2,-4.5667 3.2,-6.6 -6.6334,4.4 -12.45,7.7667 -17.45,10.1 -0.6,0.3333 -1.1667,0.6 -1.7,0.8 -21.5334,9.9 -42.5167,10.8167 -62.95,2.75 -13.9667,-5.5333 -21.7167,-16.4167 -23.25,-32.65 -1.1334,-12.5667 1.3666,-26.55 7.5,-41.95 2.5333,-6.7334 11,-21.7 25.4,-44.9 0.4333,-0.5 0.8,-1.0667 1.1,-1.7 12.8666,-20.4 23.3833,-38.4667 31.55,-54.2 19.7,-37.9 28.9333,-75.0667 27.7,-111.5 -1.3,-37.9 -11.7167,-72.4167 -31.25,-103.55 -20,-32.2 -48.9,-55.1834 -86.7,-68.95"
     display="inline"
     sodipodi:nodetypes="cscccccccsccsccccccccccccccccccccccccccccccccccccccccc" />
  <path
     id="path5"
     fill="#ff00f1"
     d="M873.95 355.25c-24.6333-33.6-59.5667-55-104.8-64.2-43.8-8.8667-84.85-4.0167-123.15 14.55-33.1 16.0333-60.8833 40.0333-83.35 72-14.9 21.2333-26.3333 44.2167-34.3 68.95-3.2667 7.4333-7.2 19.8333-11.8 37.2l.75.15-1.5.8 5.35-.95a81.9893 81.9893 0 0 1 2.6-4.45c.7333-1.2 1.45-2.4167 2.15-3.65 16.7667-27.4667 34.9928-47.3259 49.0595-63.9925 22.5667-26.9334 43.7582-45.8313 68.5915-57.898 25.3334-12.3667 48.7592-12.9317 74.6926-2.6983 25.6333 10 43.514 25.8592 55.2473 51.9925 11.5333 25.5334 14.6996 54.9126 9.6996 90.546-3.0666 21.7666-14.2948 49.5908-26.8615 88.8908l-1.7057 1.354c-.2.3334-1.6379 15.4861-11.5379 43.8528-.6 1.4333-.9996 2.967-1.3996 4.4003-5.8333 16.6667-8.779 31.268-11.4456 43.0014-8.7667 37.5667-6.1157 71.0095 7.351 94.7095 6.8333 12.2666 14.6126 22.984 25.746 31.7506 2.4666 1.9334 8.8461 1.0742 11.5128 2.8409.3.2.65.45 1.05.75 1.1333.1 2.3.25 3.5.45 8.3.9333 17.7 1.85 28.2 2.75.9333.1 1.85.2 2.75.3 24.9333 1.6333 45.2667-1.2167 61-8.55 15.7-7.3667 28.7167-19.3667 39.05-36a491.6037 491.6037 0 0 1 3.05-6c-2.7667 1.0333-5.4167 1.85-7.95 2.45-13.1667 3.3667-25.9333 4.55-38.3 3.55-15-1.3333-26.75-5.8833-35.25-13.65-16.8333-15.3-19.3333-37.9667-7.5-68 5.2-13.0667 13.9333-29.25 26.2-48.55.2-.4333.45-.8.75-1.1 15.2333-24 24.5833-39.3167 28.05-45.95 24.1-44.8333 34.7667-85.7333 32-122.7-3.4667-43.1-15.9667-79.4-37.5-108.9"
     display="inline" />
  <path
     id="path6"
     fill="#0000ff"
     d="M786 493.7c5-35.6333 1.7333-66.2167-9.8-91.75-11.7333-26.1333-30.4167-44.2-56.05-54.2-25.9333-10.2333-51.5667-9.1667-76.9 3.2-24.8333 12.0667-48.5333 31.5667-71.1 58.5-14.0667 16.6667-29.4833 38.7333-46.25 66.2-.7 1.2333-1.4167 2.45-2.15 3.65a81.9893 81.9893 0 0 0-2.6 4.45l-5.35.95 1.5-.8-.75-.15c-2.2333 0-3.45.05-3.65.15h-.3c-.6333 0-1.15.05-1.55.15-.4-.1-.7-.15-.9-.15-.5333-.1-.9-.2-1.1-.3l3.7 4c10 7.0333 16.9333 8.35 20.8 3.95 3.8-4.3667 18.5167-15.9 44.15-34.6 25.5333-18.7 52.5833-27.1833 81.15-25.45 33.1 2.0667 49.45 21.5833 49.05 58.55-.2 20.4333-6.6333 49.5833-19.3 87.45-4.2 12.7667-10.4333 31.2-18.7 55.3-1.3333 3.6667-2.6667 7.45-4 11.35-8.5667 26.2333-14.4833 48.9-17.75 68-3.0667 17.7667-2.3 35.2833 2.3 52.55 4.6 17.6667 12.6667 33.1833 24.2 46.55 19.5 22.9 47.4833 35.8167 83.95 38.75 31.2333 2.5667 58.75-2.5833 82.55-15.45h.15c.6333-.4 1.3-.8 2-1.2l5.8-3.55c.2333-.2.45-.35.65-.45.1-.1 1.3915-.9276 1.4915-.9276l-1.7915-.1724c-4.1-.5-8.0333-1.1-11.8-1.8a1615.694 1615.694 0 0 1-6.75-1.25c-5.6333-1.2333-11.1-2.6667-16.4-4.3a337.082 337.082 0 0 1-6.9-2.15c-1.3085-.4565-4.2191-1.4807-4.0919-1.5162-8.5-2.2667-16.5914-5.9171-24.5581-10.3838-1-.6333-2.0167-1.2-3.05-1.7-.4-.3-.75-.55-1.05-.75-2.6667-1.7667-5.2333-3.6167-7.7-5.55-11.1333-8.7667-20.1167-19.2833-26.95-31.55-13.4667-23.7-15.8167-54.3333-7.05-91.9 2.6667-11.7333 6.9167-25.9333 12.75-42.6.4-1.4333.9-2.8667 1.5-4.3 9.9-28.3667 14.95-42.7167 15.15-43.05v-.15c12.5667-39.3 20.3833-69.8333 23.45-91.6m-256.9-7.95c-.3 0-.75-.3-1.35-.9l.15-.15 1.2 1.05"
     display="inline" />
  <path
     id="path7"
     fill="#3dff00"
     d="M708.35 352.15q-32.15-7.5-49.5-.9-45.8 17.45-76.9 54.25-23.25 27.25-54.05 79.2l1.2 1.05q15.05-17.75 37.25-32.8 39.2-26.5 79.35-30 19.3-1.7 35.7 4 19 6.4 28.3 21.1 17.35 27.15 7.05 74.3-4.25 19.75-13.6 48.1-5.2 15.95-15.8 47.5-.3 1.05-5.05 14.85-2.75 7.95-6.9 20.1-7.35 21.6-11 36.15-10.6 42.4-2 73.35 7.5 26.65 25.4 45.95 18.85 20.1 44.75 27.3 29.55 8.1 60.2 4.7 18.7-2.1 33.55-8.25-27.25-5.35-49.5-17.6h-.15q-4.25-2.3-15.45-11.5h.15q-1.4-.9-2.6-1.85-28.8-22.05-36.15-53.6-7.95-33.85 7.35-85.8 5.05-15.45 9.65-28.95 13.65-41.2 21.15-65.1 17.3-56.35 18.35-97.25 1.7-57.45-27.25-90.4-19.15-22.05-43.5-27.9"
     display="inline" />
  <path
     id="path8"
     fill="#b10000"
     d="M314.95 606c-.4667-.1-.8667-.1167-1.2-.05 6.3 28.9333 4.4196 61.1.8863 96.5-.5667 5.5.5759 11.0479-.1908 16.7145l-.8273-.0855c-1.5334 10.7667-3.5377 21.5624-5.871 32.529-6.037 17.4582-8.8671 35.4167-14.7338 53.45-2.6333 8.0667-5.1829 14.322-8.2162 22.4554l-1.4419 4.3933c-.6 1.5333-1.0581 2.7495-1.6581 4.2162-1.6333 4-4.1014 8.0671-5.7014 11.6338-2.1667 4.6333-3.3067 8.0486-5.4067 11.9486-4.9 9-8.5095 13.8743-9.4095 15.4743-1 1.7333-1.5257 7.9898-.7257 10.8232 1.7667 1.9666 6.4204 5.3537 9.4204 5.6204 6.4333.5 14.1942.1157 20.1609-.0176 4.5667-.2667 7.082.2176 9.2486.3176 5.9-.5334 12.018-1.1005 16.6514-1.1338 10.1667-.7667 15.881-2.1514 19.981-2.4514 5.7333-.8 12.4505-4.3047 19.5838-4.838 2.8333-.1 5.5667-1.3 8.2-3.6 2.5667-2.3334 4.65-5.9 6.25-10.7 2.4333-7.2667 4.0833-13.7334 4.95-19.4l.6.05c.2-1.5334.4-3.05.6-4.55.1667-1.3.3333-2.55.5-3.75.8667-6.8 1.6333-13.5167 2.3-20.15 2.3333-23.2 3.45-45.3834 3.35-66.55-.0333-7.2667-.2167-14.4167-.55-21.45a450.79 450.79 0 0 0-.35-6.7c-.0333-.3-.0167-.6167.05-.95l.05-.15a3.077 3.077 0 0 1 .25-.95c-.1-7.3334-.35-14.6-.75-21.8-1.9-35.2334-7.4667-68.7-16.7-100.4v-.4c.2333-.3334.5833-.5834 1.05-.75v-.15c-.4667.1-.8667.2166-1.2.35a31.9998 31.9998 0 0 0-.45-1.35c0 .5-.0333.9833-.1 1.45-16 4-32.7 4.8833-50.1 2.65.5.7 1 1.2833 1.5 1.75"
     display="inline" />
  <path
     id="path9"
     fill="#800000"
     d="M520.05 475.75c-6.8333-9.9333-13.7167-17.2667-20.65-22L432 547v4.6c.3333 13.7333 3.5667 27.3167 9.7 40.75 1.2667 2.8667 2.6833 5.7167 4.25 8.55 3.7667 8.4333 7.75 16.1 11.95 23l.7 1.5.8 1.25c.1.1667.2.4.3.7.1.2667.25.55.45.85.1.1667.2.3833.3.65l.15.3c4.9 9.6667 7.93 21.5176 13.0634 34.4176 0 .1667-1.5109 1.9609.7176 1.2676 3.5 8.9 6.0153 15.3405 9.2486 20.7405.5 1.3.5157 3.3514 1.1824 4.4514 1.1333 4.9333 1.691 10.451 2.5243 15.4176 4.8667 28.7 4.6248 55.6453-.4419 86.512-2 12.2667-3.7333 20.2067-5.2 25.8067-1.5 5.6-2.5838 7.782-2.6838 8.2486-.1333.4333.7118 4.8195-1.7215 9.7528-1.1667 2.3667-4.8875 1.7953-6.0542 3.962-5.2333 9.6667-6.8977 17.228-7.831 18.9947-1.0333 1.8-.8662 7.138-.0662 10.338 1.8333 2.2 5.3266 6.4799 8.4933 6.8799 6.7667.8 14.8442 1.659 21.1109 1.7257 4.7667-.0667 8.4586.409 10.7919.5757 6.2-.3333 9.5882 1.837 14.4215 1.9704 10.6667-.4333 21.856-2.72 26.1894-2.8866 6-.6333 10.9053-5.9413 18.4053-6.2746 3.0333 0 5.9167-1.2 8.65-3.6 2.7-2.4667 4.9167-6.3 6.65-11.5 2.8333-8.6333 4.7167-16.25 5.65-22.85.1-.4333.1667-1.8833.2-4.35 0-2.5-.1833-7.1667-.55-14-.4-6.8333-.7833-14.1-1.15-21.8-2.5333-51.9-12.15-95.3833-28.85-130.45-2.7-5.6667-5.5833-11.1-8.65-16.3l-.25.15c-.4667-1.4333-1.15-2.65-2.05-3.65v.15c-2.7333-2.3333-8.2333-3.3833-16.5-3.15.1667 3.0333.5667 6.3833 1.2 10.05-3.9333-1.8-6.6-4.8333-8-9.1-.0667.0667-.1167.1333-.15.2-.8333-2.3333-1.1833-5.1-1.05-8.3 0-1.9333.15-4 .45-6.2l.25.1c.3-1.8667.5667-3.5333.8-5 2.0667-6.5333 4.9167-15.8667 8.55-28 1.4667-5.0333 3.0833-10.5333 4.85-16.5 3.4667-11.8 4.95-24.65 4.45-38.55-.3333-10.4-1.6667-20.1-4-29.1-1.9333-7.6333-3.6667-13.5333-5.2-17.7-2.2667-6.1333-4.9333-11.4167-8-15.85"
     display="inline" />
  <path
     id="path10"
     fill="#474747"
     d="m503.55 449.15-4.15 4.6q10.4 7.1 20.65 22 4.6 6.65 8 15.85 2.3 6.25 5.2 17.7 3.5 13.5 4 29.1.75 20.85-4.45 38.55-2.65 8.95-4.85 16.5-5.45 18.2-8.55 28-.35 2.2-.8 5l-.25-.1q-.45 3.3-.45 6.2-.2 4.8 1.05 8.3.05-.1.15-.2 2.1 6.4 8 9.1-.95-5.5-1.2-10.05 12.4-.35 16.5 3.15v-.15q1.35 1.5 2.05 3.65l.25-.15q4.6 7.8 8.65 16.3 25.05 52.6 28.85 130.45.55 11.55 1.15 21.8.55 10.25.55 14-.05 3.7-.2 4.35-1.4 9.9-5.65 22.85-2.6 7.8-6.65 11.5-4.1 3.6-8.65 3.6-11.25.5-20.25 1.45-6.5.25-22.5.9-7.25-.2-16.55.3-3.5-.25-10.65-.15-9.4-.1-19.55-1.3-4.75-.6-7.5-3.9-1.2-4.8.35-7.5 1.4-2.65 9.25-17.15 1.75-3.25 3.5-6.8 3.65-7.4 3.85-8.05.15-.7 2.4-9.1 2.2-8.4 5.2-26.8 7.6-46.3.3-89.35-1.25-7.45-2.95-14.85-1-1.65-1.75-3.6-4.85-8.1-10.1-21.45-.15-.45-.15-.7-7.7-19.35-15.05-33.85l-.15-.3q-.15-.4-.3-.65-.3-.45-.45-.85-.15-.45-.3-.7l-.8-1.25-.7-1.5q-6.3-10.35-11.95-23-2.35-4.25-4.25-8.55-9.2-20.15-9.7-40.75V547q-5.35 17.4-3.1 31.35 2.3 13.9 10.75 29.65 2.8 5.15 5.6 9.95 1.8 4.3 4.35 9.1v.15l.15.15q8.1 15.75 17.15 38.3v.1l.15.15v.15q4.75 12.05 9.2 20.2 1.1 3.5 2.8 6.5 14.65 66.05-7.1 140l-.05.05q-6.4 13.4-13.75 25.15-2.9 5.95-.15 13.7 1.2 3.4 3.4 5.15 6.65 4.8 14.45 5.05 8.25.7 16.05.95 7.45.35 16.4.1 5.35 0 14.9-.35 4.65 0 13.65-.65l25.95-1.65 5.95-1.3q8-2.75 12.25-9.4 4.2-6.65 6.6-14.25 3.05-9.75 4.55-22.2.3-2.55.3-4.25-.05-1.75-.05-3.9-.05-2.15-.25-4.45-.3-111.9-39.15-178-.95-2.35-2.5-4.15-.5-1-1.45-1.5-5.55-5.55-21.7-5.3.25-7.3 2.1-15.5 5.5-17.65 11-37 5.05-17.95 5.5-38 .3-19.25-3.65-34.4-6-22.85-15.5-36.35-11.15-15.9-23.25-21.15"
     display="inline" />
  <path
     id="path11"
     fill="#000000"
     fill-opacity="1"
     d="M313.35 606c-1 .1667-1.8333.6833-2.5 1.55 3.1667 37.3 2.1667 73.7833-3 109.45-.2333.4333-.3833.9333-.45 1.5-5.5 37.7333-15.9833 76.4667-31.45 116.2-.2667.5667-.3833 1.15-.35 1.75-5.7333 14.1333-12.3167 27.0333-19.75 38.7-1.8 3.6667-1.8167 7.8333-.05 12.5.7667 2.0333 1.8833 3.55 3.35 4.55 4.1667 2.8 8.7333 4.1667 13.7 4.1 5.2.2333 10.3.3333 15.3.3 4.7.0333 9.8833-.1167 15.55-.45 3.4333-.1 8.1667-.3833 14.2-.85 2.9333-.0667 7.25-.4167 12.95-1.05l24.65-2.3 5.7-1.45c5.1-1.8667 8.9667-4.85 11.6-8.95 2.6333-4.1333 4.7167-8.55 6.25-13.25 1.4667-4.7 2.6333-9.8667 3.5-15.5.4667-.6333.7667-1.3333.9-2.1 5.9667-43.0333 8.0333-82.8667 6.2-119.5v-.95c.0333-2.1-.05-4.1333-.25-6.1.4333-41.6-6.7667-82.7-21.6-123.3-.8333-.1333-1.5833-.05-2.25.25-.164.0327-.2473.0993-.25.2-.4667.1667-.8167.4167-1.05.75v.4c9.2333 31.7 14.8 65.1667 16.7 100.4.4 7.2.65 14.4667.75 21.8-.1333.3-.2167.6167-.25.95l-.05.15c-.0667.3333-.0833.65-.05.95a450.79 450.79 0 0 1 .35 6.7c.3333 7.0333.5167 14.1833.55 21.45.1 21.1667-1.0167 43.35-3.35 66.55-.6667 6.6333-1.4333 13.35-2.3 20.15-.1667 1.2-.3333 2.45-.5 3.75-.2 1.5-.4 3.0167-.6 4.55l-.6-.05c-.8667 5.6667-2.5167 12.1333-4.95 19.4-1.6 4.8-3.6833 8.3667-6.25 10.7-2.6333 2.3-5.3667 3.5-8.2 3.6-7.1333.5333-13.5667 1.2-19.3 2-4.1.3-11.2333.8333-21.4 1.6-4.6333.0333-9.9.3167-15.8.85-2.1667-.1-5.5333-.0167-10.1.25-5.9667.1333-12.1667-.05-18.6-.55-3-.2667-5.3833-1.3833-7.15-3.35-.8-2.8333-.7-5.1167.3-6.85.9-1.6 3.8-6.9 8.7-15.9 2.1-3.9 4.2333-8.1667 6.4-12.8 1.6-3.5667 3.2167-7.35 4.85-11.35.6-1.4667 1.2-2.9667 1.8-4.5l1.3-3.4c3.0333-8.1333 5.8667-16.2333 8.5-24.3 5.8667-18.0333 10.6833-35.85 14.45-53.45 2.3333-10.9667 4.2667-21.8333 5.8-32.6.8774-5.5655 2.0101-11.0987 2.65-16.7 3.5333-35.4 2.15-67.5667-4.15-96.5-.1 0-.2333.0167-.4.05"
     display="inline" />
  <path
     id="path12"
     d="M370.35 180h.15c-19.2667-20.4333-43.3333-30.65-72.2-30.65-28.6667 0-53.6833 10.2667-75.05 30.8-21.5333 20.4333-33.05 45.05-34.55 73.85-1.6 27.1 6.2333 50.6 23.5 70.5a1474.81 1474.81 0 0 0 3.05 3.25 211.4904 211.4904 0 0 1 10.55 11.35c2.7 3.1667 5.4 6.4333 8.1 9.8 12.9333 17.3667 20.7667 35.45 23.5 54.25.6333 7.8667.5 15.6333-.4 23.3a114.2709 114.2709 0 0 1-.65 5.8c-7.6 40.5667-7.25 77.8667 1.05 111.9v.15c11.5667 47 38.4833 78.1667 80.75 93.5l4.3 1.55c14.564 6.2574 30.4833 8.5706 46.2 10 4.8.4 9.65.6 14.55.6h7.35c33.6-2.8667 56.4833-7 68.65-12.4 12.8667-5.7 26.55-13.2 41.05-22.5 16.2333-10.5333 28.5833-20.3333 37.05-29.4 10.5333-11.2333 18.35-23.0333 23.45-35.4 9.1-22.2667 9.5667-46.3667 1.4-72.3-7.5667-24.2-22.95-40.75-46.15-49.65-19.5-7.5667-40.8333-8.6333-64-3.2-12.3667 2.9667-25.3833 8.6833-39.05 17.15-7.4667 4.6-13.65 8.2667-18.55 11l-4.3 1.85c-4.2333 1.7333-8.5333 3.15-12.9 4.25-1.1-10.6667-2.3833-25.5667-3.85-44.7-2.9333-39.2333-2.2833-87.7667 1.95-145.6.8667-4.9 1.45-9.9667 1.75-15.2 1.5-28.8-7.4-53.4167-26.7-73.85"
     display="inline" />
  <path
     id="path13"
     fill="#b10000"
     d="M565.75 467.5c-9.0179-18.524-24.0932-31.0482-32.2303-6.5633L477.7 545.95c-1.1862 49.649 33.9241 89.1057 46.3969 135.3406 19.9853 39.42 16.8978 86.0647 12.7949 128.8608-2.525 30.0871-15.5715 62.1847-29.4543 88.5736 16.4163 20.8959 69.2398 6.8051 94.9031 9.0344 39.4512 4.8308 31.482-53.9605 28.2916-80.8129-2.8176-60.5821-12.705-124.6778-41.1132-177.675-7.8238-5.6416-26.2404-11.5141-19.1939 1.9503-1.0655-25.3527 9.3362-46.7302 11.7104-72.7253 8.8632-36.65 1.2879-77.5078-16.2855-110.9965zm-136.9 142.6c-13.307 16.2788-68.1781-10.8013-53.604 17.8234 19.7876 82.918 4.636 168.4595-23.3991 247.7704-12.4804 21.922-37.3714 59.7516 5.3531 50.3062 29.1703-5.1224 80.7868 12.3444 101.2781-11.45 14.1106-56.3956 7.9812-123.6229 2.7584-180.7888-4.2635-41.6331-15.3751-83.9846-29.981-123.2166 3.4572-2.4407-3.5686 2.931-2.4055-.4446zM387.2 243.45c1.7796-30.3063-20.8065-62.5444-48.9883-76.088-54.2142-27.2477-124.448 10.0136-137.7742 67.8192-10.1026 35.3514 4.0618 73.6797 31.644 96.4446 25.9047 28.6478 43.7567 68.473 32.222 107.2984-9.5379 57.9828-6.2504 128.9236 41.664 170.0589 44.3388 34.3367 105.7974 38.06 158.4747 24.613 39.3685-8.0223 56.2434-50.55 59.2451-86.5908 5.4678 5.307 1.0918 47.864-12.8873 63.1447 37.7317-21.342 73.5563-59.8486 67.3309-106.4588-1.4721-33.551-24.781-65.794-59.1872-70.8943-37.17-8.8843-72.3628 10.3788-102.5437 29.8031-19.0738 11.1454-37.032.408-11.2 29.9-27.4853-21.5953-15.5237-64.7281-22.0273-95.6707-2.7685-51.2036 2.1156-102.269 4.0273-153.3793z"
     display="inline" />
  <path
     id="path14"
     d="M307.15 347.35c-.2 0-.3.05-.3.15h.3v-.15m242.1 90.9-4.15 5.05c6.9333 5.2 13.8167 13.2667 20.65 24.2 3.0667 4.9 5.7333 10.7167 8 17.45 1.5333 4.6 3.2667 11.0833 5.2 19.45 2.3333 9.9333 3.6667 20.6167 4 32.05.5 15.3-.9833 29.4333-4.45 42.4-1.7667 6.5667-3.3833 12.6167-4.85 18.15-3.6333 13.3667-6.4833 23.65-8.55 30.85-.2333 1.6-.5 3.4333-.8 5.5l-.25-.1c-.3 2.4-.45 4.65-.45 6.75-.1333 3.5667.2167 6.6167 1.05 9.15.0333-.0667.0833-.1333.15-.2 1.3667 4.7 4.0333 8.05 8 10.05-.6333-4.0333-1.0333-7.7167-1.2-11.05 8.2667-.2667 13.7667.8833 16.5 3.45v-.15c.9 1.0667 1.5833 2.3833 2.05 3.95l.25-.15c3.0667 5.7333 5.95 11.7167 8.65 17.95 16.7 38.6 26.3167 86.4333 28.85 143.5.3667 8.4333.6 17.1.7 26 1.019 4.8799.7127 10.8 1.05 15.95-.0667.6-.1333 1.2167-.2 1.85-.9333 7.3333-2.8333 15.85-5.7 25.55-1.7333 5.6667-3.95 9.8833-6.65 12.65-2.7333 2.6333-5.6167 3.95-8.65 3.95-7.5.3333-14.25.85-20.25 1.55-4.3333.2-11.8333.55-22.5 1.05-4.8333-.1667-10.35-.0667-16.55.3-2.3333-.2-5.8833-.25-10.65-.15-6.2667-.1-12.7833-.5833-19.55-1.45-3.1667-.4333-5.6667-1.8667-7.5-4.3-.8-3.5333-.6833-6.3.35-8.3.9333-1.8667 4.0167-8.1333 9.25-18.8 1.1667-2.3667 2.3333-4.8667 3.5-7.5.4646-.952.802-1.3833 1.2625-2.45.1896-.2437.7417-1.5813.875-1.9812.5188-1.2.6792-1.8521 1.0125-3.0188 3.5333-13.8 6.3-27.4333 8.3-40.9 5.0667-33.9333 5.1667-66.6833.3-98.25a294.024 294.024 0 0 0-2.95-16.35c-.7-1.2333-1.3-2.55-1.8-3.95-3.2-5.9667-6.55-13.85-10.05-23.65-.1-.3-.15-.55-.15-.75-5.1333-14.2-10.15-26.6167-15.05-37.25l-.15-.3c-.1-.3-.2-.55-.3-.75-.2-.3-.35-.6-.45-.9-.1-.3333-.2-.6-.3-.8l-.8-1.35c-.2667-.6333-.5333-1.25-.8-1.85-4.1333-7.5667-8.0833-15.95-11.85-25.15-1.5667-3.1333-2.9833-6.25-4.25-9.35-6.1333-14.8333-9.3667-29.7833-9.7-44.85v-5.05c-3.5667 12.7667-4.6 24.25-3.1 34.45 1.5333 10.2 5.1167 21.0833 10.75 32.65 1.8667 3.7667 3.7333 7.4 5.6 10.9 1.2 3.1667 2.65 6.5167 4.35 10.05v.15l.15.2c5.4 11.5333 11.1167 25.5667 17.15 42.1v.15l.15.15v.15c3.1667 8.8333 6.2333 16.25 9.2 22.25.7333 2.6 1.6667 4.9667 2.8 7.1 9.7667 48.4667 7.3833 99.8333-7.15 154.1-4.2333 9.8333-8.8167 19.0667-13.75 27.7-1.9333 4.3333-1.9833 9.35-.15 15.05.8 2.5 1.9333 4.4 3.4 5.7 4.4333 3.5333 9.25 5.3833 14.45 5.55 5.5.5 10.85.8333 16.05 1 4.9667.2333 10.4333.2833 16.4.15 3.5667 0 8.5333-.1333 14.9-.4 3.1 0 7.65-.2667 13.65-.8l25.95-1.7 5.95-1.5c5.3333-1.9667 9.4167-5.4 12.25-10.3 2.8-4.9 5-10.1333 6.6-15.7 2.0333-7.1667 3.55-15.3 4.55-24.4l.4-4.7c.0333-.4667.0667-.9167.1-1.35-.0667-2.6333-.2333-5.2333-.5-7.8-.2-82.1-13.2667-147.4333-39.2-196-.6333-1.6333-1.4333-3.0833-2.4-4.35-.0333-.0333-.05-.0667-.05-.1-.3333-.7-.8333-1.2667-1.5-1.7-3.7-4-10.9167-5.9167-21.65-5.75.1667-5.3333.8667-11.0167 2.1-17.05 3.6667-12.9667 7.3333-26.55 11-40.75 3.3667-13.1667 5.2-27.1 5.5-41.8.2-14.1-1.0167-26.7167-3.65-37.85-4-16.7333-9.1667-30.05-15.5-39.95-7.4333-11.6667-15.1833-19.4333-23.25-23.3m-118.2 172.9c-.1967.0327-.2967.0993-.3.2-.4667.2-.8333.4667-1.1.8.0333.1.0667.25.1.45 12.9667 34.6667 21.8667 71.2167 26.7 109.65 1 7.9 1.8333 15.8833 2.5 23.95a6.739 6.739 0 0 0-.15.8l-.05.15c-.0333.3-.0333.65 0 1.05.2667 2.0667.5333 4.15.8 6.25.9667 7.9333 1.7667 16.0167 2.4 24.25 1.6333 21.5333 2.1 44 1.4 67.4a278.4507 278.4507 0 0 0-.15 5.35l-2.35 28.75a40.2637 40.2637 0 0 1-.15 2c-.6 6.2-2.0167 13.2667-4.25 21.2-1.4667 5.2-3.5833 9.0667-6.35 11.6-2.8 2.4667-5.8333 3.75-9.1 3.85-8.1667.5-15.5 1.15-22 1.95-4.6667.3333-12.8167.85-24.45 1.55-5.2667 0-11.2667.25-18 .75-2.5333-.1-6.4-.05-11.6.15-6.8333.1-13.9667-.15-21.4-.75-3.4667-.3-6.2667-1.5167-8.4-3.65-1.1333-3.1667-1.2-5.6667-.2-7.5.9-1.7333 3.8167-7.4833 8.75-17.25 2.1333-4.2 4.25-8.8333 6.35-13.9 2.4-5.8667 4.7833-12.3 7.15-19.3.1333-.4333.2833-.85.45-1.25l9.25-31.45c4.7667-17.9333 8.5333-35.6667 11.3-53.2 1.9-12 3.7424-23.5098 4.6757-35.3098.2287-.9327 1.101-15.4195 1.2243-18.5902 1.3667-38.5-2.6833-73.5667-12.15-105.2-.1 0-.25.0167-.45.05-1.1.2-2 .7667-2.7 1.7 6.4667 40.7333 8.0833 80.5333 4.85 119.4-.1667.4333-.2667.9-.3 1.4-3.4333 41.0667-12.5333 83.2-27.3 126.4-5.7 16.6-12.3667 31.2333-20 43.9-1.8 3.9667-1.5167 8.5.85 13.6 1.0333 2.2333 2.4333 3.9167 4.2 5.05 4.9667 3.0333 10.3 4.55 16 4.55 6.0333.3333 11.9.5 17.6.5 5.4.1 11.35-.0167 17.85-.35 3.8667-.1 9.2667-.35 16.2-.75 3.3667-.1 8.3-.45 14.8-1.05l28.1-2.3 6.4-1.55c5.6667-1.9333 9.8667-5.1333 12.6-9.6 2.7333-4.4667 4.8-9.25 6.2-14.35 1.2667-5 2.5333-11.4833 3.8-19.45 3.5667-47.2333 2.85-90.9333-2.15-131.1-.1333-2.0667-.35-4.0667-.65-6-2.6333-45.4667-14.0333-90.4833-34.2-135.05-.9333-.1667-1.8-.0833-2.6.25"
     display="inline" />
  <path
     id="path15"
     fill="#b10000"
     d="M368.4 188.9v-16.85q-6.75-9.2-15-17.45-36.3-35.95-103.55-34.7-17.15.2-32.65 3l-.15 9.35q-12.4 2.25-23.75 6.35-24.5 8.65-47.3 26.5-10.15 8.05-20.7 19.15-3.5 3.75-6.6 8.45-10.4 15.65-16.55 42.45-5.5 24.45-5.95 41.2-.6 16.55 1.85 37.5 2.3 20.95 5.8 30.65 3.55 9.75 5.5 14.3 1.85 4.25 1.85 7.75l11.2.05q11.35-1.3 7.05-.45 39.8 55.8 141.7 48.75 36.45-13.55 51.75-28.45 26.65-26.15 33.85-35.5 7.05-9.4 11.65-18.25 4.6-8.95 6.9-18.35 18.25-54.2 5.5-96.9-3.05-10.4-7.65-19.95-2.15-4.25-4.45-8.3l-.3-.3"
     display="inline" />
  <path
     id="path44-1"
     fill="#000000"
     fill-opacity="1"
     d="M561.7986 444.5357v-.15q-1.35-9.7-8.2-16.2h-.2q-3.65-3.5-9.4-4.6h-.15q-6.1-1.1-12.2-.6h-.15q-18.25 2-35.3 8.6-20.7 7.1-36.7 22l-.3.3-6.55 6.65 10.8.15q10.5.45 13.85 14.45 2.15 9.7-1.65 18.65 22.05 17.2.9 46.6l1.95 2.65q2.15 3.55 2.3 7.85.3 6.6-7.6 14.6-16.75 3.7-32.9-2.75-16.75-6.8-22.35-23.55v-.15q-6.7-18.95-1.55-38.5 5.2-19.7 17.2-36.15 7.45-10.15 15.85-19.1l.15-.15 3.05-3.25-9.15 4.3q-10.5 6.05-17.2 14.5-13.55 17.4-18.7 37.55-5.8 22.15 1.65 43.85 7 20.95 27.7 29.25 19.2 7.7 39.15 2.95.3 0 .6-.15 21.75-6 38.5-21.55 15.55-14.5 26.35-32.8 7-11.85 11.85-24.5v-.15q8.55-19.35 8.85-40.15v-.15q0-5.1-.45-10.3"
     display="inline" />
  <path
     id="path45-0"
     fill="#b10000"
     fill-opacity="1"
     d="M532.5486 432.1857q-2.85.35-5.6.8l-46 31.25v.3q5.35 12.45 4.9 25.85l4.4 5.1 62.55-48.95q-.15-.5-.15-1.1h.15q-1.05-6.15-5.45-10.3v-.15q-2.15-1.7-5.2-2.3h.15q-4.85-.95-9.75-.5"
     display="inline" />
  <path
     id="path46-0"
     fill="#6eaadc"
     d="M552.7986 445.5857q-.1 0-.05-.05l-.1-.1q0 .6.15 1.1v-.95"
     display="inline" />
  <path
     id="path47-3"
     fill="#80d1f5"
     d="M552.7486 445.5357q0-.05.05-.1h-.15l.1.1"
     display="inline" />
  <path
     id="path48-7"
     fill="#b10000"
     fill-opacity="1"
     d="m499.2486 438.3357-.15.2q-18.3 6.15-31.25 16.75 7.65.75 11.45 5.85l40-26.8q-7-.9-20.05 4"
     display="inline" />
  <path
     id="path49-7"
     fill="#b10000"
     fill-opacity="1"
     d="M545.0486 491.6357q7.75-17.7 8.05-36.8v-4.6l-61.05 47.85q.5 1.4 1.1 3.05 3.95 13.55.45 26.2l49.95-32.05q.75-1.8 1.35-3.5l.15-.15"
     display="inline" />
  <path
     id="path50-0"
     fill="#b10000"
     fill-opacity="1"
     d="M533.6486 515.0357h.15q4.1-7.25 7.6-14.65l-49.5 31.7-1.8 4q-.15.15-.15.3l-3.35 5.1q.45 1.25.75 2.45v.15h-.15q2.15 8.95-.3 16.65 12-5.55 22.05-14.95 14.5-13.55 24.7-30.75"
     display="inline" />
  <path
     id="path53-9"
     fill="#b10000"
     fill-opacity="1"
     d="m478.4986 543.0357-1.95-2.65q21.15-29.4-.9-46.6 3.8-8.95 1.65-18.65-3.35-14-13.85-14.45l-10.8-.15 6.55-6.65-9.6-8.75-.15.15q-8.4 8.95-15.85 19.1-12 16.45-17.2 36.15-5.15 19.55 1.55 38.5v.15q5.6 16.75 22.35 23.55 16.15 6.45 32.9 2.75 7.9-8 7.6-14.6-.15-4.3-2.3-7.85"
     display="inline" />
  <path
     id="path16"
     d="m217.05 132.25.15-9.35q-14.25 2.5-27.1 7-25.75 9.2-49.65 28-5.05 4.05-20.8 21.55-.8 1-1.55 1.75-13.95 15.75-22.5 43.7-8.75 28.4-8 60.7.8 32.3 6.3 53.95 5.5 21.45 13.8 27.1 3.5 2.2 3.5-.1 0-3.5-1.85-7.75-1.95-4.55-5.5-14.3-3.5-9.7-5.8-30.65-2.45-20.95-1.85-37.5.45-16.75 5.95-41.2 6.15-26.8 16.55-42.45 3.1-4.7 6.6-8.45 10.55-11.1 20.7-19.15 22.8-17.85 47.3-26.5 11.35-4.1 23.75-6.35"
     display="inline" />
  <path
     id="path17"
     d="m102.75 219.75 2.45-6q-1.6-.7-14.65-7.55-12.2-5.9-12.8-4.15-1.15 3.05 25 17.7"
     display="inline"
     style="fill:#010000;fill-opacity:1" />
  <path
     id="path18"
     fill="#ffffff"
     d="M111.3 207.375a220.521 220.521 0 0 1-.775-1c-3.0293 6.148-5.646 12.4897-7.85 19.025-17.1829 50.5999 3.6211 38.0124 6.5805 39.3757 5.166 2.3127 9.002 173.5078 22.6694-8.4216-1.7927-5.8406-5.5009-23.5948-14.1749-33.0041-2.4667-5.9-4.7667-10.9-6.9-15 .15-.3227.3-.6477.45-.975"
     display="inline" />
  <path
     id="path19"
     fill="url(#c)"
     d="M99.6406 234.9781c-1.5952 4.761-2.603 9.5987-3.2906 14.5719.6-.3 1.1979.2116 1.8645.045 1.306-.334 2.437-.1983 3.7476.0524 1.8714-2.364 4.4759-4.0947 7.3879-3.3474 3.7.9334 7.1833 4.2 10.45 9.8 3.2 5.4667 5.2167 11.6834 6.05 18.65.8 6.9.1833 12.4667-1.85 16.7-1.2287 2.438-2.712 4.0297-4.45 4.775 1.4213-.4486-3.234 1.3164-2.122-.185 1.3666 13.5668 4.9143 23.4737 1.981 34.1404-1.5333 5.6-1.8423 9.403-4.109 12.4696 1.3-.8333 2.5667-1.9166 3.8-3.25 0-.0333.0167-.0667.05-.1.074-.084.149-.1673.225-.25 7.834-19.166 12.4414-41.9776 11.524-68.6116-.342-8.6233-3.2577-18.2534-6.449-28.7134-3.6673-8.0706-8.084-13.2623-13.25-15.575-2.9593-1.3633-5.801-1.6133-8.525-.75-.1685.4171-.1693.431-.325.95l-1.7664 5.0701"
     display="inline" />
  <path
     id="path20"
     fill="#010000"
     fill-opacity="1"
     d="M110.525 206.375q.379.492.775 1-.225.491-.45.975 3.2 6.15 6.9 15 4.011 9.614 6.7 18.375 4.787 15.69 5.3 28.625 1.376 39.951-10.375 68.7-1.915 4.671-4.175 9.05 3.461-5.86 6.325-11.875 7.001-14.761 10.325-30.425 2.53-11.868 2.95-24.25.4-11.25-1.1-22.3-3.6-29.25-19.4-57.75-.182.334-.375.675Q97.098 181.353 95.8 182.85q-1.856 2.141 14.725 23.525"
     display="inline"
     style="fill:#010000;fill-opacity:1" />
  <path
     id="path21"
     fill="#010000"
     fill-opacity="1"
     d="m96.35 249.55-.05.35v.1q-.1.3-.1.6-.2.8-.3 1.65-.05.15-.05.25-.05.15-.05.3-1.1 6.75-1.75 13.7-1.25 13.6-1.1 26.4l.1 5.85.1 2q.1 3.25.35 6.5l.2 2.7.1.9v.25l1.1 9.8q.8 5.8 1.9 11.45 1.85 9.25 4.25 14.4h.05q3.5 2.05 7.2 1.1 3.95-1.05 7-5.2 3.4-4.6 5.7-13 4.4-16 2.35-36.35-1.668 2.252-3.8 2.925-1.918.826-4.25.275-5.7-1.45-10.45-9.7-4.85-8.4-6.05-18.75-1.2-10.45 1.85-16.85.692-1.441 1.525-2.475-1.966-.376-3.925.125-1 .25-1.9.7"
     display="inline" />
  <path
     id="path22"
     fill="#ffffff"
     d="M108.85 306.1q-1.75-.5-2.95 1.05-1.3 1.5-1.45 3.95-.15 2.65 1 4.8 1.1 2.1 2.85 2.55 1.6.4 2.95-1.1 1.15-1.45 1.4-4.1.05-2.55-.95-4.65-1.2-2.15-2.85-2.5m-8.2-54.9q-3.05 6.4-1.85 16.85 1.2 10.35 6.05 18.75 4.75 8.25 10.45 9.7 2.332.551 4.25-.275 2.607-1.118 4.45-4.775 3.05-6.35 1.85-16.7-1.25-10.45-6.05-18.65-4.9-8.4-10.45-9.8-4.368-1.121-7.175 2.425-.833 1.034-1.525 2.475"
     display="inline" />
  <path
     id="path23"
     fill="url(#a)"
     d="M131.85 305.8c-2.216 10.4427-5.6577 20.5843-10.325 30.425.4087-.6073-.774-.807.4295-1.8366 2.459-7.5221 8.3208-16.9337 9.8955-28.5884"
     display="inline" />
  <path
     id="path24"
     fill="#ffffff"
     d="M119.1 339.4q-1.85 2-3.8 3.25-3.05 4.15-7 5.2-3.7.95-7.2-1.1 5.4 11.65 13.5 1.95 2.4-4.6 4.5-9.3"
     display="inline" />
  <path
     id="path25"
     d="m98.25 236.15 1.15-6.1q-25.6-5.8-25.95-2.3-.3 3.55 24.8 8.4"
     display="inline"
     style="fill:#030202;fill-opacity:1" />
  <path
     id="path26"
     fill="#ffffff"
     d="M275.35 234.15c-7.7667-2.2667-15.8333-2.5833-24.2-.95-39.0536 2.1162-53.8175 41.7537-61.9695 47.141 10.75-1.496 43.9678 45.159 40.9637 20.8174 5.1911 4.7332-2.6252 51.873.0246 31.4979-1.879 30.7598 12.0288 29.8273-10.3243 47.5571l20.5868-1.1446c8.9-2.4 17.85-7.0334 26.85-13.9 16.6333-12.6667 29.302-29.5855 36.5687-50.3188 3.0993-9.1373 4.8827-17.879 5.35-26.225l-.45.075c.9333-17.3667-2.8-30.9-11.2-40.6-5.7-6.6333-13.1-11.2833-22.2-13.95"
     display="inline" />
  <path
     id="path27"
     fill="url(#b)"
     d="M201.85 256.775q-.875 1.007-1.7 2.025-1.775 2.073-3.45 4.35 2.443-3.5 5.15-6.375"
     display="inline" />
  <path
     id="path28"
     fill="url(#d)"
     d="M219.9 380.2c.1333.0333.2667.05.4.05l12.35.15c2.8-.3 5.6-.8167 8.4-1.55h.1c10.4333-4.6 18.9-13.75 25.4-27.45l-12.5475-17.426c-1.9 7.4-17.1483 26.2885-21.015 31.9885-4.7333 7.1-7.3875 12.4708-13.0875 14.2375m4.625-137.375c-8.8 5.6-16.5417 12.8083-22.975 20.375-5.44 6.2747-10.1233 13.8747-13.3 20.8.52-.8833 3.0617.875 3.625.025 6.9667-10.2667 14.5-15.975 23.6-14.875-.5636 5.1747 4.8307.3057 6.75 1.125 3.772-1.6147 7.5803-2.5897 12.175.075 5.5 3.1667 9.9833 8.5833 13.45 16.25 3.4667 7.5333 4.85 15.1333 4.15 22.8-.7333 7.5667-3.2833 12.9333-7.65 16.1-.902.6147-1.827 1.1063-2.775 1.475 1.14-.3833 2.2483-.9417 3.325-1.675a14.9598 14.9598 0 0 0 2.05-1.8c-3.6535 4.098-19.1456 48.6962 10.2625 33.275 8.3607 5.8686 13.9792-18.6917 13.9125-17.725l2.725-10.75c1.5667-9.1667 1.7667-18.7333.6-28.7-2.0667-18.7667-8.35-33.45-18.85-44.05-9.0167-9.246-20.0562-14.2773-30.8062-12.7813"
     display="inline" />
  <path
     id="path29"
     fill="#ffffff"
     fill-opacity=".2966"
     d="m245.8 339.4 13.6 3.75c4.3333 1.3333 7.2333 2.1333 8.7 2.4l.8.25h.05c0-.0333.0167-.0667.05-.1l2.05-5.75c1.3-3.8333 2.0531-7.827 2.8531-11.7938l-.0531.1438-27.1781 2.2344c-.2 2.8666-.4386 6.1656-.8719 8.8656"
     display="inline" />
  <path
     id="path30"
     fill="#ffffff"
     fill-opacity=".5339"
     d="m259.4 343.15-13.6625-3.7734c-.4 2.7-.8708 5.34-1.5375 7.8734l15.9279 15.3152c3.8-5.5667 6.7388-11.3319 8.7721-16.7652l-.8-.25c-1.4667-.2667-4.3667-1.0667-8.7-2.4"
     display="inline" />
  <path
     id="path31"
     fill="#ffffff"
     d="M180.6 319.9q.032-.831.075-1.65-1.457 14.41 1.525 28-.009.057-.025.1.711 2.198 1.575 4.35 1.328 3.343 2.95 6.35-7-16.35-6.1-37.15"
     display="inline" />
  <path
     id="path32"
     fill="#010000"
     fill-opacity="1"
     d="M341.55 248.4q-.65-1.85-16.4 3.5-10.983 4.045-15.675 5.7-2.514-7.369-6.375-12.3-1.237-1.601-2.6-3.05 20.33-20.21 17.9-22.5-1.675-1.675-22.65 18.1-7.664-6.079-18.25-8.75-27.55-7.5-54.1 9.8-13.281 8.448-21.55 17.875-.875 1.007-1.7 2.025-1.775 2.073-3.45 4.35-7.862 10.63-13.55 25.55-1.55 3.65-2.6 7.8-2.15 7.65-2.75 16.7-1.55 17 3.05 30.6 1.128 3.195 1.325 2.55.016-.043.025-.1-2.982-13.59-1.525-28-.043.819-.075 1.65-.9 20.8 6.1 37.15.149.277.3.55 4.801 11.12 15.1 16.35l.2.1q.35.25.8.5.8.45 1.65.9l7.5 3.05q.25.05.5.15l4.55 1.1q.5.1 1.05.2.75.15 1.55.25 8.55-2.65 15.65-13.3 5.8-8.55 8.65-19.65 1-3.8 1.6-7.85.65-4.05.95-8.35.1-1.45.15-2.9.1-2.35.05-4.65-.95 1-2.05 1.8-1.615 1.1-3.325 1.675-5.638 2.203-12.275-1.475-8.4-4.9-13.45-16.25-5.2-11.5-4.15-22.8 1.1-11.5 7.65-16.25 1.217-.876 2.5-1.425-2.879-1.229-6-1.625-13.65-1.65-24.1 13.75-.845 1.275-1.625 2.6 4.765-10.388 12.925-19.8 9.65-11.35 22.85-19.75l.05-.025q12.228-8.081 25.2-10.725 12.55-2.45 24.2.95 13.65 4 22.2 13.95 12.6 14.55 11.2 40.6l.45-.075 3.85-.575q.005-.087 0-.175 26.643-3.709 26.35-7.325-.429-3.479-26.2.95-.087-9.231-1.9-17.425 31.26-12.454 30.25-15.675"
     display="inline" />
  <path
     id="path33"
     fill="#ffffff"
     d="M220.45 341.1q.9-2.6-.15-5.35-1.25-2.9-3.7-4.3-2.6-1.5-4.9-.6-2.45.75-3.35 3.2-1.1 2.65.15 5.55 1.05 2.75 3.65 4.3 2.45 1.35 4.9.6 2.3-.8 3.4-3.4"
     display="inline" />
  <path
     id="path34"
     fill="#b10000"
     d="m143.55 333.3-19.0971-3.653-.1468.2868c-2.1333 5.7333-8.5136 11.6635-12.7136 16.3635-3.1666 3.5667-5.3442 3.5079-9.9442 5.0412l-1.7048.7024c-.6.2.6401.5503-.2932.8503-.6-1.5728-2.7214.0986-3.5547.3986-.7.2-1.266.8014-2.0994 1.0014l-6.5054 2.7044-3.1601-.903c-5.1 2.1333-4.175 9.7778-2.2416 16.3111 2.3667 7.1334 7.052 14.8697 12.852 21.403 2.0667 2.3667 5.5208 5.2688 7.9541 7.5021 1.2334 1.0333 1.8647 2.819 2.9977 3.4507 1.1.8 3.1197.6133 4.253 1.4466 2.3064 2.5074 1.8197 1.7537 2.453 2.1537 6.6334-.9 14.6082-2.4816 19.1082-5.7483 6-4.3 7.0589-6.9487 7.7922-18.582-1.2486 12.8653.2296 13.0831-6.9037 19.3164-2.9667 2.5334-10.7292 5.5198-14.5582 8.3572 10.7334 5.8333 23.9742 11.9383 35.3075 15.305 16.2333 4.8 36.8537 6.2323 59.6537 4.899.4997 2.2075 1.25-.351 1.95-.451l29.4517-3.7503c1.4334-.2 2.8164-.567 4.3497-.9004 1.9333-.4 3.3816-.6996 5.3483-1.0996l27.553-7.202c3.5667-.9 1.7651-.9134 5.4318-2.0467 1.5333-8.8 2.4169-17.4404-7.3831-21.7071-9.8 3.2667-20.1167 5.25-30.95 5.95-3.0667.2-6.1833.3-9.35.3-32.9667 0-61.15-11.0167-84.55-33.05-4.1667-4-7.9333-8.1-11.3-12.3V333.3"
     display="inline" />
  <path
     id="path35"
     d="M76.3 373.15h-.15c2.9333 8.9667 7.7833 17.2333 14.55 24.8 3.5667 4.2 6.2167 7.0667 7.95 8.6 3.2667 2.8333 6.0667 4.9667 8.4 6.4 1.8667 1.3333 3.8167 2.6667 5.85 4 10.7 6.6333 23.3167 12.05 37.85 16.25 19.6 5.7 44.9167 6.5167 75.95 2.45 31.2667-4.1 53.0667-11.2 65.4-21.3-3.6667 1.1333-7.2833 2.15-10.85 3.05L254.6 424c-1.9667.4-3.9167.8-5.85 1.2-1.5333.3333-3.0167.6-4.45.8l-28.95 3.65c-.7.1-1.35.15-1.95.15-22.8 1.3333-42.3167-.4-58.55-5.2-11.3333-3.3667-22.3667-7.9667-33.1-13.8 5.1333-1.6333 9.1833-3.7167 12.15-6.25 7.1333-6.2333 9.0667-15.9833 5.8-29.25-.7333 11.6333-4.1 19.6-10.1 23.9-4.5 3.2667-10.0667 5.35-16.7 6.25-.6333-.4-1.15-.75-1.55-1.05a794.346 794.346 0 0 0-3.35-2.45 107.6031 107.6031 0 0 0-3.7-3.25c-2.4333-2.2333-4.6833-4.5333-6.75-6.9-5.8-6.5333-9.8833-13.3667-12.25-20.5-1.9333-6.5333-.35-10.8667 4.75-13h.15l4.9-1.4c.8333-.2 1.6-.4 2.3-.6.8333-.3 1.55-.5667 2.15-.8.9333-.3 1.7-.55 2.3-.75h.3c4.6-1.5333 8.4833-4.0833 11.65-7.65 4.2-4.7 7.3667-9.9167 9.5-15.65l.3-.9c-.3.4-.55.8167-.75 1.25-1.8333 2.4333-3.7667 4.5167-5.8 6.25-1.5333 1.2333-3.0667 2.3-4.6 3.2-.6333.4333-1.35.85-2.15 1.25-1.8333.9333-3.9333 1.8-6.3 2.6-.5.1-1.0667.25-1.7.45-.9.2-1.8667.4667-2.9.8-.1 0-.2.05-.3.15-.5.1-1.0667.25-1.7.45-2.4333.5-5.3833 1.2667-8.85 2.3-.4844.1375-.891.2507-1.1.3-1.7333.5-3.2667 1.1167-4.6 1.85-.8.4-1.5667.9-2.3 1.5-1.5333 1.1333-2.65 2.5167-3.35 4.15-2.6667 4.4-2.9667 9.7667-.9 16.1"
     display="inline" />
  <path
     id="path36"
     d="M116.1 372.85q-4.3.75-9.8-1.4 6 6.9 11.65 6.3 5.35-1.4 4.15-14.55-1.85 8.25-6 9.65"
     display="inline" />
  <path
     id="path37"
     fill="#ff0000"
     d="M441.8 158.55c-8.3667-16.5333-19.45-30.9833-33.25-43.35-9.6-8.4667-20.5167-15.9667-32.75-22.5l-6.8943 9.4445c37.3667 21.5667 62.6333 54.5 75.8 98.8 1.2333 4.1 4.8249 7.6263 5.8249 11.993 2.8666 15.4333-3.5937 29.2016-.2962 43.7322L452 264.45c-.3 6.9667 2.561 13.5935 1.861 20.5268-.7334 5.2-.1359 9.0358-1.0359 14.3358-4.2992.603-1.6874 3.2773-1.8874 4.3106-.4 1.4333-3.4517 2.4596-3.8517 4.493-.5 2.2332-1.1166 3.8226-1.85 6.8893l-2.8284-.2036c-.9 2.8667 4.774 7.8814 3.9407 10.4481-.3 2.1333-1.7106 3.056-2.1106 4.8893-1.0333 3.9-2.9101 9.5435-5.2768 16.5768-1.1 3.1667-.1453 5.5762-1.3787 8.643-1.0333 2.5332-3.4642 4.503-4.4642 6.9696-1.8333 4.2-5.6778 6.262-7.6445 10.4287-5 10-9.2025 18.856-15.4358 28.6893-17.9667 25.8333-22.2596 60.3443-14.2929 89.7443-3.789 2.498-1.7946 1.991-1.7946 2.191C402.417 524.5486 420.8 548.7833 439.2 572.45c1.2333 2.0667 4.45 3.4 9.65 4-29.8333-43.8-45.4-81.1667-46.7-112.1v-7.85c.8-10.5 4.8833-22.65 12.25-36.45 3.0667-5 5.9667-9.85 8.7-14.55.1-.3.25-.5.45-.6a252.5979 252.5979 0 0 0 3.55-6.45c3.8667-7.3333 7.5333-14.5333 11-21.6.3333-.8.7-1.5667 1.1-2.3 1.3333-3.3667 2.7667-6.7333 4.3-10.1a249.958 249.958 0 0 0 2.9-7.5c.3-.8333.6-1.7.9-2.6 3.6-9.5 6.6167-18.8 9.05-27.9 0-.4.05-.75.15-1.05 1.0333-2.8667 1.95-5.6333 2.75-8.3.8333-2.8333 1.55-5.5333 2.15-8.1 0-.5.1-1.0167.3-1.55.4333-1.8333.8-3.6167 1.1-5.35v-.45c.9-5.8333 1.6667-11.5 2.3-17 .7-7.0667 1.15-14.0167 1.35-20.85v-6.75c-.1-20.2-2.85-39.55-8.25-58.05-4-14-9.4667-27.4833-16.4-40.45"
     display="inline" />
  <path
     id="path38"
     fill="#ffffff"
     d="M221.85 268.775q-1.283.549-2.5 1.425-6.55 4.75-7.65 16.25-1.05 11.3 4.15 22.8 5.05 11.35 13.45 16.25 6.637 3.678 12.275 1.475 1.422-.553 2.775-1.475 6.55-4.75 7.65-16.1 1.05-11.5-4.15-22.8-5.2-11.5-13.45-16.25-6.892-3.997-12.55-1.575"
     display="inline" />
  <path
     id="path39"
     fill="#ff00f1"
     fill-opacity="1"
     d="m370.1 160.85 10.6 23.45 1.95 1.85 7.05 11q.15.35.5.8 2.9 4.3 7.35 7.05 4.4 2.6 7.35 6.55 2.75 4 8.55 11.65 5.85 7.5 6.9 15.95.9 8.25 4.9 21.75v7.35q2.75 5.65-.9 17-3.7 11.35-6.3 19.3-2.6 7.95-3.8 10.25-1.4 2.3-1.55 4.45-.3 2.15-4.9 11.05-4.6 8.7-9.35 18.5-4.75 9.5-7.8 13.05-3.1 3.35-4.75 7.5-1.7 4-6.75 12.55-5.2 8.3-11.35 23.3-40.3 100.5 11.05 133.25 51.15 32.8 53.75 34h6.6q-27.6-35.5-40.3-82.25 0-.3-.15-.6-11.95-44.1 15-82.85Q423.1 392 430.6 377q2.95-6.25 5.7-12.55 1.5-3.7 3.05-7.5 1.85-4.6 3.5-9.35 3.55-10.55 5.1-16.4.6-2.75 1.05-5.95 1.25-3.85 2.6-8.15v-.15q1.1-4.6 1.85-7.95.6-3.05 1.2-5.2.3-1.55.65-3.25 1.35-7.95 2.45-15.75 1.05-10.4 1.5-20.85v-6.75q0-22.35-4.3-45.5-1.5-6.55-3.35-12.7-19.75-66.45-75.8-98.8l-5.7 60.65"
     display="inline" />
  <path
     id="path40"
     fill="#014b4b"
     d="m157.15 244.2-.45-.65-.15.95.6-.3"
     display="inline" />
  <path
     id="path41"
     fill="#ffffff"
     d="M15.6 242.05v.15h.2l-.2-.15"
     display="inline" />
  <path
     id="path42"
     fill="none"
     d="M369.35 83.8q-40.9-18.85-99.25-24.5l-2.15-.15q-3.7-.35-6.9-.5-.95-.15-1.7-.15-15.3-1.35-24.95-3.05-43.2-7.35-59.75-30.65-6.9-9.95-10.75-24.8l-.15 1.4q-.3.75-.3 1.35l-.6 25.9q1.4 17.6 7.5 32.95 2.9 7.2 6.75 13.15-13.5.9-29.55 3.7-2.15.3-4.15.75-4.3.75-8.6 1.85-35.2 8.4-65.7 30.3-24.2 17.5-40 41.85-2.75 4.1-5.2 8.4-7.2 12.7-12.25 27.3-.6 2.1-1.2 4.25-1.25 3.7-2.3 7.65-.8 3.4-1.55 6.9-.45 1.85-.6 3.85-1.25 6.15-2 12.7v.8l.3-.5 15.15-15.15q1.55-1.7 2.45-2.75.8-1.1 2.3-2.45 1.4-1.55 5.7-6.6 4.3-5.2 11.65-11.65 7.2-6.25 11.15-9.95 4-3.65 9.35-7.5 5.2-3.85 22.7-15.95 17.45-12.1 35.35-18.95 17.95-6.9 30.95-10.3 12.85-3.35 39.85-4.9 26.95-1.5 58.35 7.5 31.4 9.05 42.1 17.35 10.75 8.25 15.5 12.55 4.6 4.1 10.7 11.3 6 7.2 7.5 11.05 1.55 3.7 3.1 4.3 1.5.45 4.75 2.6 3.35 2 28.15-33.55 24.85-35.55 30.8-45.95 2.45-7.05-8.55-13.65-11.2-6.75-13.95-8.1"
     display="inline" />
  <path
     id="path43"
     fill="none"
     stroke="#999966"
     stroke-linecap="round"
     stroke-linejoin="round"
     stroke-width=".2"
     d="M259.35 58.5q.75 0 1.7.15"
     display="inline" />
  <path
     id="path44"
     fill="#ff0000"
     d="M383.3 91.9c-7.4667-4.5-12.1167-7.2-13.95-8.1C342.0833 71.2333 309 63.0667 270.1 59.3l-2.15-.15c-2.4667-.2333-4.7667-.4-6.9-.5-.6333-.1-1.2-.15-1.7-.15-10.2-.9-18.5167-1.9167-24.95-3.05-28.8-4.9-48.7167-15.1167-59.75-30.65-4.6-6.6333-8.1833-14.9-10.75-24.8l-.15 1.4c-.2.5-.3.95-.3 1.35l-.6 25.9c.9333 11.7333 3.4333 22.7167 7.5 32.95 1.9333 4.8 4.1833 9.1833 6.75 13.15-9 .6-18.85 1.8333-29.55 3.7-1.4333.2-2.8167.45-4.15.75-2.8667.5-5.7333 1.1167-8.6 1.85-23.4667 5.6-45.3667 15.7-65.7 30.3-16.1333 11.6667-29.4667 25.6167-40 41.85a135.4667 135.4667 0 0 0-5.2 8.4c-4.8 8.4667-8.8833 17.5667-12.25 27.3-.4 1.4-.8 2.8167-1.2 4.25-.8333 2.4667-1.6 5.0167-2.3 7.65a353.695 353.695 0 0 0-1.55 6.9c-.3 1.2333-.5 2.5167-.6 3.85-.8333 4.1-1.5 8.3333-2 12.7l.3.3 23.4585-17.0945c-.3-2.4334-4.9962-2.4525-4.8962-2.8858.4333-2.7334 1.7071-4.953 2.4071-7.7197l-1.591-.6268c.7-3.0666 5.229-7.6243 6.1623-10.491 0-.1 3.7623 1.0375-.0267 1.6446 3.6666-11.5333 8.2226-20.0383 15.7893-31.1716 5.3-7.9667 10.6494-14.7227 17.8161-22.3893 19.2-20.5334 40.9847-36.5244 71.718-44.791.3-.1 4.2624 6.214 2.341 1.441 4.7345 3.7628 4.2924.041 7.159-.559 16.3951 5.4953 24.756-4.5465 35.6894-4.8465l2.3-1.2374c3.9-.1 11.4724 1.591 14.939 1.891l-.1606-4.4623c-1.4333-1.4334-.8054-5.922-2.0054-7.4553-4-5.1-7.2331-9.4797-9.7998-16.8464-1.4-3.9667 2.9885 1.5033 2.1552-2.6967 8.2355 7.6682 5.6182 13.5716 20.9341 7.5358 11.6334 3.1667 26.0834 6.9309 43.35 8.4642 3.2667.3 6.0495 1.4839 10.1162 1.7839.7797 9.546 1.4929 9.9495 2.4929 10.0495 1.4333.1333 3.0434-8.9424 4.4767-8.8424l2.2197 3.3052c36.9667 3.0667 62.3962 11.3101 88.6628 24.3768 3.0667 1.5333 13.4451 6.61 25.4784 14.8768 1.6334-4.7 5.1473-19.5031-2.186-23.9031"
     display="inline" />
  <path
     id="path45"
     fill="none"
     stroke="#999966"
     stroke-linecap="round"
     stroke-linejoin="round"
     stroke-width=".2"
     d="M261.05 58.65q-.95-.15-1.7-.15"
     display="inline" />
  <path
     id="path46"
     fill="#ff00f1"
     d="m 325.05,178.15 c 1.03333,2.46667 2.06667,3.9 3.1,4.3 1,0.3 2.58333,1.16667 4.75,2.6 2.23333,1.33333 11.61667,-9.85 28.15,-33.55 16.56667,-23.7 26.83333,-39.01667 30.8,-45.95 C 379.81667,97.283333 372.26667,92.383333 369.2,90.85 342.93333,77.783333 311.31667,69.716667 274.35,66.65 l -2.75,-0.3 c -1.43333,-0.1 -2.86667,-0.216667 -4.3,-0.35 -1,-0.1 -2.06667,-0.15 -3.2,-0.15 -4.06667,-0.3 -7.73333,-0.6 -11,-0.9 -17.26667,-1.533333 -31.71667,-3.883333 -43.35,-7.05 -13.1,-3.566667 -23.93333,-8.466667 -32.5,-14.7 0.83333,4.2 1.95,8.283333 3.35,12.25 2.56667,7.366667 5.85,13.6 9.85,18.7 1.2,1.533333 2.51667,3.016667 3.95,4.45 l -0.9,0.75 c -3.46667,-0.3 -7.15,-0.4 -11.05,-0.3 h -2.3 c -10.93333,0.3 -23.18333,2.033333 -36.75,5.2 -2.86667,0.6 -5.78333,1.316667 -8.75,2.15 -0.2,0 -0.45,0.05 -0.75,0.15 -30.73333,8.266667 -55.7,22.66667 -74.9,43.2 -7.166667,7.66667 -13.4,15.48333 -18.7,23.45 -7.566667,11.13333 -13.183333,22.46667 -16.85,34 -0.1,0.1 -0.15,0.2 -0.15,0.3 -0.933333,2.86667 -1.75,5.83333 -2.45,8.9 v 0.45 c -0.7,2.76667 -1.266667,5.51667 -1.7,8.25 -0.1,0.43333 0,1.86667 0.3,4.3 1.033333,-1.13333 1.85,-2.05 2.45,-2.75 0.533333,-0.73333 1.3,-1.55 2.3,-2.45 0.933333,-1.03333 2.833333,-3.23333 5.7,-6.6 2.866667,-3.46667 6.75,-7.35 11.65,-11.65 4.8,-4.16667 8.516667,-7.48333 11.15,-9.95 2.666667,-2.43333 5.783333,-4.93333 9.35,-7.5 3.466667,-2.56667 11.033333,-7.88333 22.7,-15.95 11.633333,-8.06667 24.12617,-13.39003 36.0595,-17.9567 11.96667,-4.6 21.57383,-7.04003 30.2405,-9.3067 8.56667,-2.23333 21.4243,-4.43427 39.4243,-5.4676 17.96667,-1 37.84237,0.081 58.7757,6.081 20.93333,6.03333 34.96667,11.81667 42.1,17.35 7.16667,5.5 12.33333,9.68333 15.5,12.55 3.06667,2.73333 6.63333,6.5 10.7,11.3 4,4.8 6.5,8.48333 7.5,11.05"
     display="inline"
     sodipodi:nodetypes="ccccccccccccccccccccccccccccccccccccccccccccc" />
  <path
     id="path47"
     fill="#014b4b"
     d="M 4.3,224.55 4,224.25 v 0.8 l 0.3,-0.5"
     display="inline" />
  <path
     id="path48"
     d="m 200.55,155 -5.1,-3.95 q -30.15,-29.9 -44.1,-43.55 -5.8,-5.8 -8.9,-8.85 -1.05,-1.1 -1.65,-1.7 Q 129,86.55 119.95,80.1 v -0.15 q -23,-16.55 -32.15,-10.1 -8.6,4.1 1.05,28.8 3.7,9.65 10.1,22.35 2.95,6 6.45,12.85 7.8,14.25 15,26.65 11.2,19.3 16.1,30.2 48.85,-16.85 64.05,-35.7"
     display="inline" />
  <path
     id="path49"
     fill="#b10000"
     d="m 92.25,77.8 q -2.65,2 5.95,20.85 3.2,7.2 8.1,16.7 10.15,-6.15 11.35,-16.7 0.45,-4.3 -0.6,-9.35 -1.25,-0.95 -2.45,-1.85 h -0.15 Q 97.9,75.65 92.25,77.8"
     display="inline" />
  <path
     id="path50"
     fill="#b10000"
     d="m 120.7,92.05 q 0.3,3.5 0.15,6.6 -1.35,12.25 -13,19.45 h -0.15 q 2.6,5.5 5.95,11.5 7.05,13.45 14.1,25.25 20.25,-11.35 19.3,-38.9 -1.05,-1.1 -2,-1.85 -7.8,-7.65 -10.55,-10.1 -1.35,-1.25 -2.45,-2.15 -1.2,-1.35 -3.2,-3.2 -3.25,-2.75 -8.15,-6.6"
     display="inline" />
  <path
     id="path51"
     fill="#b10000"
     d="m 129.15,157.6 q 11.95,20.25 14.1,23.6 31.55,-7.8 45.35,-24.35 -24.7,-24.35 -38.3,-37.7 -0.15,26.95 -21.15,38.45"
     display="inline" />
  <path
     id="path52"
     fill="#0000ff"
     d="m 330.1,177.55 q -2.75,-5.05 -5.8,-9.5 -7.05,-10.4 -15.8,-18.35 -1.35,-1.55 -3.05,-2.75 -21,-17.5 -55.9,-25.15 -30.8,-6.9 -62.35,-4.45 -23,1.85 -44.9,8.15 -4.3,1.2 -8.55,2.75 -32.8,10.7 -63.15,31.7 -4.6,3.2 -8.85,6.45 -5.05,3.8 -9.8,7.8 -5.4,4.3 -10.3,9.05 -8.1,7.5 -15.15,15.6 -1.85,1.85 -3.5,4 -1.4,1.5 -18.4,21.15 l -0.3,0.6 -0.3,0.45 q -0.65,3.85 -1.4,10.7 -0.75,7.05 -1.55,20.4 -0.9,13.15 -1.05,19.15 -0.15,2.15 0.6,10.85 37.1,-35.5 83.5,-61.55 46.4,-26.2 112.6,-50.1 -29.25,26.8 -38.3,61.25 -0.15,0.35 -0.15,0.8 -0.3,0.9 -0.6,2 0,0.3 -0.2,0.75 l -0.45,2.6 q -0.15,0.75 -0.3,1.7 l 0.45,0.6 q 6,-3.85 12.1,-7.2 43.7,-25.45 78.45,-36.6 25.1,-8.15 60.2,-11.8 7.95,-0.95 16.7,-1.55 l 8.9,-0.6 q 0.45,-0.15 1.05,-0.15 l -2.45,-5.35 q -0.15,-0.15 -0.3,0 -0.75,-1.7 -1.7,-3.4"
     display="inline" />
  <path
     id="path53"
     fill="#3dff00"
     d="m 211.7,169.6 -0.45,0.3 q -29.75,27.6 -39.55,58.2 36.3,-20.35 68.05,-31.25 25.25,-8.7 64.95,-13.3 8.25,-1.1 17.3,-1.85 -0.45,-0.9 -0.95,-1.85 -7.15,-13.95 -15.9,-22.5 -1.55,-1.4 -2.75,-2.75 -18.85,-17.15 -48.25,-26.05 -27.9,-8.6 -59,-7.95 -26.95,0.45 -52.85,8.1 -4.45,1.2 -8.7,2.75 -27.9,9.5 -54.4,27.45 -9.35,6.1 -17.6,13 -2.3,1.85 -4.6,3.85 -6.6,5.5 -12.6,11.45 -10.7,10.6 -19.75,22.55 -0.9,1.2 -1.85,2.45 -1.35,1.65 -2.45,3.35 -1.65,2.3 -3.2,4.6 -7.05,20.85 -6.9,47.05 27.9,-25.3 75.05,-51.65 47.2,-26.35 82.9,-39.2 35.7,-12.9 39.5,-12.25 h 0.15 q 5.4,-0.5 10.6,-0.5 l -4.3,3.85 q -1.4,0.9 -2.45,2.15"
     display="inline" />
  <path
     id="path54"
     fill="#014b4b"
     d="m156.7 243.6-.15.9.6-.3-.45-.6m-152.4-19-.3-.3v.75l.3-.45"
     display="inline" />
  <path
     id="path55"
     fill="#0000ff"
     d="m 348.2,176.6 2.45,3.1 c 17.8667,7.1333 28.85,11.6667 32.95,13.6 0.9,0.4333 1.45,0.7 1.65,0.8 0.8333,0.5 1.65,1.05 2.45,1.65 8.7,5.9333 15.9,12.8833 21.6,20.85 1.3333,1.8333 2.6167,3.7667 3.85,5.8 0.1,0.2 0.25,0.5167 0.45,0.95 4.8,8.1667 2.5417,19.175 4.475,29.275 0,0.4 -1.5583,2.1917 1.575,0.75 2.1333,11.9333 1.8083,18.8667 -0.225,30.3 -1.2333,6.8667 -4.9833,12.9167 -7.75,19.65 -0.3,0.7 0.4,4.3917 0.1,5.325 -1.1205,2.406 -4.5038,0.806 -5.65,3.2 l -12.25,23.45 c -0.5333,0.9333 0.2736,3.5064 -0.1264,4.4064 -1.2333,2.4667 0.9097,5.8019 -0.5236,8.5686 -1.1,1.8333 -1.4667,3.6417 -2.6,5.675 h -0.15 c -5.6,-3.525 -2.65,-0.875 -2.65,-0.675 -1.4477,2.4917 -4.381,2.4918 -5.8,5 -1.1436,1.884 -2.7519,2.2195 -3.8416,4.1352 -1.4333,2.2333 -2.4015,6.036 -3.4348,8.4026 C 367.9153,382.6461 364.4,393.7 360,402.6 c -7.5333,17.9667 -14.1167,40.3667 -14.25,56.7 -0.5,42.2667 17.621,74.4205 66.8543,105.1538 -7.1667,0.4333 -6.9456,-1.089 -13.479,-2.6223 -8.2666,-2.3667 -6.1671,-3.5635 -13.5004,-8.3635 -62.6,-46.2667 -72.0445,-98.5486 -30.2778,-172.0486 3.6124,2.7633 -2.0061,-3.3123 -2.0061,-3.1123 6.47618,-6.23533 11.11169,-11.04755 14.27839,-15.94755 1.8912,-1.16269 -1.85406,-3.12466 -5.21127,-1.31429 0.77618,-2.13939 -3.9667,-1.00135 -5.8,-1.20135 -9.88713,-5.44481 -17.09435,-3.25 -23.42765,-3.65 5.8333,-2.7667 5.12969,-0.81638 9.92969,-4.18308 2.30677,2.30881 0.80067,-0.14864 1.10067,-0.34864 7.3667,-5.6333 15.98533,-11.49459 24.65203,-20.79459 5.87821,1.17957 5.21806,-7.08871 7.45136,-10.15541 3.6667,-5.4333 13.30497,-13.82483 16.07167,-20.35813 1.1333,-2.7333 -0.20813,-6.03465 0.79187,-9.10135 4.6,-14.1 1.09571,-28.48601 1.92901,-41.55271 0.8,-13.0667 -2.39007,-22.4167 -5.55677,-28.05 -0.4,-1.1333 -0.85,-2.15 -1.35,-3.05 -0.6333,-1.0333 -1.2,-2 -1.7,-2.9 -1.4333,-2.3667 -2.9167,-4.5167 -4.45,-6.45 l -0.15,-0.15 c -0.2,-0.4 -0.5,-0.7667 -0.9,-1.1 v -0.15 c -0.3333,-0.3 -0.65,-0.6 -0.95,-0.9 l -1.35,10.7 c 0.2,0.3333 0.45,0.7 0.75,1.1 0.5,0.9 2.2333,5.2333 5.2,13 2.8667,7.6667 1.65,23.55 -3.65,47.65 -3.2667,14.8 -8.7833,27.3667 -16.55,37.7 -4.9,6.4333 -10.6667,12 -17.3,16.7 -2.3667,1.7333 -4.7167,3.3667 -7.05,4.9 -14.4,9.8 -26.9667,17.2 -37.7,22.2 l 47.05,7.05 c -0.5333,0.5 -1.05,1.0167 -1.55,1.55 -1.9333,2.5333 -3.6167,5.0833 -5.05,7.65 -4,6 -7.4833,12.1167 -10.45,18.35 -17.0333,35.5333 -18.2,72.6667 -3.5,111.4 l 1.55,3.65 c 0.2,0.3 0.45,0.6667 0.75,1.1 12.3667,22.3667 27.6833,38.95 45.95,49.75 12.3667,7.2667 26,11.9667 40.9,14.1 7.0333,1.0333 14.5333,1.55 22.5,1.55 0.6333,-0.1 1.25,-0.15 1.85,-0.15 1.9333,0 4.0333,-0.1 6.3,-0.3 h 0.425 c -0.1787,-0.005 -0.2203,-0.0547 -0.125,-0.15 -0.1,-0.1333 -0.15,-0.3 -0.15,-0.5 h -0.15 c -4.1,-2.1333 -7.8833,-4.3167 -11.35,-6.55 l 0.125,0.25 c -0.0907,-0.1667 -0.1823,-0.25 -0.275,-0.25 l -0.15,-0.15 c -0.6,-0.4333 -1.2167,-0.8 -1.85,-1.1 -69.5333,-42.5667 -90.4667,-96.5833 -62.8,-162.05 4.2,-8.3667 9.6667,-18.1167 16.4,-29.25 0.9,-1.4333 1.7167,-2.8667 2.45,-4.3 1.6333,-2.7667 3.2667,-5.4333 4.9,-8 1.5333,-2.6333 2.9667,-5.1833 4.3,-7.65 6.8333,-12.3333 12.1833,-22.9 16.05,-31.7 1.4333,-2.6667 2.7167,-5.1667 3.85,-7.5 l 0.3,-0.6 c 1.11555,-2.72405 2.24891,-5.44078 3.4,-8.15 2.9333,-7.8667 5.1167,-15.5167 6.55,-22.95 l 0.15,-1.25 c 1.8667,-9.6 2.2833,-18.7833 1.25,-27.55 v -0.75 c -0.7333,-7.7667 -2.3667,-15.1833 -4.9,-22.25 -1.8333,-4.6 -5.4667,-11.4833 -10.9,-20.65 -0.1,-0.2 -0.2,-0.3667 -0.3,-0.5 -1.4333,-2.5333 -2.8667,-4.8667 -4.3,-7 -3.0333,-4.6 -6.0333,-7.9833 -9,-10.15 -2.4667,-1.8333 -5.0833,-3.5667 -7.85,-5.2 -2.47494,-1.96552 -4.97515,-3.89901 -7.5,-5.8 l -0.15,-0.15 c -0.5,-0.2 -0.9,-0.4667 -1.2,-0.8 -0.2,-0.1 -0.3,-0.2 -0.3,-0.3 h -0.15 v -0.15 c -0.7333,-0.4 -2.1667,-0.65 -4.3,-0.75 0.1,0.4 0.15,0.85 0.15,1.35 -2.7667,-1.2 -5.6833,-2.3667 -8.75,-3.5 -12.3667,-4.4 -20.4833,-5.7333 -24.35,-4"
     display="inline"
     sodipodi:nodetypes="cccccccccccccccccccccccccccccccccccccccccccccccccccccccccccccccccccsccccccccccccccccccccccccccccccccccccccc" />
  <path
     id="path56"
     fill="#3dff00"
     d="M387.7 195.75c-.8-.6-1.6167-1.15-2.45-1.65-.2-.1-.75-.3667-1.65-.8-4.1-1.9333-15.0833-6.4667-32.95-13.6l29.4 27.25c.3.3.6167.6.95.9v.15c.4.3333.7.7.9 1.1l.15.15c1.5333 1.9333 3.0167 4.0833 4.45 6.45.5.9 1.0667 1.8667 1.7 2.9.5.9.95 1.9167 1.35 3.05 3.1667 5.6333 4.35 14.9833 3.55 28.05-.8333 13.0667-3.55 26.65-8.15 40.75-1 3.0667-2.0667 5.9667-3.2 8.7-2.7667 6.5333-5.9833 12.5167-9.65 17.95-2.2333 3.0667-4.5833 5.9167-7.05 8.55-8.6667 9.3-16.6833 16.7667-24.05 22.4-.3.2-.6.45-.9.75-4.8 3.3667-10.1167 6.4333-15.95 9.2 6.3333.4 16.35 1.6167 30.05 3.65 1.8333.2 3.7667.4667 5.8.8.6078.2042.6026.1828 1.2656.3656-3.1666 4.9-5.849 9.151-9.5156 14.7844 0-.2.05-.4.15-.6-41.7667 73.5-31.35 133.3833 31.25 179.65 7.3333 4.8 15.1333 8.3833 23.4 10.75 6.5333 1.5333 13.3833 2.0833 20.55 1.65-49.2333-30.7333-73.6-67.2333-73.1-109.5.1333-16.3333 3.9667-33.4833 11.5-51.45 4.4-8.9 10.0167-19.2667 16.85-31.1 1.0333-2.3667 2.2667-4.6667 3.7-6.9a233.1003 233.1003 0 0 1 3.35-5.7 751.3932 751.3932 0 0 1 4.3-7.5c.2065-.2954.2541-.3812.3-.45 1.1333-2.0333 2.25-3.9667 3.35-5.8 1.4333-2.7667 2.7667-5.3833 4-7.85.4-.9.8667-1.8167 1.4-2.75a14982.475 14982.475 0 0 1 11-22.95 742.4334 742.4334 0 0 0 3.4-7.2c.3-.9333.6-1.75.9-2.45 2.7667-6.7333 4.7667-13.5333 6-20.4 2.0333-11.4333 1.9833-23.1167-.15-35.05-.1333-.4333-.2-.85-.2-1.25-1.9333-10.1-5.3-19.2333-10.1-27.4-.2-.4333-.35-.75-.45-.95-1.2333-2.0333-2.5167-3.9667-3.85-5.8-5.7-7.9667-12.9-14.9167-21.6-20.85"
     display="inline" />
  <path
     id="path57"
     fill="#f1c7fc"
     d="M421.25 83.35v-.6h-.6l.6.6"
     display="inline" />
  <path
     id="path58"
     fill="#b10000"
     d="M384.05 96.5v.15c-3.1667-3.9667-5.7833-6.6667-7.85-8.1-8.4667 3.9667-18.5167 14.0833-30.15 30.35-9.1 12.6667-18.8742 26.8781-25.2076 43.9115-2.9666 8.1666-2.5924 18.4052-2.9924 29.4385 1.2333 1.4333 3.3833 3.8333 6.45 7.2 20 21.2333 34.45 37.4667 43.35 48.7 1.8333 9.5 3.7167 20.95 5.65 34.35l1.1514 2.5461c12.0667-11.7667 22.0852-27.7614 27.7852-44.2947 3.3667-9.3 6.709-22.9262 9.1757-39.4595 4.4-29.4333-1.6456-56.7919-13.3123-81.7919-4.0667-8.8-8.75-16.4667-14.05-23"
     display="inline" />
  <path
     id="path59"
     d="M384.05 96.65v-.15q7.95 9.8 14.05 23 17.5 37.5 10.9 81.65-3.7 24.8-8.75 38.75-8.55 24.8-26.65 42.45l-.3.15-3.05 2.9q10.1-.45 24.2-18.25 7.65-11.8 13.95-26.8 3.35-8.25 5.5-16.7 2-8.1 4.3-21.15 6.75-47-11.8-86.85-6.75-14.25-15.5-24.95-7.8-9.5-12.55-11.35-1.7-.9-3.2-.15-15.35 5.05-39.2 41.5-14.55 22.25-20.55 43.05-5.8 21 2.45 28.5.6-16.55 5.05-28.8 9.5-25.55 23.15-44.55 17.45-24.4 30.15-30.35 3.1 2.15 7.85 8.1"
     display="inline" />
  <path
     id="path60"
     d="M383.1 188.1q4.3-30.45-2.9-47.6 1.85 20.35-1.55 40.9-3.8 22.8-9.95 41.05-2 5.95-4.45 11.45-.3.95-.75 1.85.45-.6 1.05-1.2 3.1-3.7 5.7-7.85 9.65-15.45 12.85-38.6"
     display="inline" />
</svg>
