<svg xmlns="http://www.w3.org/2000/svg" xmlns:xlink="http://www.w3.org/1999/xlink" xml:space="preserve" id="svg1" width="821.524" height="773.507" version="1.1" viewBox="0 0 217.361 204.657">
  <defs id="defs1">
    <linearGradient id="linearGradient27">
      <stop id="stop27" offset="0" stop-color="#ff0000" stop-opacity="1"/>
      <stop id="stop28" offset="1" stop-color="#000000" stop-opacity="1"/>
    </linearGradient>
    <linearGradient id="linearGradient24">
      <stop id="stop24" offset="0" stop-color="#ff0000" stop-opacity="1"/>
      <stop id="stop25" offset="1" stop-color="#000000" stop-opacity="1"/>
    </linearGradient>
    <linearGradient xlink:href="#linearGradient24" id="linearGradient25" x1="53.251" x2="58.121" y1="78.953" y2="46.079" gradientTransform="matrix(1 0 0 1.00025 .455 2.892)" gradientUnits="userSpaceOnUse"/>
    <linearGradient xlink:href="#linearGradient27" id="linearGradient28" x1="27.503" x2="37.619" y1="71.1" y2="41.4" gradientTransform="matrix(1.06728 0 0 1 -1.303 2.772)" gradientUnits="userSpaceOnUse"/>
  </defs>
  <path id="mane1-tail-upper-outline" fill="#0c0090" fill-opacity="1" stroke-width=".087" d="m128.5 98.906.4 2.116a73.392 73.392 0 0 0-2.27 2.898l8.347 3.861s5.48-5.979 12.705-3.612c29.703 16.267-20.823 71.606 27.402 83.829l-5.884-7.513c15.27 11.831 35.434 6.374 44.359-7.04 0 0-2.804 1.11-6.888 1.716-3.147.466-7.067.499-10.973.312-3.444-.165-6.904-.836-9.823-2.252 0 0 4.963-71.786-10.132-85.336 15.594 5.939 27.2 19.865 29.57 22.865.293.372.445.576.445.576-4.348-56.11-66.703-60.13-77.257-12.42zm33.286-13.718a36.05 36.05 0 0 1 6.93.675c-1.561.303-3.254 1.03-5.091 2.239 0 0-3.544-2.12-9.203-2.076a33.577 33.577 0 0 1 7.364-.838z" display="inline" style="-inkscape-stroke:none"/>
  <path id="mane1-tail-upper-fill" fill="#00ffff" fill-opacity="1" stroke-width=".087" d="M130.102 98.82c.809-.802.897-.085 1.188.245-.7.904-1.388 1.843-2.043 2.864l4.858 4.172s5.48-5.48 13.079-3.8c33.279 13.434-13.706 67.885 22.684 82.337 0 0-7.715-10.98-7.84-14.343 0 0 1.169 2.62 5.39 6.427 15.588 14.047 34.274 8.873 42.515-1.13-17.264 5.073-33.149-3.74-33.588-6.655 0 0 9.202-75.479-.39-80.586 0 0-6.524-2.432-15.126-2.601 10.937-.992 20.532 2.512 27.828 6.904 8.456 5.69 15.062 13.676 15.062 13.676-10.298-55.242-66.8-46.83-73.617-7.51z" display="inline" style="-inkscape-stroke:none"/>
  <path id="mane1-tail-lower-outline" fill="#0000ff" fill-opacity="1" stroke-width=".087" d="M130.305 105.075s-.512 3.023 1.773.187C142.3 92.57 151.31 87.06 160.545 89.245c13.27 4.195 19.367 17.82 18.592 30.564-2.315 22.457-19.055 59.924 16.588 53.42 1.703-.204 15.138-4.602 18.75-11.452 0 0-9.498 1.933-14.995-2.45-3.264-2.602-5.873-7.627-4.471-16.24.974-6.356 8.467-22.76-.11-41.45-1.882-4.105-5.477-8.707-9.734-11.61-1.931-2.272-33.197-24.046-54.86 15.048z" display="inline" style="-inkscape-stroke:none"/>
  <path id="mane1-tail-lower-fill" fill="#3dff00" fill-opacity="1" stroke-width=".087" d="M139.878 94.502c17.88-13.74 29.655-2.091 29.655-2.091.53.528 11.388 8.565 11.3 26.532.498 7.967-6.138 25.818-5.939 38.773.358 23.46 27.789 14.594 36.683 5.916-14.724 1.202-20.499-9.586-18.26-20.108 2.48-11.652 5.8-20.569 2.843-31.785-3.633-16.194-16.907-30.709-38.05-28.157 0 0-11.186 1.233-18.232 10.92z" display="inline" style="-inkscape-stroke:none"/>
  <path id="mane2-tail-outline" fill="#0c0090" fill-opacity="1" stroke-width=".087" d="M120.854 92.83s12.883-14.7 33.68-10.493c22.319 5.866 29.73 33.666 22.543 35.72 0 0 6.663 6.92 7.455 21.628 0 0 .088 8.895-8.28 10.305 1.85 1.145 3.356 27.19-7.783 29.538 0 0-6.395 1.757-8.954-6.665 0 0-2.86 1.965-4.664 1.128 0 0-6.165-1.146-5.064-15.854 0 0-6.826 1.673-7.707-4.58-2.825-9.912 15.67-22.858 6.128-42.497 0 0-6.342-13.218-18.027-10.316" display="inline" style="-inkscape-stroke:none"/>
  <path id="mane2-tail-fill" fill="#00ffff" fill-opacity="1" stroke-width=".087" d="M147.14 83.525c-4.108-.093-6.94.625-6.994.653-8.844 1.994-16.566 9.218-17.625 9.903l3.177 5.618c19.625-6.56 32.947 16.06 25.075 34.245-.407 1.387-5.302 11.687-5.302 11.687-4.051 13.3 4.536 10.48 4.536 10.48 2.606-23.108 18.802-13.827 2.334.838-.204.217-1.666 19.953 7.002 14.267-.528-1.32-.53-6.738-.53-6.738.31-13.916 4.713-13.21 4.713-13.21 6.46.511 2.083 18.97-1.777 20.092.062 2.802 3.807 5.986 3.9 6.05 6.54 3.673 8.563-10.495 8.563-10.495 1.65-6.228-.093-16.815-.093-16.815-4.65-.21-9.224-10.013-3.11-10.145 3.413.066 5.072 8.183 5.072 8.183 7.442-.717 5.73-11.709 5.73-11.709.249-6.228-6.664-17.313-6.664-17.313-5.025 4.07-16.407-6.149-10.588-9.093 4.765-1.837 11.553 6.82 11.553 6.82 3.466-4.547-.355-13.313-4.336-19.268-2.673-3.997-5.66-6.485-5.66-6.485-6.305-5.99-13.695-7.448-18.976-7.566zm18.889 28.091a1.14 1.14 0 0 0-.692.183c-.037 1.052 2.554 7.597 8.75 6.32 0-.45-5.497-6.436-8.058-6.502zm4.28 29.919s.902 5.109 3.038 6.056c0 0-1.8-5.425-3.038-6.056zm-13.846 3.24c-3.768 3.27-3.706 8.938-3.706 8.938 5.855-6.166 3.706-8.938 3.706-8.938zm6.904 8.923c-1.025.08-2.604 5.18-1.844 15.603.088-.264 3.148-3.37 2.62-13.41-.06-1.487-.375-2.224-.776-2.193z" display="inline" opacity="1" style="mix-blend-mode:normal;-inkscape-stroke:none"/>
  <path id="mane3-tail-upper-outline" fill="#0c0090" fill-opacity="1" stroke-width=".087" d="M120.847 93.174s4.583-15.435 21.234-26.005c43.45-24.772 81.456 18.027 61.498 57.003-5.145 11.973-27.354 35.426-7.616 41.413 0 0 7.483 2.051 15.154-4.03-2.345 10.112-16.202 23.916-40.13 14.125 0 0-40.74-14.312-7.672-51.168-4.116-35.921-13.844-62.02-38.446-26.754" display="inline" style="-inkscape-stroke:none"/>
  <path id="mane6-outline" fill="#0c0090" fill-opacity="1" stroke-width=".087" d="m28.499 41.47-2.4 37.35C11.293 71.595 13.3 55.965 13.3 55.965 1.716 64.516-2.888 54.58 1.831 43.846c3.215-7.313 11.911-15.296 21.164-16.877-11.545-8.892-5.417-17.006 5.646-19.217 8.785-1.755 20.779.52 28.814 6.878-1.804-10.007 11.84-12.147 24.854 2.292 2.59-17.014 22.164-11.444 14.806 14.277l-9.871 13.044z" display="inline" style="-inkscape-stroke:none"/>
  <path id="mane6-fill" fill="#00ffff" fill-opacity="1" stroke-width=".265" d="M95.489 25.613s1.37-7.727-1.496-13.398c-3.57-7.038-9.016-3.744-9.036 5.982l-2.68 3.24C70.937 4.452 54.182 4.142 61.898 18.323c-10.112-4.962-17.84-8.444-23.88-8.906C21.358 8.14 12.29 16.79 26.75 26.112c2.493 0 7.603.311 10.844 1.496 0 0-19.257-.998-28.106 8.6-12.098 12.77-7.796 34.276 9.165 11.238 0 0-9.495 17.684 7.074 28.26l1.351-37.857 17.157-2.772 30.142 5.993z" display="inline"/>
  <path id="mane3-tail-upper-fill" fill="#00ffff" fill-opacity="1" stroke-width=".087" d="M121.515 94.954c12.123-36.836 63.94-46.889 80.974-11.558 9.395 18.782 3.545 35.337-6.301 50.344-1.31 2.9-6.17 9.047-8.695 15.688-5.416 13.025 5.724 23 21.453 15.088-10.74 20.487-38.952 11.907-44.708 5.462-19.543-13.97 2.902-46.631.833-66.223-1.546-14.64-13.2-20.589-39.641-6.09" display="inline" style="-inkscape-stroke:none"/>
  <path id="mane3-tail-lower-outline" fill="#0000ff" fill-opacity="1" stroke-width=".087" d="M187.857 181.565s-22.16-1.786-26.326-19.25c-5.118-15.156 15.456-40.775 12.01-67.811-1.697-19.163-32.33-38.705-56.745 9.429l1.367 1.604s9.528-8.717 19.87-11.565c4.459-1.228 8.238-1.72 12.202.053 15.793 7.508.243 36.608-2.926 48.844-13.894 33.713 12.444 51.055 40.548 38.696z" display="inline" style="-inkscape-stroke:none"/>
  <path id="mane3-tail-lower-fill" fill="#3dff00" fill-opacity="1" stroke-width=".087" d="M122.05 96.721c8.108-13.424 23.04-26.93 38.387-18.805 9.165 5.046 11.311 13.086 11.75 23.36-1.745 32.897-28.216 59.91.015 76.293 2.869 1.665 6.303 3.22 10.384 4.66-19.553 7.617-40.815-4.987-36.53-27.362 3.774-20.226 17.378-42.98 11.977-55.203-.45-1.145-8.152-19.082-39.952 3.704" display="inline" style="-inkscape-stroke:none"/>
  <path id="mane4-tail-outline" fill="#0c0090" fill-opacity="1" stroke-width=".087" d="M125.27 96.044s.793-19.976 11.51-34.131c21.435-27.464 57.975-21.5 73.369 2.72 11.76 18.504 10.88 47.433-15.773 78.113-3.022 3.478-7.25 10.965-8.43 14.879 22.387-8.794 21.955 31.043-4.272 30.16-11.265-.495-22.673-14.19-18.271-28.196 0 0-12.584-12.926 3.412-34.534 0 0-16.34 6.95-19.127-7.28-.904-19.163 23.85-23.067 22.429-5.525 7.943-11.69 5.083-28.18-3.07-34.849-10.635-7.766-30.966-4.928-34.682 27.144" display="inline" style="-inkscape-stroke:none"/>
  <path id="mane4-tail-fill" fill="#00ffff" fill-opacity="1" stroke-width=".087" d="M128.18 96.64c-2.307-41.821 44.486-67.99 73.726-38.04 16.882 17.294 20.334 46.06-6.786 79.38 0 0-21.517 27.239-10.934 33.324 5.11 2.218 9.378-2.115 5.948-6.079 1.157 8.103-9.204 8.33-5.004-5.494 20.854-8.308 18.91 22.755 2.717 26.332-4.05.894-10.007.766-15.481-3.368 0-.265-9.79-6.02-6.946-21.498 0 0 7.475 4.564 14.023-3.108 9.928-12.873-9.175-20.844-9.922-6.284 0 0 3.382-6.35 6.358-5.424 0 0 1.95.373 3.073 2.078.827 1.256 1.417 3.283.028 6.322 0 0-6.35 11.642-14.42 1.919-8.75-11.657.274-25.68 6.913-35.355-29.52 17.169-24.542-25.705-7.505-18.204 4.136 1.821 4.047 6.848 2.808 12.813-2.25 2.182-7.97-1.422-2.877-5.16-6.91.788-5.08 7.183.196 6.818 2.813-.195 6.772-1.623 10.54-8.367 16.429-38.723-37.944-56.48-44.856-4.84" display="inline" style="-inkscape-stroke:none"/>
  <path id="mane5-tail-outline" fill="#0c0090" fill-opacity="1" stroke-width=".087" d="M121.788 92.98c5.374-30.533 26.657-40.058 38.947-39.139 7.558.565 9.942 2.498 9.146 7.69 23.608-.66 36.546 15.524 41.278 30.388 6.38 20.046-.528 42.224-11.472 39.45-23.392 25.669-.76 43.925-9.846 50.354 0 0-7.48 5.61-13.586-11.965 0 0 1.246 8.226-3.864 9.099 0 0-8.974 2.492-8.35-18.696-7.59 7.34-13.763-8.615-4.65-20.984-7.642-6.024-2.175-9.945 2.115-17.542 9.877-17.492 4.357-31.763-7.55-35.893-7.5-2.601-16.565.25-22.82 15.714" display="inline" style="-inkscape-stroke:none"/>
  <path id="mane5-tail-fill" fill="#00ffff" fill-opacity="1" stroke-width=".087" d="M160.637 55.289a30.91 30.91 0 0 0-2.27.058c-16.568.353-27.056 17.715-27.056 17.715-6.257 8.55-7.668 21.064-7.668 21.064l5.652 5.62c16.965-32.606 35.77-7.735 35.77-7.735 7.563 10.877-.65 27.456-.65 27.456-3.46 6.832-6.554 10.667-6.87 13.287-.705 5.868 9.895 10.405 14.88-7.737-.926-2.777.88-8.55.88-8.55-.02 8.281 1.31 12.023 6.216 11 4.426-.924 5.392-5.626 2.093-21.15 10.71 28.764-7.018 22.921-8.12 20.971-3.552 13.399-12.694 12.806-12.694 12.806-11.122 16.903 2.399 30.392 5.235 9.847-3.213 23.24 5.024 30.684 7.788 25.558 1.293-2.4 1.35-9.054.963-15.213 1.287 3.06 4.352 21.41 12.964 20.198 6.46-.91-2.125-15.835-.475-27.044-.088-11.81 10.665-22.739 10.665-22.739-4.936-4.407.264-12.162.793-13.22-4.23 13.66 2.203 12.339 2.203 12.339 10.047.088 9.87-18.772 10.135-20.27 1.586-18.42-7.05-27.94-7.227-28.556-13.75-20.8-34.724-17.186-35.005-17.366-.935 3.116-10.594 4.238-10.594 4.238 8.787 1.994 8.849 10.781 8.849 10.781-2.493-10.282-15.6-11.313-15.6-11.313 17.717-.794 18.434-6.737 15.704-10.132-1.048-1.304-4.016-1.884-6.561-1.913zm29.017 23.483c7.578 8.831 6.61 13.064 5.67 14.27-3.201 4.118-8.444-1.526-8.444-1.526 11.773 7.247 6.455-7.208 2.774-12.744z" display="inline" style="-inkscape-stroke:none"/>
  <path id="mane6-tail-outline" fill="#0c0090" fill-opacity="1" d="M157.144 79.398c-6.263-.01-14.154 2.922-31.206 15.176l.047 12.721c3.722-2.37 13.268-.952 17.53 6.417.151.261.29.534.428.81.044.09.09.178.132.269.126.267.246.54.358.822.04.097.075.197.112.295.356.948.632 1.972.816 3.076l.045.258c.05.336.087.683.12 1.033.048.495.077.992.087 1.49.002.108 0 .22 0 .33 0 1.356-.113 2.71-.335 4.048-.017.106-.03.21-.05.317a30.762 30.762 0 0 1-.375 1.814c-.11.473-.23.943-.36 1.411-.033.114-.07.232-.104.347a44.13 44.13 0 0 1-1.806 4.997c-.077.18-.15.36-.231.542a56.637 56.637 0 0 1-.736 1.597c-.042.09-.079.178-.122.268.428.444.92.823 1.459 1.123l.009.005c-.495-.372-1.028-.692-1.469-1.128.042-.084.077-.166.115-.25-.272.57-.537 1.138-.843 1.727-9.672 15.283-3.956 17.979.386 17.645 1.956-.15 3.45-1.602 3.45-1.602-2.513 9.21-2.205 19.975 2.752 20.9 1.595.3 3.85.557 6.415-1.864 1.644 7.134 5.642 10.237 10.033 8.832 3.13-1.002 5.59-3.71 4.28-13.368 13.964 13.557 23.764-.179 16.283-9.21-4.796-5.79-8.774-8.12-9.448-15.717a26.35 26.35 0 0 1-.095-1.895 37.048 37.048 0 0 1 .088-3.242c.42.161.828.3 1.222.417 1.197.357 2.27.518 3.234.53a7.708 7.708 0 0 0 2.348-.324c.306-.093.6-.198.874-.325 9.883-4.598 2.68-25.997.694-28.513h.016c.515.046.994.056 1.44.034h.027c.416-.02.83-.072 1.238-.157l.023-.005c.38-.08.73-.189 1.05-.32l.02-.008c.32-.13.611-.286.877-.459l.016-.01a5.08 5.08 0 0 0 .72-.57l.006-.007c2.418-2.313 1.91-6.402 1.91-6.402a10.06 10.06 0 0 0-.13-1.217c-.007-.054-.014-.11-.024-.164a9.031 9.031 0 0 0-.715-2.23l-.071-.138a8.84 8.84 0 0 0-1.206-1.804l-.083-.099a10.093 10.093 0 0 0-.87-.867 11.62 11.62 0 0 0-.818-.664c-.05-.036-.1-.07-.15-.107-.3-.214-.607-.417-.923-.606-.39-.233-.797-.45-1.217-.656-.098-.047-.2-.088-.3-.134a19.432 19.432 0 0 0-1.013-.44c-.13-.05-.265-.098-.397-.147a24.178 24.178 0 0 0-1.003-.352c-.132-.042-.265-.082-.398-.123a27.95 27.95 0 0 0-1.442-.4 33.07 33.07 0 0 0-1.262-.286c-.064-.013-.128-.029-.192-.04-.274-.057-.55-.102-.827-.15-.7-.126-1.405-.237-2.112-.327-.25-.032-.5-.057-.75-.085a52.904 52.904 0 0 0-1.81-.17c-.261-.02-.525-.043-.784-.06h-.022c-6.325-.395-11.83.269-11.79.229 4.304-3.18 4.118-7.298 4.118-7.298s.83-5.079-6.054-5.5c-.41-.026-.822-.039-1.234-.04zm3.102 30.745c-.126.616-.14.89-.425 1.459.284-.569.3-.843.425-1.459zm-2.296 3.522c-.39.275-.604.443-1.018.675.414-.232.629-.4 1.018-.675zm-1.49.911zm10.4 25.402a10.297 10.297 0 0 1-.001 0zm3.398 3.43c.152.144.298.295.457.432.244.218.494.428.743.64-.249-.212-.5-.422-.744-.64-.158-.138-.304-.288-.456-.432z" display="inline" style="-inkscape-stroke:none"/>
  <path id="mane6-tail-outline-2" fill="#1400ec" fill-opacity="1" stroke-width=".087" d="M172.105 92.006a5.72 5.72 0 0 1-.793 1.153c-.37.396-.771.761-1.184 1.115-.34.288-.685.57-1.003.884-.272.282-.552.558-.827.838-.385.39-.763.786-1.147 1.177-.422.45-.816.925-1.157 1.442-.692.986-1.354 1.99-2.018 2.996-.902 1.332-1.813 2.66-2.86 3.886-.419.513-.856 1.02-1.206 1.583.05.208.105.415.148.625.055.263.108.527.143.794.1.769.067.87.045 1.644-.126.616-.14.89-.425 1.459a4.25 4.25 0 0 1-.383.598c-.415.567-.938 1.033-1.488 1.465-.39.275-.604.443-1.018.675a6.822 6.822 0 0 1-.472.236c-.456.211-.93.383-1.412.526-.146.04-.292.083-.44.118a8.103 8.103 0 0 1-1.725.195 56.077 56.077 0 0 1-1.88-.014 18.203 18.203 0 0 1-1.699-.102 28.347 28.347 0 0 1-1.798-.314c-.178.05-1.28-.368-1.927-.583-.878-.313-2.064-.69-2.064-.69.151.261.29.534.428.81.044.089.089.178.132.269.126.267.246.54.358.822.04.097.075.197.112.295.356.948.632 1.972.816 3.076.014.086.031.17.045.258.05.336.087.683.12 1.033a19.64 19.64 0 0 1 .087 1.489c.002.109 0 .221 0 .331a24.766 24.766 0 0 1-.335 4.048c-.017.106-.031.21-.05.317a30.764 30.764 0 0 1-.375 1.814 34.5 34.5 0 0 1-.36 1.411c-.033.114-.07.232-.104.347a44.129 44.129 0 0 1-1.806 4.997c-.077.18-.15.36-.231.542a56.628 56.628 0 0 1-.728 1.58c-.046.097-.084.189-.13.285a6.255 6.255 0 0 0 1.458 1.123c.656.382 1.373.619 2.102.817 1.087.268 2.205.35 3.32.403 1.235.049 2.47-.007 3.698-.14 1.117-.123 2.216-.358 3.3-.646 1.027-.277 2.03-.629 3.048-.937.85-.245 1.717-.478 2.607-.509.2-.007.402.005.603.008.924.057 1.841.271 2.676.678.153.075.3.162.45.243.735.436 1.418.955 2.086 1.488.377.294.742.604 1.074.947.286.332.574.663.864.991.341.358.675.722 1.02 1.075.294.3.598.589.915.863.244.218.494.428.743.64.149.124.285.267.449.37.203.1.428.108.65.115.636-.036 1.26-.187 1.88-.323l.479-.113a26.334 26.334 0 0 1-.095-1.895 28.655 28.655 0 0 1 .005-1.467c.014-.568.038-1.152.083-1.775.42.161.828.3 1.222.417 1.197.357 2.27.518 3.234.529a7.711 7.711 0 0 0 2.348-.323c.306-.093.6-.198.874-.325 9.883-4.598 2.68-25.997.694-28.513h.016c.515.046.994.056 1.44.034h.027a7.941 7.941 0 0 0 1.238-.157l.023-.005c.38-.081.729-.189 1.05-.32l.02-.008c.32-.131.611-.286.877-.459l.016-.01a5.08 5.08 0 0 0 .72-.571l.006-.006c2.418-2.313 1.91-6.403 1.91-6.403a10.055 10.055 0 0 0-.13-1.217c-.008-.054-.015-.11-.025-.163a9.031 9.031 0 0 0-.715-2.23l-.071-.139a8.84 8.84 0 0 0-1.206-1.804l-.082-.098a10.092 10.092 0 0 0-.87-.868c-.26-.231-.533-.453-.819-.664-.05-.036-.1-.07-.15-.107a13.515 13.515 0 0 0-.922-.606c-.39-.233-.797-.45-1.217-.655-.098-.047-.201-.088-.3-.134a19.433 19.433 0 0 0-1.014-.44c-.13-.05-.264-.098-.396-.147a24.18 24.18 0 0 0-1.003-.352c-.132-.042-.265-.082-.398-.123a27.95 27.95 0 0 0-1.443-.4 33.07 33.07 0 0 0-1.262-.287c-.064-.013-.127-.028-.191-.04-.274-.056-.551-.102-.828-.15-.7-.126-1.405-.236-2.112-.326-.25-.032-.499-.058-.749-.086a52.902 52.902 0 0 0-1.81-.17c-.262-.02-.526-.043-.785-.06z" display="inline" style="-inkscape-stroke:none"/>
  <path id="mane6-tail-fill-1" fill="#00ffff" fill-opacity="1" stroke-width=".087" d="M126.261 97.036c2.354-2.46 30.978-22.897 35.239-12.973 1.015 3.405-.275 6.14-10.864 11.373 25.08-6.865 38.946 1.616 37.47 10.415-.91 5.42-5.246 3.97-5.246 3.97-1.72-2.712-4.677-5.426-4.677-5.426 10.888 22.011 6.814 34.416 2.072 34.727-2.973.195-7.093-.972-1.672-14.04-4.05 9.331-12.857 20.441 1.918 34.396 10.054 12.435-1.588 24.143-17.463-.596 0 0 .331 3.043 1.985 5.887 3.649 21.77-5.261 22.011-9.393 4.829 0 0 1.455-3.969 1.257-7.078-2.026 8.153-5.384 11.883-7.842 11.57-1.891-.24-3.212-2.645-3.219-8.674-.004-3.267.827-8.116 2.33-13.082 0 0 3.554-4.44 3.647-5.142-9.371 8.72-13.563 8.31-13.59 4.381-.024-3.407 3.338-9.395 6.035-15.178 5.143-11.028 7.546-28.511-10.592-31.719" display="inline" style="-inkscape-stroke:none"/>
  <path id="mane6-tail-fill-2" fill="#00caff" fill-opacity="1" stroke-width=".087" d="M171.377 93.087s-3.166 4.055-7.069 6.7c-4.332 3.176-9.992 2.86-9.992 2.86 6.137 4.233 6.307 8.784 3.623 10.585-5.393 3.619-10.93 1.653-10.93 1.653 2.594 8.838-.78 17.484-3.85 23.79 8.453 4.914 15.208-7.705 15.208-7.705s-1.52 7.529 1.986 7.793c4.002.397 6.541-5.021 6.541-5.021-1.554 10.749 5.442 11.212 5.442 11.212-.574-7.772 3.652-13.915 6.244-19.886-5.421 13.069-1.298 14.25 1.675 14.054 4.742-.31 8.816-12.716-2.072-34.726 0 0 2.957 2.713 4.677 5.425 0 0 4.336 1.45 5.245-3.97 1.108-6.599-4.425-12.169-16.728-12.764z" display="inline" style="-inkscape-stroke:none"/>
  <path id="leg-fr-outline" fill="#000000" d="m73.853 129.881 13.513 4.75c6.883 5.85 10.659 40.627 4.423 57.514-2.17 5.88-16.662 5.35-24.982 4.445-8.32-.904-4.465-7.096-4.465-7.096 10.18-20.42 11.104-38.763 11.51-59.613z" display="inline"/>
  <path id="leg-br-outline" fill="#494949" d="M104.138 136.558c-14.3-17.095-3.961-31.491-3.961-31.491 3.935-6.127 10.452-5 10.452-5 13.45 2.39 15.53 24.57 13.044 29.696-2.487 5.127-2.08 8.626-2.08 8.626 3.515-.516 5.516 2.075 5.516 2.075 9.497 17.415 10.4 43.618 8.23 48.907-2.17 5.29-15.736 5.29-24.056 4.475-8.32-.814-4.432-6.266-4.432-6.266s5.836-8.76 5.324-25.16c-1.407-14.614-8.037-25.862-8.037-25.862z" display="inline"/>
  <path id="leg-fr-fill" fill="#ff0000" fill-opacity="1" stroke-width=".088" d="M88.95 141.925c-2.627-.55-10.155-2.779-13.527-4.341-.154 28.111-6.19 41.74-11.592 53.124 0 0-1.583 3.18 2.384 3.75 0 0 2.562.41 5.436.503 3.087.1 7.37.073 8.494-.117 7.972-11.265 9.29-52.816 8.804-52.92z" display="inline" style="-inkscape-stroke:none"/>
  <path id="leg-br-fill" fill="#b10000" fill-opacity="1" stroke-width=".084" d="M113.943 136.857c-2.245.91-3.695 1.676-6.14 2.598 7.476 14.85 7.77 29.314 3.76 42.946-.438 1.487-2.112 4.18-2.71 5.618 0 0-.363.823-.361 3.41 1.492 1.056 10.064 1.081 10.183.802 4.258-9.93 4.825-17.798 5.037-22.776.296-8.185-3.018-18.37-4.972-23.418l-2.41-5.7c-.446-1.24-1.859-3.525-1.859-3.525z" display="inline" style="-inkscape-stroke:none"/>
  <path id="leg-fl-outline" d="m100.09 134.018-12.588.872c-.408 20.85 2.768 41.816-8.558 62.502 0 0-4.56 6.015 3.76 6.92 4.227.436 9.124.422 13.19.164 2.875-.181 6.388-.716 8.896-1.871 1.51-.699 2.903-2.193 3.14-3.522 3.713-18.547.158-56.583-7.84-65.065z" style="-inkscape-stroke:none"/>
  <path id="leg-bl-outline" fill="#000000" fill-opacity="1" stroke-width=".087" d="M114.498 137.297c-26.451-13.598-11.124-42.96-11.124-42.96 13.656-6.24 22.78 1.794 22.78 1.794 12.842 11.033 10.366 27.916 7.879 33.614-2.487 5.698-2.08 9.586-2.08 9.586 3.515-.573 5.148 1.662 5.516 2.307 9.496 19.353 9.372 48.325 7.95 54.33-.861 2.332-3.07 4.2-6.766 4.717-2.766.386-5.623.581-8.85.577-2.78-.002-5.791-.231-8.113-.484-8.321-.904-4.48-6.776-4.48-6.776s6.335-9.487 5.823-27.712c-1.407-16.244-8.535-28.993-8.535-28.993z" display="inline" style="-inkscape-stroke:none"/>
  <path id="body-outline" fill="#000000" fill-opacity="1" stroke-width=".087" d="M62.326 24.616C54 24.501 47.154 26.65 47.154 26.65c-22.49 8.93-22.291 26.26-22.291 26.26-1.025 9.162.992 22.094.992 22.094 2.244 10.153 12.562 24.936 35.502 18.347-.255 1.786-3.124 21.193 2.713 31.675 0 0 8.876 23.02 41.829 15.752 0 0 3.63-1.098 5.085-1.81 2.017-.86 4.005-2.281 4.005-2.281l17.314-1.516c8.524-20.157 2.87-43.673-17.452-43.573-5.05.025-11.54 1.97-17.042 5.968-1.193.867-3.37 2.122-5.23 2.499 0 0-.624-5.253-1.253-18.184 0 0-.052-16.454.765-23.964 2.548-12.58-5.713-21.74-5.713-21.74-5.92-9.063-15.726-11.444-24.052-11.56z" display="inline" style="-inkscape-stroke:none"/>
  <path id="eye-white" fill="#ffffff" fill-opacity="1" stroke-width=".087" d="M29.037 43.62C17.972 65.407 37.217 75.526 47.6 84.663c1.29.46 3.426 1.316 4.958 1.684 1.023.245 2.048.49 3.087.654.556.086 1.122.083 1.684.093 3.226.059 6.512.067 9.354-1.683 3.528-2.17 6.488-6.078 8.139-9.823 1.17-2.653 1.998-5.507 2.993-8.231.285-.779.55-1.565.842-2.34.44-1.162 1.072-2.535 1.403-3.74.56-2.035.754-4.183.936-6.269.146-1.68.47-3.495 0-5.145-.436-1.524-1.354-2.765-1.965-4.21-.353-.834-.51-1.897-1.122-2.617-1.535-1.808-3.122-2.282-5.426-2.714-.836-.157-1.677-.31-2.526-.374-4.437-.335-9.396 1.334-13.657 2.432-.967.25-1.926.53-2.9.748-3.211.72-6.481 1.168-9.73 1.684-2.3.365-9.052 2.722-10.603.84 2.46-2.836 9.22-3.664-3.642-3.259" display="inline" style="-inkscape-stroke:none"/>
  <path id="eye-r-iris" fill="url(#linearGradient28)" fill-opacity="1" stroke-width=".088" d="M28.365 47.535c-.4-.016-1.237-.035-1.616.095-.252 1.02-.534 2.034-.75 3.065-.188.889-.5 1.815-.626 2.714-.22 1.625.405 3.307.365 4.947-.04 1.574-.008 3.15.098 4.72 0 .653.016 1.305.049 1.956.1 1.914.32 3.82.659 5.707.12.663.255 1.325.406 1.983.242 1.055.527 2.1.854 3.13.175-.008.348-.039.515-.09 1.113-.537 2.178-1.678 3.09-3.313a12.2 12.2 0 0 0 .6-1.346c.21-.56.395-1.16.556-1.793.59-2.323.858-5.088.846-7.96a45.82 45.82 0 0 0-.122-3.16 48.54 48.54 0 0 0-.57-4.692 34.334 34.334 0 0 0-.704-3.25c-.984-1.705-2.331-2.64-3.65-2.715z" display="inline" style="-inkscape-stroke:none"/>
  <path id="eye-r-pupil" fill="#000006" fill-opacity="1" stroke-width=".089" d="M27.23 52.94c-.475-.02-.956.1-1.431.353-.015.096-.033.196-.047.294a43.97 43.97 0 0 0-.4 4.9 48.528 48.528 0 0 0 .103 4.723c-.002.277 0 .553.007.83.034 1.372.134 2.741.3 4.103.15 1.244.354 2.48.608 3.707.217 1.035.358 2.062.654 3.078.103.35.328.704.444 1.058.179-.01.356-.04.527-.092 1.022-.48 2.003-1.454 2.868-2.83.244-.71.46-1.466.642-2.257.33-1.462.545-3.023.635-4.604a29.536 29.536 0 0 0 .042-2.19 27.026 27.026 0 0 0-.176-2.656 23.836 23.836 0 0 0-.225-1.504c-.09-.486-.194-.956-.311-1.406a16.044 16.044 0 0 0-.54-1.683 10.85 10.85 0 0 0-.49-1.093 8.833 8.833 0 0 0-.36-.638c-.25-.4-.518-.747-.8-1.037a4.42 4.42 0 0 0-.43-.392 3.718 3.718 0 0 0-.447-.303 2.641 2.641 0 0 0-1.172-.36z" display="inline" style="-inkscape-stroke:none"/>
  <path id="eye-r-highlight" fill="#ffffff" fill-opacity="1" stroke-width=".024" d="M29.682 67.23c.257.716.025 1.368-.52 1.458-.542.09-1.192-.416-1.45-1.13-.257-.715-.025-1.367.519-1.457a.96.96 0 0 1 .654.112c.334.193.64.584.797 1.018zm2.69-9.814c.767 2.912.194 5.51-1.28 5.805-1.475.293-3.292-1.83-4.06-4.742-.767-2.913-.194-5.512 1.28-5.806.58-.115 1.195.004 1.795.535.929.822 1.798 2.438 2.265 4.208z" display="inline"/>
  <path id="eye-r-outline" fill="#000000" fill-opacity="1" stroke-width=".089" d="m30.553 43.572-1.848.374c2.857 2.096 4.493 11.375 4.36 13.449.007 1.8.11 9.402-2.25 15.69l.574.061s2.51-4.664 2.764-16.124v-.041l.003-.068h-.001c.009-.578.087-9.515-3.602-13.34z" display="inline" style="-inkscape-stroke:none"/>
  <path id="eye-r-body-outline" fill-opacity="1" stroke-width=".087" d="M31.353 86.249c.874-.118 1.745-.37 2.57-.642a11.065 11.065 0 0 0 3.7-2.113c.514-.442.98-.912 1.41-1.403-.947-.204-1.891-.413-2.844-.61-.527-.107-1.07-.144-1.59-.28-.916-.238-1.814-.542-2.714-.842-1.164-.388-2.595-.943-3.46-1.87-.261-.28-.84-.93-1.03-1.404-.198-.495-.021-.061-.093-.561-.037-.255-.155-.494-.187-.749-1.002-7.503-3.605-25.88 1.922-32.155l.389-1.226c1.353-3.363 2.407-5.11 3.196-5.784a3.067 3.067 0 0 0-.415-.102c-7.424 8.081-7.344 16.402-7.344 16.402-1.025 9.16.992 22.094.992 22.094.787 3.56 2.566 7.672 5.498 11.244z" display="inline" style="-inkscape-stroke:none"/>
  <path id="eye-l-iris" fill="url(#linearGradient25)" fill-opacity="1" stroke-width=".083" d="M55.999 52.127c-.66-.02-1.942.2-2.585.348-4.49 3.118-7.312 8.02-8.616 13.404-2.198 9.152 2.313 16.615 10.094 16.567 1.01-.013 1.95-.11 2.93-.352 4.09-2.166 7.353-7.82 7.783-14.269.562-8.449-3.74-15.477-9.606-15.698z" display="inline"/>
  <path id="eye-l-iris-highlight-lower" fill="#ffffff" fill-opacity=".642" stroke-width=".083" d="m64.087 74.492-6.54-1.354v-.001l-.546-.174-.298.275 5.52 4.733a18.154 18.154 0 0 0 1.864-3.48z" display="inline"/>
  <path id="eye-l-iris-highlight-upper" fill="#ffffff" fill-opacity=".296" stroke-width=".083" d="M65.212 70.719c-2.474.378-8.165.932-8.436.958.084.067.207.354.307 1.36l7.004 1.454a21.06 21.06 0 0 0 1.125-3.772z" display="inline"/>
  <path id="eye-l-pupil" fill="#000006" fill-opacity="1" stroke-width=".372" d="M53.753 82.352a7.803 12.97 2.595 0 0 5.652-11.948A7.803 12.97 2.595 0 0 52.18 57.12a7.803 12.97 2.595 0 0-5.273 3.037 13.204 17.9 34.416 0 0-2.354 5.813 13.204 17.9 34.416 0 0 9.2 16.381zm0 0a7.803 12.97 2.595 0 0 5.652-11.948A7.803 12.97 2.595 0 0 52.18 57.12a7.803 12.97 2.595 0 0-5.273 3.037 13.204 17.9 34.416 0 0-2.354 5.813 13.204 17.9 34.416 0 0 9.2 16.381z" display="inline"/>
  <path id="eye-l-highlight" fill="#ffffff" fill-opacity="1" stroke-width=".038" d="M53.657 72.788c.258 1.11-.273 2.01-1.186 2.01-.913 0-1.863-.9-2.121-2.01-.26-1.11.272-2.01 1.186-2.01.358 0 .722.088 1.048.324.504.364.916 1.012 1.073 1.686zm6.77-9.03c.67 3.58-.704 6.482-3.067 6.482-2.363 0-4.82-2.901-5.49-6.481-.667-3.58.707-6.483 3.069-6.483.928 0 1.87.282 2.713 1.041 1.304 1.176 2.37 3.266 2.776 5.441z" display="inline"/>
  <path id="body-fill" fill="#ff0000" fill-opacity="1" stroke-width=".087" d="M88.22 17.128c-2.625 1.283-5.694 4.26-7.395 6.48-1.647 2.15-2.481 4.89-3.561 7.104-6.29-3.67-12.9-3.896-15.137-3.853-.51.01-.794.033-.794.033C44.135 26.23 33.7 37.905 33.7 37.905c-1.54 1.426-2.767 3.087-3.755 4.868.456.462.85.98 1.177 1.54.297.5.562 1.02.793 1.555.173.397.333.8.48 1.21.157.441.303.89.436 1.34.217.74.41 1.485.58 2.237.044.195.082.388.117.578 1.48 7.335-.505 23.02-4.596 24.601-.248.09-.51.14-.773.15 0 .002-.003.004-.008.004h-.085c3.38 11.247 13.113 24.265 41.126 14.26.106-.035.21-.062.31-.09-2.08 1.653-5.88 2.978-5.88 2.978-3.83 21.632-.26 41.983 24.079 46.765 0-.14.608-4.257 1.122-4.023 2.048 26.544.279 46.37-5.762 57.851-2.32 4.998-5.428 8.114.281 8.626 0 0 18.8 1.792 22.174-2.706 0 0 1.013-1.232 1.301-5.021.48-6.35 1.367-17.594-.416-31.567-1.093-8.582-2.703-18.23-6.571-28.483 0 0 2.05 1.72 3.44 5.292 5.816-1.415 15.967-2.257 17.535-20.172 1.556 10.27-5.275 17.013-5.157 17.226 11.94 21.463 11.387 42.758 3.037 58.658 0 0-.758 2.532 1.845 2.922.746.125 5.008.875 9.22.913 3.118.03 8.14-.184 10.922-1.079 0 0 3.204-.813 3.412-6.055.297-8.74.196-15.447-.635-22.07-1.79-14.265-6.002-27.596-8.48-28.792-1.092-.527-2.486-.546-3.818-.048-.167.758-.093 1.438 0 2.21-1.817-1.708-1.415-4.25 1.147-13.178 0 0 6.97-20.972-5.383-32.502 0 0-11.156-10.95-28.997 2.505 0 0-1.027.665-2.077 1.11-1.38.646-2.907.793-2.907.793s.188 2.69 1.742 5.261c0 0-3.512-.78-4.006-8.74 0 0-1.34-8.487-1.037-20.694-.021-5.607.503-16.242.587-17.92.158-.805.76-1.455.845-2.224 3.553-5.174 5.644-12.687 5.304-21.152 0 0-.395-10.663-6.382-17.96zm-25.395 31.73C70.599 48.81 75.47 56.7 72.972 65.75c-2.196 9.12-10.277 16.55-18.05 16.598-7.774.049-12.296-7.305-10.1-16.425 1.963-9.119 10.23-17.018 18.003-17.066Z" display="inline" style="-inkscape-stroke:none"/>
  <path id="eye-l-outline" fill="#000006" fill-opacity="1" stroke-width=".088" d="M63.274 47.992a13.643 13.643 0 0 0-1.994.137c-4.465.644-9.445 3.343-12.636 7.737-2.91 3.84-5.888 10.392-4.192 16.814a13.048 17.785 33.143 0 1 .37-6.757 13.048 17.785 33.143 0 1 18.05-16.598 13.048 17.785 33.143 0 1 10.1 16.424 13.048 17.785 33.143 0 1-1.575 4.413c1.168-2.157 2.01-4.488 2.42-6.904 1.47-8.686-3.04-15.216-10.543-15.265z" display="inline"/>
  <path id="muzzle-scrunch-outline" fill="#000000" fill-opacity="1" stroke-width=".087" d="M32.698 71.901c-.116-.02-.59-.288-.754-.423-.11-.09-.085-.497-.085-.497-.12-.011-.246.362-.246.362-2.427-.115-3.48 1.22-2.927 2.546-2.743 1.458-3.472.963-5.321 2.414-3.593 2.818 1.634 13.388 7.17 13.207-.463 3.328 19.878 11.712 38.803.46 0 0-26.96-.556-30.7-12.018-.313-.956-2.178 1.9-2.756 1.089" display="inline" style="-inkscape-stroke:none"/>
  <path id="muzzle-scrunch-fill" fill="#ff0000" fill-opacity="1" stroke-width=".087" d="M32.718 71.948s-1.418 0-1.59.109c-.17.109-1.012.343-1.183 1.153 0 0 2.726.265 3.66 1.714 0 0-1.386.685-3.255-.593-2.265 3.56-7.545 2.006-6.158 6.366 0 0 2.405 8.303 10.924 6.95 0 0-.73-2.907 1.628-4.075 0 0-.308-3.085 1.543-5.42-.044 0-.992 6.522 3.283 7.27 0 0-1.94.552-3.305-.418 0 0-2.482.74-1.741 5.046 0 0-.894-.967-.881-1.361 0 0-1.592.823-3.156.779 0 0 12.808 8.805 36.843.51.189-.066-21.958-5.435-21.767-5.503" display="inline" style="-inkscape-stroke:none"/>
  <path id="muzzle-smile-outline" fill="#000000" fill-opacity="1" stroke-width=".087" d="m63.298 92.606-6.396-7.865c-9.242-2.01-24.55-13.398-25.094-12.863-2.252 2.216-2.903 2.397-5.82 2.86 0 0-4.856.553-4.34 4.698 0 0 2.254 10.35 17.73 14.848 0 0 12.846 3.278 24.205-1.061z" display="inline" style="-inkscape-stroke:none"/>
  <path id="muzzle-smile-fill" fill="#ff0000" fill-opacity="1" stroke-width=".088" d="m71.137 89.504-22.54-8.192L32.4 69.85c-.697 2.358-1.816 5.603-4.408 6.502l-2.624 1.06c-1.15.434-1.462 1.873-1.16 2.653C28.647 92 46.509 96.656 64.682 91.758c2.32-.627 5.45-1.7 6.454-2.25z" display="inline" style="-inkscape-stroke:none"/>
  <path id="muzzle-smile-mouth" fill="#000000" fill-opacity="1" stroke-width=".087" d="M28.997 87.984c2.232-.164 6.978-1.43 6.58-6.738 0 0 1.233 3.111-.604 5.573-.161.24-2.007 2.604-5.463 2.554" display="inline" opacity="1" style="-inkscape-stroke:none"/>
  <path id="nostril" fill="#000000" fill-opacity="1" stroke-width=".087" d="M28.435 80.394c.215-.083 2.76 1.57 3.19-1.637 0 0 .54 2.246-.423 2.812 0 0-1.12.698-2.767-1.175z" display="inline" opacity="1" style="-inkscape-stroke:none"/>
  <path id="eye-r-eyelash" fill="#000006" fill-opacity="1" stroke-width=".174" d="M75.344 46.456c-.666.063-3.462 2.65-5.71 4.861-.448.442-.02.146.376.453.393.305.307.725.507.53 4.582-4.506 5.326-5.515 4.93-5.822-.024-.019-.058-.026-.103-.022zm4.762 6.29c-.946.02-4.214 1.316-6.918 2.48-.578.248-.07.128.189.556.256.428.02.79.278.68 5.905-2.542 6.963-3.214 6.706-3.642-.032-.054-.12-.076-.255-.073zm-1.343 7.028c-1.205.004-3.126.2-5.018.277-.058.003-.095.226.03.767.082.359-.135.455-.286.475.04.004.087.01.15.02.366.056 6.482-.732 6.359-1.273-.047-.203-.512-.27-1.235-.268zm-5.274 1.519c-.206-.023-.13.017 0 0z" display="inline"/>
  <path id="wing-base-fill" fill="#ff0000" fill-opacity="1" stroke-width=".087" d="m99.763 101.44-6.424.642s-8.26 8.09-5.813 12.059c0 0 .727 8.93 3.108 9.392 0 0 7.144 7.078 20.373 2.779 0 0 3.837-4.366 3.175-8.4 0 0 3.175-5.558 1.39-8.799 0 0-3.242-3.306-6.946-2.513 0 0-2.58-5.688-8.863-5.16z" display="inline" style="-inkscape-stroke:none"/>
  <path id="wing-outline" fill="#000000" fill-opacity="1" stroke-width=".087" d="M93.915 101.513c-.187.498-11.708 5.543-6.85 18.496 0 0 4.88 14.47 26.24 6.313.685-.126 17.86-8.284 19.223-25.996 0 0 1.806-14.01-33.008 1.25 0 0 8.344 1.541 7.903 5.725 0 0 12.672.143 5.935 9.523 0 0 2.466 6.608-6.21 9.867 0 0-14.245 3.505-18.605-7.9 0 0-3.7-8.838 5.372-17.278z" display="inline" style="-inkscape-stroke:none"/>
  <path id="wing-fill" fill="#ff0000" fill-opacity="1" stroke-width=".087" d="M122.702 96.404c-6.294.17-18.51 5.166-18.51 5.166 1.777 0 3.836 2.385 3.836 2.385l16.773-7.578c-.492-.026-1.448.01-2.1.029zm3.52.02-17.867 8.325.468.983c3.508-.749 6.958 2.345 6.958 2.345l15.005-8.65c-.982-2.527-4.564-3.004-4.564-3.004zm-10.102 12.208c3.507 4.115-.936 8.793-.936 8.793l.148.56 13.035-9.3c1.584-2.095 2.645-8.574 2.645-8.574zm12.03 1-12.732 9.196s-.187 3.648-2.573 5.94c0 0 11.048-5.596 15.304-15.137z" display="inline" style="-inkscape-stroke:none"/>
  <path id="eye-l-eyelash" fill="#000006" fill-opacity="1" stroke-width=".153" d="M21.677 42.932c-.17-.003-.243.06-.27.182-.102.489 4.89 2.887 5.26 3.017.068-.089.448-1.209.392-1.229h-.001c-3.505-1.369-4.873-1.964-5.381-1.97zm-1.094 5.13c-.348.007-.46.09-.456.26.01.5 5.322 1.734 5.712 1.78.046-.1.256-1.287.196-1.297-3.258-.483-4.787-.754-5.452-.743z" display="inline"/>
  <path id="mane1-upper-outline" fill="#0c0090" fill-opacity="1" stroke-width=".087" d="M87.322 18.403c-.375 0-10.293-11.404-36.577-9.767 0 .094 7.542 5.644 8.362 6.617-19.737-6.174-50.793 6.08-52.572 37.23 0 0 6.665-3.905 9.588-4.958 3.485-1.052 9.732-3.676 26.202-4.734 23.918-1.537 34.183-9.702 34.906-12.743" display="inline" style="-inkscape-stroke:none"/>
  <path id="mane1-upper-fill" fill="#00ffff" fill-opacity="1" stroke-width=".087" d="M85.055 18.547c-.231-.23-13.063-9.128-30.724-8.665 0 0 9.955 4.797 15.246 12.04 0 0-16.677-11.929-36.521-3.859 0 0-22.878 9.448-24.531 31.012 0 0 14.75-7.873 35.983-8.005.265-.197 31.965-8.912 31.965-8.912-.628-2.58 8.583-13.61 8.583-13.61z" display="inline" style="-inkscape-stroke:none"/>
  <path id="mane1-lower-outline" fill="#0000ff" fill-opacity="1" stroke-width=".087" d="M74.565 37.75c-.442.16-2.79.572-5.96 1.796-4.208 1.624-9.716 4.275-12.678 5.733-6.356 3.13-21.826 7.138-27.172 3.004 0 0 7.665-1.443 20.913-10.256 12.083-8.919 19.67-7.146 26.128-5.784" display="inline" style="-inkscape-stroke:none"/>
  <path id="mane1-lower-fill" fill="#3dff00" fill-opacity="1" stroke-width=".087" d="M75.78 32.745c-.594.066-11.627-3.845-23.004 4.49 0 0-15.412 10.252-19.314 10.715 0 0 4.498 2.976 20.836-3.176 3.133-1.098 15.924-8.51 20.488-8.111" display="inline" style="-inkscape-stroke:none"/>
  <path id="mane1-upper-side-fill" fill="#00ffff" fill-opacity="1" stroke-width=".087" d="m95.573 27.907.86 10.054 7.276 7.807s2.38-10.254-8.136-17.86z" display="inline" style="-inkscape-stroke:none"/>
  <path id="mane1-upper-side-outline" fill="#0c0090" fill-opacity="1" stroke-width=".087" d="M103.378 43.717s-.99-5.036-7.673-16.404c-.811-1.38-3.043-4.961-3.043-4.961-.33-2.117 13.89 10.782 12.766 25.73" display="inline" style="-inkscape-stroke:none"/>
  <path id="mane1-lower-side-outline" fill="#0000ff" fill-opacity="1" stroke-width=".087" d="m96.993 37.89-.064 6.456c-2.465 8.9-8.542 16.603-8.542 16.603s-3.602 9.26-18.195 18.614c0 0 3.04 1.825 7.624.422 0 0-7.57 13.811-8.26 20.111 0 0-4.556 14.968 10.037 24.79 0 0-2.712-24.79.28-27.502 0 0 1.32-11.136 15.54-24.419 8.063-4.632 11.103-17.957 10.7-21.9-.25-8.987-8.723-12.944-8.723-12.944z" display="inline" style="-inkscape-stroke:none"/>
  <path id="mane1-lower-side-fill" fill="#3dff00" fill-opacity="1" stroke-width=".087" d="M96.942 42.167s-.57-2.184.36-1.78c3.34 1.446 9.988 8.754 5.547 19.535l-5.954 11.113s-12.336 12.104-15.147 15.28c0 0-7.673 18.52-5.027 32.543 0 0-8.395-8.229-5.022-20.532.953-3.236 6.742-15.252 8.859-18.427 1.052-1.358 4.497-3.398 5.09-4.578-.807.555-8.464 4.198-11.835 3.479 0 0 15.542-10.544 16.932-20.333" display="inline" style="-inkscape-stroke:none"/>
  <path id="mane1-upper-end-side-outline" fill="#0c0090" fill-opacity="1" stroke-width=".087" d="M80.07 88.489c-8.698 14.42-1.034 25.21-1.034 25.21 9.182 10.355 21.432 4.708 21.432 4.708-4.896-1.82-10.646-6.777-9.765-5.896 12.044 4.516 15.86-7.563 15.86-7.563s-2.885-.723-4.4-1.205c-18.255-5.809-9.357-25.31-.993-36.592 0 0-16.406 13.49-21.1 21.338z" display="inline" style="-inkscape-stroke:none"/>
  <path id="mane1-upper-end-side-fill" fill="#00ffff" fill-opacity="1" stroke-width=".087" d="M94.88 74.373c-29.421 24.85-16.234 45.754.744 43.661 0 0-5.104-2.463-8.472-7.18-1.68-2.351-2.774-5.532-3.404-8.944-.19-2.052-2.725-12.252 11.133-27.537zm-3.73 6.674c-9.582 14.243-4.16 25.278-2.557 27.948 10.15 7.578 15.883-3.191 15.883-3.191-21.933-5.372-13.325-24.756-13.325-24.756Z" display="inline" style="-inkscape-stroke:none"/>
  <path id="mane2-outline" fill="#0c0090" fill-opacity="1" stroke-width=".087" d="M52.655 16.51c-5.37.063-13.66.777-20.46 4.068C23.013 25.022 3.98 37.932 8.604 48.404c0 0 2.167 4.991 10.37 2.01.526 2.073 3.428 8.69 21.297-1.607 0 0 3.687 7.055 15.55-1.81 0 0 6.353 6.54 18.622-8.158l8.595-13.14-3.24-2.119s-4.038-3.218-11.672-5.299c-4.145-1.13-9.728-1.84-15.47-1.772z" display="inline" style="-inkscape-stroke:none"/>
  <path id="mane2-fill" fill="#00ffff" fill-opacity="1" stroke-width=".087" d="M52.968 17.962c-3.741-.029-7.815.35-12.174 1.324-10.01 2.004-26.098 12.706-30.078 24.486 0 0-.66 7.707 7.883 5.065 0 0 7.518-14.25 20.785-18.32 0 0-4.762 3.09-9.133 6.85-4.288 3.687-8.183 8.026-8.636 9.885 0 0-1.76 5.352 4.436 5.134 1.588-.015 7.692-.872 13.515-5.2 1.196-18.04 24.224-19.856 2.747-.22.264.55 2.51 5.922 12.22-.992-7.567-16.046 13.857-20.724 5.542-3.634-1.024 2.104-2.223 3.19-2.223 3.19 4.482 2.562 7.455.867 16.092-8.808 0 0 9.639-10.086 5.206-10.872 0 0-9.971-7.762-26.182-7.886zm5.069 15.803a.172.172 0 0 0-.047.01c-4.051 1.817-1.74 9.975-1.74 10.129 4.989-8.239 3.265-10.929 1.787-10.139zm-9.624 1.203c-4.087 1.112-5.796 9.133-5.827 9.476 6.886-7.216 5.827-9.476 5.827-9.476z" display="inline" style="-inkscape-stroke:none"/>
  <path id="mane2-side-outline" fill="#0c0090" fill-opacity="1" stroke-width=".087" d="m95.709 48.806-4.066 8.729c-1.52 1.628-2.512 3.289-4.092 4.858-2.586 2.564-5.492 5.244-7.411 7.884-1.351 1.859-1.775 3.512-1.855 4.648 0 0-.622 4.834 5.96 2.638-1.903 2.322-4.56 6.13-6.952 8.56-11.21 11.39-7.212 15.478-7.212 15.478.643.98 1.728 1.172 2.87 1.008 2.144-.31 4.489-1.88 4.489-1.88-.258 7.732 1.238 12.77 2.432 15.546 1.897 4.413 5.79 3.143 5.79 3.143 5.504-.727 4.736-9.43 4.736-9.43-1.762-16.206 5.223-32.11 5.223-32.11 5.109-13.565.087-29.07.087-29.07z" display="inline" style="-inkscape-stroke:none"/>
  <path id="mane2-side-fill" fill="#00ffff" fill-opacity="1" stroke-width=".087" d="M94.197 50.855s-.047 7.462-3.145 10.555c0 0-10.09 9.778-10.058 12.144 0 0-.53 4.141 2.522 2.615.093-.186 3.488-1.244 3.986-7.348 0 0 1.214 1.525-.031 5.573 0 0-1.203 4.047-5.107 8.283 0 0-10.636 9.714-9.89 16.642.056.448.137 3.89 5.126-.356 0 0 1.403-9.293 7.95-14.428 1.783-1.54 6.935-3.134 4.506 1.287 0 0-3.956 7.91-9.84 12.145 0 0-.56 18.994 4.67 19.866 0 0 4.278 1.217 3.185-15.06-.344-7.238 1.924-13.52 4.672-23.627.816-3 1.842-6.044 2.318-8.994.88-5.475.447-13.882-.084-17.845-.14-1.045-.87-3.45-.78-1.454zm-6.62 33.75c-.278.016-.591.23-.943.514-1.112.9-2.5 2.973-3.596 5.068-1.072 2.044-1.811 4.295-1.983 4.98 1.858-1.746 2.993-3.288 4.02-4.536 3.45-4.191 3.115-5.712 2.86-5.916a.523.523 0 0 0-.358-.11z" display="inline" style="-inkscape-stroke:none"/>
  <path id="mane3-upper-outline" fill="#0c0090" fill-opacity="1" stroke-width=".087" d="M86.46 16.556c-9.578-6.155-22.018-4.714-31.492-6.37C48.778 9.107 43.478 6.705 42.382 0c0 0-2.15 9.014 2.167 14.651 0 0-30.87-2.074-38.897 32.732.44-.265 15.678-22.108 42.32-23.34 0 0 18.198-1.08 27.46 10.273 0 0 4.82-13.489 11.03-17.76z" display="inline" style="-inkscape-stroke:none"/>
  <path id="mane3-upper-fill" fill="#00ffff" fill-opacity="1" stroke-width=".087" d="M8.874 45.842c-.331-9.334 10.52-31.008 38.868-30.355C44.187 11.697 44 7.628 44 7.628c9.087 7.23 26.72 2.467 41.066 10.056l-8.28 16.932s-12.946-8.793-28.533-8.645c-11.215.105-21.216 5.526-30.773 11.545" display="inline" style="-inkscape-stroke:none"/>
  <path id="mane3-lower-outline" fill="#0000ff" fill-opacity="1" stroke-width=".087" d="M4.752 61.322c.56-.312 12.643-14.262 43.346-24.538 0 0-8.337 8.685-8.773 15.784 0 0 18.9-13.04 35.187-12.907l.84-5.41s-6.64-11.054-27.6-10.263c-16.14.61-35.627 10.557-42.097 23.372" display="inline" style="-inkscape-stroke:none"/>
  <path id="mane3-lower-fill" fill="#3dff00" fill-opacity="1" stroke-width=".087" d="M6.805 57.54c.576-3.21.53-9.713 2.216-12.625 2.65-3.79 13.006-15 30.157-18.43 0 0 22.783-6.303 35.946 9.704l-.346 2.367c-10.368.278-19.72 3.077-32.055 9.956-.166.1 1.554-7.21 10.12-14.09 0 0-3.85-.5-15.048 4.304-10.64 4.561-24.673 12.237-30.99 18.814z" display="inline" style="-inkscape-stroke:none"/>
  <path id="mane3-side-upper-outline" fill="#0c0090" fill-opacity="1" stroke-width=".087" d="M92.315 20.21s14.22 7.857 15.903 30.215c.639 23.85-10.615 36.916-13.137 43.37-1.945 4.98-1.13 17.008 9.49 30.576 0 0-6.347-2.164-11.351-6.56 0 0-17.094-11.918-5.056-35.73 0 0 13.02-20.052 10.506-28.585" display="inline" style="-inkscape-stroke:none"/>
  <path id="mane3-side-upper-fill" fill="#00ffff" fill-opacity="1" stroke-width=".087" d="M94.283 23.277s12.9 11.066 12.57 29.322c.527 5.646-1.002 14.173-3.86 22.294-2.11 5.997-6.767 13.214-8.84 17.096 0 0-6.286 10.365 7.57 30.771-.396-.066-11.045-1.389-13.426-6.548-.463-.926-13.23-20.24-1.72-34.99 0 0 12.038-15.744 9.856-29.238" display="inline" style="-inkscape-stroke:none"/>
  <path id="mane3-side-lower-outline" fill="#0000ff" fill-opacity="1" stroke-width=".087" d="M96.338 42.568c22.434 28.716-41.741 51.815 8.232 81.8-28.263 2.252-36.116-30.671-21.763-46.321-.596 0-10.385-1.39-10.385-1.39 5.16-3.108 15.875-7.937 16.8-16.536" display="inline" style="-inkscape-stroke:none"/>
  <path id="mane3-side-lower-fill" fill="#3dff00" fill-opacity="1" stroke-width=".087" d="M96.763 45.9c13.524 23.523-24.37 39.176-9.876 65.238 2.182 3.174 7.897 9.682 12.912 11.69-.468-.187-11.04 1.528-19.831-13.564-6.477-12.385 1.23-27.322 5.642-32.43.022-.026-8.381-.867-8.381-.867.443-.402 17.053-7.522 14.787-28.319-.151-1.383 3.86-4.74 3.86-4.74" display="inline" style="-inkscape-stroke:none"/>
  <path id="mane4-outline" fill="#0c0090" fill-opacity="1" stroke-width=".087" d="M42.73 39.572c-1.078 5.784-5.972 10.247-12.11 11.996-9.013 2.568-20.383-.338-23.623-10.406C.794 22.008 29.915 4.39 52.834 9.451c0 0 16.09 3.274 27.876 13.002.374.375-.187 17.4-1.59 16.464-1.403-.935-31.525-2.9-36.39.655z" display="inline" opacity="1" style="-inkscape-stroke:none"/>
  <path id="mane4-fill" fill="#00ffff" fill-opacity="1" stroke-width=".087" d="M80.754 25.334S62.762 9.062 41 10.253c-11.106.937-18.678 5.325-24.05 9.61C5.159 29.274 5.702 42.49 15.16 47.694c2.914 1.604 6.76 2.954 11.244 2.55 15.103-1.362 18.215-14.673 8.555-17.691-3.51-1.09-7.731-.523-8.906 1.78-.838 1.641.548 3.678-.673 3.697 0 0-1.86.203-.796-4.023 2.224-5.888 15.316-5.428 17.768 4.295 2.75-1.694 11.23-3.812 32.372-1.161" display="inline" opacity="1" style="-inkscape-stroke:none"/>
  <path id="mane4-side-outline" fill="#0c0090" fill-opacity="1" stroke-width=".087" d="M97.454 40.18c13.958 19.209-5.666 42.895-.537 55.425 7.919-9.17 17.63-.504 16.002 7.904-1.616 8.355-13.707 18.217-25.287 9.121 0 0-5.612-4.677-6.267-11.132 0 0-7.164 1.55-9.73-4.864 0 0-2.772-7.093 3.495-15.138 6.092-7.847 12.6-10.42 14.14-21.718" display="inline" style="-inkscape-stroke:none"/>
  <path id="mane4-side-fill" fill="#00ffff" fill-opacity="1" stroke-width=".087" d="M96.695 42.796c10.138 19.42-2.76 31.26-2.56 47.679.635 13.212 3.648 14.407 7.043 13.855 3.394-.552 5.824-4.863.775-7.096 2.518 3.835.635 5.85-1.25 5.429-1.894-.424-3.697-3.158-1.892-5.859 8.105-10.779 19.042 8.48 4.256 15.85-14.364 5.918-19.55-9.94-18.943-11.95 8.482-4.085 6.164-12.138 2.982-14.014-2.492-1.47-6.662-.252-9.202 4.706 12.326-13.598 13.593 12.332.093 8.512 0 0-7.343-2.058-3.087-13.938 0 0 2.526-5.566 5.987-8.325 6.059-6.137 11.147-11.833 9.588-20.253" display="inline" style="-inkscape-stroke:none"/>
  <path id="mane5-side-outline" fill="#0c0090" fill-opacity="1" stroke-width=".087" d="M89.36 59.93c-2.242 7.197-11.142 20.288-14.79 32.35-4.852 16.053 4.995 17.655 8.09 12.246-2.508 19.836 10.676 21.449 10.049 12.426.96 2.408 3.994 6.07 6.574 6.379 5.29.633 9.376-9.998-.54-22.595 10.88 1.296 5.233-11.362 3.043-17.274-4.237-18.45 1.59-28.105-5.552-37.721" display="inline" style="-inkscape-stroke:none"/>
  <path id="mane5-side-fill" fill="#00ffff" fill-opacity="1" stroke-width=".087" d="M95.427 47.487c5.826 9.258.653 24.63 4.487 35.585 1.37 5.235 5.83 13.56 2.35 15.441 0 0-5.138 3.855-8.067-11.631 0 0-1.17 7.376 4.096 15.945 5.642 9.116 5.375 16.207 3.103 18.106-2.375 1.984-6.702-1.88-10.864-14.91.568 4.93 1.346 13.494-.723 13.998-2.5.61-8.265-1.848-4.92-28.337-2.135 17.23-16.174 21.519-5.042-7.989 0 0 12.313-24.745 11.815-26.179l-.785-4.42z" display="inline" style="-inkscape-stroke:none"/>
  <path id="mane5-outline" fill="#0c0090" fill-opacity="1" stroke-width=".087" d="M80.062 25.382C44.109-5.402.182 10.921 24.38 21.893c-13.744 3.633-15.488 30.99-5.398 30.567 5.78-.243 7.137-3.989 7.13-13.951 0 0 5.245 16.931 15.256 17.415 0 0 10.094 1.01 4.19-12.297 0 0 9.165 7.227 17.097 2.203.353 0 11.546 8.99 19.213 4.671 0 0 9.695-4.318-5.993-18.948" display="inline" style="-inkscape-stroke:none"/>
  <path id="mane5-fill" fill="#00ffff" fill-opacity="1" stroke-width=".087" d="M78.872 26.704C43.006-2.995 2.419 12.405 26.962 20.447c0 0 14.013-2.203 15.599-1.146-11.145 1.318-22.87 2.338-26.323 14.157-3.29 12.32-.406 16.712 1.982 16.966 5.714.607 5.816-4.099 7.45-16.203 5.155 15.686 13.739 22.444 18.217 19.501 2.417-1.589 2.846-3.86-.265-10.178-1.433-2.913-3.544-4.936-6.783-9.455 0 0 17.332 16.39 24.25 10.22 0 0-5.422-4.425-8.164-11.903 0 0 13.96 20.192 27.358 16.64 0 0 9.036-1.683-8.413-20.69 0 0 4.425 3.053 4.674 3.8" display="inline" style="-inkscape-stroke:none"/>
  <path id="mane6-front-outline" fill="#0c0090" fill-opacity="1" stroke-width=".087" d="M42.45 33.395 24.317 39.77l-.246-.01c.019.02.039.053.06.085l-.016.006h.02c.914 1.455 3.203 15.036 14.643 11.75 0 0 4.362-1.495 4.986-5.733 7.32 7.76 18.807 9.997 32.255-3.772h.013l-.01-.005c.112-.114.223-.22.334-.336l-1.155-.044z" display="inline" style="-inkscape-stroke:none"/>
  <path id="mane6-front-fill" fill="#00ffff" fill-opacity="1" stroke-width=".265" d="m81.845 21.497-36.215.265s-16.074 12.7-13.89 12.634c.293-.01 1.362.123 2.849.332l-11.146 2.876c1.464 7.016 21.548 26.13 17.043-1.04 10.396 18.398 20.423 18.02 33.817 4.64l.034.005.037-.076c.111-.112.222-.217.334-.33l-.154-.043Z" display="inline"/>
  <path id="mane6-side-outline-1" fill="#0c0090" fill-opacity="1" d="m95.16 50.719-5.732 9.778c-4.265 21.11-15.797 23.59-16.473 30.056 0 0-1.349 5.972 4.335 6.839-10.665 14.745 6.54 29.68 14.636 6.724.485 3.826 8.06 6.462 12.158-3.404 4.797-25.325.958-34.548-4.481-44.034a49.347 49.347 0 0 0-4.443-5.96z" display="inline" style="-inkscape-stroke:none"/>
  <path id="mane6-side-outline-2" fill="#1400ec" fill-opacity="1" stroke-width=".087" d="M98.177 56.158c-.589.017-1.203.413-1.612 1.559l4.023 13.19s3.051 3.32 5.325 3.537c-1.21-9.483-3.667-13.005-6.326-17.792a2.785 2.785 0 0 0-1.41-.494Z" display="inline" style="-inkscape-stroke:none"/>
  <path id="mane6-side-fill-type-1" fill="#00ffff" fill-opacity="1" d="M98.685 67.3s-8.378 7.22-8.65 7.357c-.053.026-.206.572-.393 1.302-.568.322-1.931.966-3.63.863-3.29 6.247-15.145 13.114-8.694 18.086.51.392.895.453 1.58.388 0 0 1.89-3.337 8.152-8.508-.643 1.188-2.18 4.369-6.28 9.12-8.703 10.446-2.09 20.067 2.243 17.445 7-4.236 3.826-13.265 15.877-22.212 0 0-2.725 4.019-4.905 8.31 0 0 .152 6.75 3.474 6.335 2.935-1.045 4.228-5.02 5.142-10.005 1.606-8.76 1.259-20.343 1.006-22.49z" display="inline" style="-inkscape-stroke:none"/>
  <path id="mane6-side-fill-type-3" fill="#00caff" fill-opacity="1" stroke-width=".087" d="M85.653 77.453c.315-.681 6.902-10.494 6.152-21.12l1.772-3.815s6.283 5.923 10.03 20.773l-2.764-2.15s.96 12.565-4.83 14.87c0 0-7.603 3.425-6.206-9.965" display="inline" style="-inkscape-stroke:none"/>
  <path id="ear-fill" fill="#ff0000" fill-opacity="1" stroke-width=".087" d="M91.095 57.355c3.554-5.175 5.645-12.688 5.305-21.153 0 0-.395-10.663-6.382-17.96l-1.766-1.755c-2.626 1.284-5.696 4.26-7.397 6.48-1.647 2.15-2.48 4.89-3.56 7.105l-3.71 14.733c3.526 1.74 11.125 13.71 11.54 14.885z" display="inline" style="-inkscape-stroke:none"/>
  <path id="ear-outline" fill="#000000" fill-opacity="1" stroke-width=".087" d="M88.023 15.505c-.197.005-.325.071-.53.2-9.361 6.077-13.756 18.287-13.887 29.156.904-3.182 4.703-16.727 7.759-20.717 1.7-2.22 3.423-4.46 5.675-6.116l.756-.503c.242-.134.335-.096.498.018.235.144 1.356 1.479 1.356 1.479 5.986 7.296 6.033 17.446 6.033 17.446.444 11.005-3.668 20.18-8.706 25.05l.018.036c11.813-6.776 10.559-26.61 10.559-26.61-1.356-14.546-8.747-19.379-9.306-19.426a1.42 1.42 0 0 0-.225-.013z" display="inline" style="-inkscape-stroke:none"/>
  <path id="ear-inner" fill="#000000" fill-opacity="1" stroke-width=".087" d="M89.273 29.206c1.158 5.953 1.409 14.377-3.973 20.657 0 0 2.284-4.57 3.427-11.074 0 0 .43-1.934.546-9.583z" display="inline" style="-inkscape-stroke:none"/>
  <path id="horn-fill" fill="#ff0000" fill-opacity="1" stroke-width=".087" d="m35.357 37.5-10.4-17.95-.888-4.536 1.918-.655s5.753 3.274 5.94 3.414c.187.14 8.185 7.297 8.185 7.297l6.376 6.324z" display="inline" style="-inkscape-stroke:none"/>
  <path id="horn-outline" fill="#000000" fill-opacity="1" stroke-width=".087" d="M25.285 13.329c-5.96.225.86 12.577 9.24 25.071 3.214-2.614 12.436-6.976 12.97-7.251-4.153-4.407-16.845-18.035-22.21-17.82Zm.26 1.942c1.3-.133 3.82 1.62 4.958 2.472 1.21 3.85-1.452 5.534-2.403 5.852-1.187-2.3-2.231-4.426-2.856-5.91 0 0-.863-2.282.3-2.413zm5.778 3.105c1.575 1.243 3.586 3 6.157 5.464-.17 5.677-3.162 8.023-4.533 8.687a261.281 261.281 0 0 1-4.601-8.462c3.185-1.04 3.189-4.15 2.977-5.69zm6.75 6.033c2.098 2.03 4.93 4.193 7.814 7.238l-10.29 5.613c-.27-.204-.898-1.685-2.315-4.151 3.92-2.13 4.657-6.708 4.79-8.698z" display="inline" style="-inkscape-stroke:none"/>
  <path id="horn-patch-fill" fill="#00ffff" fill-opacity="1" stroke-width=".087" d="M31.345 41.105c.628.065 4.465 1.488 12.37-2.481 7.904-3.97 7.54-8.203 7.54-8.203s-8.004 2.349-9.856 3.539c-2.314.165-10.054 7.144-10.054 7.144z" display="inline" style="-inkscape-stroke:none"/>
  <path id="horn-patch-outline" fill="#0c0090" fill-opacity="1" stroke-width=".087" d="M51.343 30.407C38.76 31.904 31.37 40.977 31.325 41.165c0 0 3.067-2.902 9.635-6.361 6.74-3.55 10.383-4.397 10.383-4.397z" display="inline" opacity="1" style="-inkscape-stroke:none"/>
  <path id="mane4-horn-patch-fill" fill="#00ffff" fill-opacity="1" d="m48.94 36.392 5.925-16.009-17.537 12.161s-.99-1.533-9.845-1.533c-14.888 3.248-19.236 19.92-1.08 19.232 15.103-1.361 18.214-14.672 8.555-17.69-3.51-1.09-7.731-.523-8.906 1.78-.838 1.641.548 3.678-.673 3.697 0 0-1.86.203-.796-4.023 2.224-5.888 15.316-5.428 17.768 4.295 1.108-.682 3.17-1.428 6.59-1.909z" display="inline" opacity="1" style="-inkscape-stroke:none"/>
  <path id="mane4-horn-patch-outline" fill="#0c0090" fill-opacity="1" d="M48.854 36.406c-3.366.481-5.405 1.219-6.503 1.895-2.382-9.84-15.614-10.3-17.768-4.295-1.064 4.226.796 4.023.796 4.023 1.22-.019-.165-2.056.673-3.697 1.175-2.303 5.397-2.87 8.906-1.78 9.66 3.018 6.548 16.329-8.555 17.69-4.484.405-8.33-.945-11.244-2.549a14.73 14.73 0 0 1-1.22-.758c.01.038.017.08.027.118.254.952.544 2.162.988 3.305 4.71 2.36 10.565 2.663 15.666 1.21 6.138-1.75 11.032-6.212 12.11-11.996.993-.724 3.065-1.21 5.698-1.532.075-.489.242-1.049.426-1.634z" display="inline" style="-inkscape-stroke:none"/>
  <path id="mane5-outline-loose" fill="#0c0090" fill-opacity="1" stroke-width=".087" d="M52.738 32.484C58.39 46.935 75.022 54.85 81.868 50.5c0 0 11.705-6.297-9.966-22.111L65.89 33.35Z" display="inline" style="-inkscape-stroke:none"/>
  <path id="mane5-fill-loose" fill="#00ffff" fill-opacity="1" stroke-width=".087" d="m53.922 31.752-.997.654s13.96 20.192 27.358 16.64c7.46-2.095-5.16-17.937-9.97-22.124-5.56 1.106-10.96 3.096-16.391 4.83z" display="inline" style="-inkscape-stroke:none"/>
</svg>
