<?xml version="1.0" encoding="UTF-8" standalone="no"?>
<svg
   width="450"
   height="450"
   viewBox="0 0 935 932"
   version="1.1"
   id="svg65"
   sodipodi:docname="real.svg"
   inkscape:version="1.3.2 (091e20e, 2023-11-25, custom)"
   xmlns:inkscape="http://www.inkscape.org/namespaces/inkscape"
   xmlns:sodipodi="http://sodipodi.sourceforge.net/DTD/sodipodi-0.dtd"
   xmlns:xlink="http://www.w3.org/1999/xlink"
   xmlns="http://www.w3.org/2000/svg"
   xmlns:svg="http://www.w3.org/2000/svg">
  <sodipodi:namedview
     id="namedview65"
     pagecolor="#ffffff"
     bordercolor="#000000"
     borderopacity="0.25"
     inkscape:showpageshadow="2"
     inkscape:pageopacity="0.0"
     inkscape:pagecheckerboard="0"
     inkscape:deskcolor="#d1d1d1"
     inkscape:zoom="1.3089332"
     inkscape:cx="64.938378"
     inkscape:cy="173.80566"
     inkscape:window-width="839"
     inkscape:window-height="857"
     inkscape:window-x="664"
     inkscape:window-y="144"
     inkscape:window-maximized="0"
     inkscape:current-layer="svg65" />
  <defs
     id="defs4">
    <linearGradient
       id="b">
      <stop
         offset="0"
         stop-color="red"
         id="stop1" />
      <stop
         offset="1"
         id="stop2" />
    </linearGradient>
    <linearGradient
       id="a">
      <stop
         offset="0"
         stop-color="red"
         id="stop3" />
      <stop
         offset="1"
         id="stop4" />
    </linearGradient>
    <linearGradient
       xlink:href="#a"
       id="d"
       x1="204.706"
       x2="219.81"
       y1="377.276"
       y2="119.205"
       gradientUnits="userSpaceOnUse" />
    <linearGradient
       xlink:href="#b"
       id="c"
       x1="107.588"
       x2="104.124"
       y1="340.766"
       y2="120.022"
       gradientUnits="userSpaceOnUse" />
  </defs>
  <path
     fill="#ff0000"
     d="M805.45 292.9c-31.867-11.533-65.467-14.9-100.8-10.1-35.333 4.8-66.833 16.95-94.5 36.45-26.767 18.8-49.033 42.483-66.8 71.05a257.068 257.068 0 0 0-17.45 33.1 247.663 247.663 0 0 0-13.8 40.3 232.798 232.798 0 0 0-3.95 17.75v.45c-.1.333-.05.65.15.95.1.3.35.55.75.75.2.1.567.2 1.1.3.2 0 .5.05.9.15.4-.1.917-.15 1.55-.15h.3c.2-.1 1.417-.15 3.65-.15 4.6-17.367 8.533-29.767 11.8-37.2 7.967-24.733 24.417-44.807 39.317-66.04 22.467-31.967 48.143-53.96 81.243-69.993 38.3-18.567 75.637-23.618 119.437-14.751 45.234 9.2 77.86 30.098 102.493 63.698 21.533 29.5 28.314 63.794 31.78 106.894 2.767 36.966-3.886 73.953-27.986 118.786-3.467 6.634-12.416 19.743-27.649 43.743-.3.3-4.965 1.369-5.165 1.802-12.266 19.3-17.99 36.286-23.19 49.353-11.833 30.033-8.831 62.533 8.002 77.833 8.5 7.767 24.163 10.711 39.163 12.045 12.367 1 26.538-6.003 39.705-9.37 2.533-.6-5.653 3.901-2.887 2.868-1 1.933 1.295 1.124.262 3.19-10.334 16.634-21.745 20.306-37.445 27.672-15.733 7.334-30.448 12.592-55.381 10.958-.9-.1-2.218-.902-3.151-1.002-11.002-4.01-31.74-2.017-40.04-2.95l9.283 6.317c7.966 4.466 17.1 8.814 27.367 9.666-.927 1.093-2.837 1.611-2.4.586 9.8.7 21.975-.005 30.842-.605 14.1-1.033 27.067-3.633 38.9-7.8 18.9-6.667 34.533-19.283 46.9-37.85 3.667-5.533 7.6-12.433 11.8-20.7.9-1.833 1.817-3.717 2.75-5.65a702.1 702.1 0 0 1 3.2-6.6c-6.633 4.4-12.45 7.767-17.45 10.1-.6.333-1.167.6-1.7.8-21.533 9.9-42.517 10.817-62.95 2.75-13.967-5.533-21.717-16.417-23.25-32.65-1.133-12.567 1.367-26.55 7.5-41.95 2.533-6.733 11-21.7 25.4-44.9.433-.5.8-1.067 1.1-1.7 12.867-20.4 23.383-38.467 31.55-54.2 19.7-37.9 28.933-75.067 27.7-111.5-1.3-37.9-11.717-72.417-31.25-103.55-20-32.2-48.9-55.183-86.7-68.95"
     id="path4" />
  <path
     fill="#ff00f1"
     d="M873.95 355.25c-24.633-33.6-59.567-55-104.8-64.2-43.8-8.867-84.85-4.017-123.15 14.55-33.1 16.033-60.883 40.033-83.35 72-14.9 21.233-26.333 44.217-34.3 68.95-3.267 7.433-7.2 19.833-11.8 37.2l.75.15-1.5.8 5.35-.95a81.99 81.99 0 0 1 2.6-4.45c.733-1.2 1.45-2.417 2.15-3.65 16.767-27.467 34.993-47.326 49.06-63.992 22.566-26.934 43.758-45.832 68.591-57.898 25.333-12.367 48.76-12.932 74.693-2.699 25.633 10 43.514 25.86 55.247 51.993 11.533 25.533 14.7 54.912 9.7 90.546-3.067 21.766-14.295 49.59-26.862 88.89l-1.706 1.354c-.2.334-1.638 15.487-11.538 43.853-.6 1.434-1 2.967-1.4 4.4-5.832 16.667-8.778 31.269-11.445 43.002-8.766 37.567-6.115 71.01 7.351 94.71 6.834 12.266 14.613 22.984 25.746 31.75 2.467 1.934 8.846 1.074 11.513 2.841.3.2.65.45 1.05.75 1.133.1 2.3.25 3.5.45 8.3.933 17.7 1.85 28.2 2.75.933.1 1.85.2 2.75.3 24.933 1.633 45.267-1.217 61-8.55 15.7-7.367 28.717-19.367 39.05-36a491.604 491.604 0 0 1 3.05-6c-2.767 1.033-5.417 1.85-7.95 2.45-13.167 3.367-25.933 4.55-38.3 3.55-15-1.333-26.75-5.883-35.25-13.65-16.833-15.3-19.333-37.967-7.5-68 5.2-13.067 13.933-29.25 26.2-48.55.2-.433.45-.8.75-1.1 15.233-24 24.583-39.317 28.05-45.95 24.1-44.833 34.767-85.733 32-122.7-3.467-43.1-15.967-79.4-37.5-108.9"
     id="path5" />
  <path
     fill="#0000ff"
     d="M786 493.7c5-35.633 1.733-66.217-9.8-91.75-11.733-26.133-30.417-44.2-56.05-54.2-25.933-10.233-51.567-9.167-76.9 3.2-24.833 12.067-48.533 31.567-71.1 58.5-14.067 16.667-29.483 38.733-46.25 66.2-.7 1.233-1.417 2.45-2.15 3.65a81.99 81.99 0 0 0-2.6 4.45l-5.35.95 1.5-.8-.75-.15c-2.233 0-3.45.05-3.65.15h-.3c-.633 0-1.15.05-1.55.15-.4-.1-.7-.15-.9-.15-.533-.1-.9-.2-1.1-.3l3.7 4c10 7.033 16.933 8.35 20.8 3.95 3.8-4.367 18.517-15.9 44.15-34.6 25.533-18.7 52.583-27.183 81.15-25.45 33.1 2.067 49.45 21.583 49.05 58.55-.2 20.433-6.633 49.583-19.3 87.45-4.2 12.767-10.433 31.2-18.7 55.3a622.424 622.424 0 0 0-4 11.35c-8.567 26.233-14.483 48.9-17.75 68-3.067 17.767-2.3 35.283 2.3 52.55 4.6 17.667 12.667 33.183 24.2 46.55 19.5 22.9 47.483 35.817 83.95 38.75 31.233 2.567 58.75-2.583 82.55-15.45h.15c.633-.4 1.3-.8 2-1.2l5.8-3.55c.233-.2.45-.35.65-.45.1-.1 1.391-.928 1.491-.928l-1.791-.172c-4.1-.5-8.033-1.1-11.8-1.8a1615.694 1615.694 0 0 1-6.75-1.25 203.306 203.306 0 0 1-16.4-4.3 337.082 337.082 0 0 1-6.9-2.15c-1.309-.457-4.22-1.48-4.092-1.516-8.5-2.267-16.591-5.917-24.558-10.384-1-.633-2.017-1.2-3.05-1.7-.4-.3-.75-.55-1.05-.75a119.169 119.169 0 0 1-7.7-5.55c-11.133-8.767-20.117-19.283-26.95-31.55-13.467-23.7-15.817-54.333-7.05-91.9 2.667-11.733 6.917-25.933 12.75-42.6.4-1.433.9-2.867 1.5-4.3 9.9-28.367 14.95-42.717 15.15-43.05v-.15c12.567-39.3 20.383-69.833 23.45-91.6m-256.9-7.95c-.3 0-.75-.3-1.35-.9l.15-.15 1.2 1.05"
     id="path6" />
  <path
     fill="#3dff00"
     d="M708.35 352.15q-32.15-7.5-49.5-.9-45.8 17.45-76.9 54.25-23.25 27.25-54.05 79.2l1.2 1.05q15.05-17.75 37.25-32.8 39.2-26.5 79.35-30 19.3-1.7 35.7 4 19 6.4 28.3 21.1 17.35 27.15 7.05 74.3-4.25 19.75-13.6 48.1-5.2 15.95-15.8 47.5-.3 1.05-5.05 14.85-2.75 7.95-6.9 20.1-7.35 21.6-11 36.15-10.6 42.4-2 73.35 7.5 26.65 25.4 45.95 18.85 20.1 44.75 27.3 29.55 8.1 60.2 4.7 18.7-2.1 33.55-8.25-27.25-5.35-49.5-17.6h-.15q-4.25-2.3-15.45-11.5h.15q-1.4-.9-2.6-1.85-28.8-22.05-36.15-53.6-7.95-33.85 7.35-85.8 5.05-15.45 9.65-28.95 13.65-41.2 21.15-65.1 17.3-56.35 18.35-97.25 1.7-57.45-27.25-90.4-19.15-22.05-43.5-27.9"
     id="path7" />
  <path
     fill="#b10000"
     d="M314.95 606c-.467-.1-.867-.117-1.2-.05 6.3 28.933 4.42 61.1.886 96.5-.566 5.5.576 11.048-.19 16.715l-.828-.086c-1.533 10.767-3.537 21.562-5.87 32.529-6.038 17.458-8.868 35.417-14.735 53.45-2.633 8.067-5.182 14.322-8.216 22.455l-1.442 4.394c-.6 1.533-1.058 2.75-1.658 4.216-1.633 4-4.101 8.067-5.701 11.634-2.167 4.633-3.307 8.048-5.407 11.948-4.9 9-8.51 13.875-9.41 15.475-1 1.733-1.525 7.99-.725 10.823 1.767 1.966 6.42 5.354 9.42 5.62 6.434.5 14.195.116 20.161-.017 4.567-.267 7.082.217 9.249.317 5.9-.533 12.018-1.1 16.651-1.134 10.167-.766 15.881-2.151 19.981-2.451 5.734-.8 12.45-4.305 19.584-4.838 2.833-.1 5.567-1.3 8.2-3.6 2.567-2.333 4.65-5.9 6.25-10.7 2.433-7.267 4.083-13.733 4.95-19.4l.6.05c.2-1.533.4-3.05.6-4.55.167-1.3.333-2.55.5-3.75.867-6.8 1.633-13.517 2.3-20.15 2.333-23.2 3.45-45.383 3.35-66.55a501.747 501.747 0 0 0-.55-21.45 450.79 450.79 0 0 0-.35-6.7 3.09 3.09 0 0 1 .05-.95l.05-.15a3.077 3.077 0 0 1 .25-.95c-.1-7.333-.35-14.6-.75-21.8-1.9-35.233-7.467-68.7-16.7-100.4v-.4c.233-.333.583-.583 1.05-.75v-.15c-.467.1-.867.217-1.2.35a32 32 0 0 0-.45-1.35c0 .5-.033.983-.1 1.45-16 4-32.7 4.883-50.1 2.65.5.7 1 1.283 1.5 1.75"
     id="path8" />
  <path
     fill="#800000"
     d="M520.05 475.75c-6.833-9.933-13.717-17.267-20.65-22L432 547v4.6c.333 13.733 3.567 27.317 9.7 40.75a107.233 107.233 0 0 0 4.25 8.55c3.767 8.433 7.75 16.1 11.95 23l.7 1.5.8 1.25c.1.167.2.4.3.7.1.267.25.55.45.85.1.167.2.383.3.65l.15.3c4.9 9.667 7.93 21.518 13.063 34.418 0 .166-1.51 1.96.718 1.267 3.5 8.9 6.015 15.34 9.249 20.74.5 1.3.515 3.352 1.182 4.452 1.133 4.933 1.691 10.451 2.524 15.418 4.867 28.7 4.625 55.645-.442 86.512-2 12.266-3.733 20.206-5.2 25.806-1.5 5.6-2.583 7.782-2.683 8.249-.134.433.711 4.82-1.722 9.753-1.167 2.366-4.887 1.795-6.054 3.962-5.233 9.666-6.898 17.228-7.831 18.994-1.033 1.8-.866 7.138-.066 10.338 1.833 2.2 5.326 6.48 8.493 6.88 6.767.8 14.844 1.66 21.11 1.726 4.768-.067 8.46.41 10.793.576 6.2-.334 9.588 1.837 14.421 1.97 10.667-.433 21.856-2.72 26.19-2.886 6-.634 10.905-5.942 18.405-6.275 3.033 0 5.917-1.2 8.65-3.6 2.7-2.467 4.917-6.3 6.65-11.5 2.833-8.633 4.717-16.25 5.65-22.85.1-.433.167-1.883.2-4.35 0-2.5-.183-7.167-.55-14-.4-6.833-.783-14.1-1.15-21.8-2.533-51.9-12.15-95.383-28.85-130.45-2.7-5.667-5.583-11.1-8.65-16.3l-.25.15c-.467-1.433-1.15-2.65-2.05-3.65v.15c-2.733-2.333-8.233-3.383-16.5-3.15.167 3.033.567 6.383 1.2 10.05-3.933-1.8-6.6-4.833-8-9.1a.782.782 0 0 0-.15.2c-.833-2.333-1.183-5.1-1.05-8.3 0-1.933.15-4 .45-6.2l.25.1c.3-1.867.567-3.533.8-5 2.067-6.533 4.917-15.867 8.55-28a4001.024 4001.024 0 0 1 4.85-16.5c3.467-11.8 4.95-24.65 4.45-38.55-.333-10.4-1.667-20.1-4-29.1-1.933-7.633-3.667-13.533-5.2-17.7-2.267-6.133-4.933-11.417-8-15.85"
     id="path9" />
  <path
     fill="#474747"
     d="m503.55 449.15-4.15 4.6q10.4 7.1 20.65 22 4.6 6.65 8 15.85 2.3 6.25 5.2 17.7 3.5 13.5 4 29.1.75 20.85-4.45 38.55-2.65 8.95-4.85 16.5-5.45 18.2-8.55 28-.35 2.2-.8 5l-.25-.1q-.45 3.3-.45 6.2-.2 4.8 1.05 8.3.05-.1.15-.2 2.1 6.4 8 9.1-.95-5.5-1.2-10.05 12.4-.35 16.5 3.15v-.15q1.35 1.5 2.05 3.65l.25-.15q4.6 7.8 8.65 16.3 25.05 52.6 28.85 130.45.55 11.55 1.15 21.8.55 10.25.55 14-.05 3.7-.2 4.35-1.4 9.9-5.65 22.85-2.6 7.8-6.65 11.5-4.1 3.6-8.65 3.6-11.25.5-20.25 1.45-6.5.25-22.5.9-7.25-.2-16.55.3-3.5-.25-10.65-.15-9.4-.1-19.55-1.3-4.75-.6-7.5-3.9-1.2-4.8.35-7.5 1.4-2.65 9.25-17.15 1.75-3.25 3.5-6.8 3.65-7.4 3.85-8.05.15-.7 2.4-9.1 2.2-8.4 5.2-26.8 7.6-46.3.3-89.35-1.25-7.45-2.95-14.85-1-1.65-1.75-3.6-4.85-8.1-10.1-21.45-.15-.45-.15-.7-7.7-19.35-15.05-33.85l-.15-.3q-.15-.4-.3-.65-.3-.45-.45-.85-.15-.45-.3-.7l-.8-1.25-.7-1.5q-6.3-10.35-11.95-23-2.35-4.25-4.25-8.55-9.2-20.15-9.7-40.75V547q-5.35 17.4-3.1 31.35 2.3 13.9 10.75 29.65 2.8 5.15 5.6 9.95 1.8 4.3 4.35 9.1v.15l.15.15q8.1 15.75 17.15 38.3v.1l.15.15v.15q4.75 12.05 9.2 20.2 1.1 3.5 2.8 6.5 14.65 66.05-7.1 140l-.05.05q-6.4 13.4-13.75 25.15-2.9 5.95-.15 13.7 1.2 3.4 3.4 5.15 6.65 4.8 14.45 5.05 8.25.7 16.05.95 7.45.35 16.4.1 5.35 0 14.9-.35 4.65 0 13.65-.65l25.95-1.65 5.95-1.3q8-2.75 12.25-9.4 4.2-6.65 6.6-14.25 3.05-9.75 4.55-22.2.3-2.55.3-4.25-.05-1.75-.05-3.9-.05-2.15-.25-4.45-.3-111.9-39.15-178-.95-2.35-2.5-4.15-.5-1-1.45-1.5-5.55-5.55-21.7-5.3.25-7.3 2.1-15.5 5.5-17.65 11-37 5.05-17.95 5.5-38 .3-19.25-3.65-34.4-6-22.85-15.5-36.35-11.15-15.9-23.25-21.15"
     id="path10" />
  <path
     fill="#000000"
     d="M313.35 606c-1 .167-1.833.683-2.5 1.55 3.167 37.3 2.167 73.783-3 109.45a4.162 4.162 0 0 0-.45 1.5c-5.5 37.733-15.983 76.467-31.45 116.2a3.587 3.587 0 0 0-.35 1.75c-5.733 14.133-12.317 27.033-19.75 38.7-1.8 3.667-1.817 7.833-.05 12.5.767 2.033 1.883 3.55 3.35 4.55 4.167 2.8 8.733 4.167 13.7 4.1 5.2.233 10.3.333 15.3.3 4.7.033 9.883-.117 15.55-.45 3.433-.1 8.167-.383 14.2-.85 2.933-.067 7.25-.417 12.95-1.05l24.65-2.3 5.7-1.45c5.1-1.867 8.967-4.85 11.6-8.95a58.083 58.083 0 0 0 6.25-13.25c1.467-4.7 2.633-9.867 3.5-15.5a4.914 4.914 0 0 0 .9-2.1c5.967-43.033 8.033-82.867 6.2-119.5v-.95c.033-2.1-.05-4.133-.25-6.1.433-41.6-6.767-82.7-21.6-123.3-.833-.133-1.583-.05-2.25.25-.164.033-.247.1-.25.2-.467.167-.817.417-1.05.75v.4c9.233 31.7 14.8 65.167 16.7 100.4.4 7.2.65 14.467.75 21.8a3.08 3.08 0 0 0-.25.95l-.05.15a3.09 3.09 0 0 0-.05.95 450.79 450.79 0 0 1 .35 6.7c.333 7.033.517 14.183.55 21.45.1 21.167-1.017 43.35-3.35 66.55a762.514 762.514 0 0 1-2.3 20.15c-.167 1.2-.333 2.45-.5 3.75-.2 1.5-.4 3.017-.6 4.55l-.6-.05c-.867 5.667-2.517 12.133-4.95 19.4-1.6 4.8-3.683 8.367-6.25 10.7-2.633 2.3-5.367 3.5-8.2 3.6-7.133.533-13.567 1.2-19.3 2-4.1.3-11.233.833-21.4 1.6-4.633.033-9.9.317-15.8.85-2.167-.1-5.533-.017-10.1.25-5.967.133-12.167-.05-18.6-.55-3-.267-5.383-1.383-7.15-3.35-.8-2.833-.7-5.117.3-6.85.9-1.6 3.8-6.9 8.7-15.9 2.1-3.9 4.233-8.167 6.4-12.8a363.46 363.46 0 0 0 6.65-15.85l1.3-3.4a621.327 621.327 0 0 0 8.5-24.3c5.867-18.033 10.683-35.85 14.45-53.45a485.72 485.72 0 0 0 5.8-32.6c.877-5.565 2.01-11.099 2.65-16.7 3.533-35.4 2.15-67.567-4.15-96.5-.1 0-.233.017-.4.05"
     id="path11" />
  <path
     d="M370.35 180h.15c-19.267-20.433-43.333-30.65-72.2-30.65-28.667 0-53.683 10.267-75.05 30.8-21.533 20.433-33.05 45.05-34.55 73.85-1.6 27.1 6.233 50.6 23.5 70.5a1474.81 1474.81 0 0 0 3.05 3.25 211.49 211.49 0 0 1 10.55 11.35c2.7 3.167 5.4 6.433 8.1 9.8 12.933 17.367 20.767 35.45 23.5 54.25.633 7.867.5 15.633-.4 23.3a114.27 114.27 0 0 1-.65 5.8c-7.6 40.567-7.25 77.867 1.05 111.9v.15c11.567 47 38.483 78.167 80.75 93.5l4.3 1.55c14.564 6.257 30.483 8.57 46.2 10 4.8.4 9.65.6 14.55.6h7.35c33.6-2.867 56.483-7 68.65-12.4 12.867-5.7 26.55-13.2 41.05-22.5 16.233-10.533 28.583-20.333 37.05-29.4 10.533-11.233 18.35-23.033 23.45-35.4 9.1-22.267 9.567-46.367 1.4-72.3-7.567-24.2-22.95-40.75-46.15-49.65-19.5-7.567-40.833-8.633-64-3.2-12.367 2.967-25.383 8.683-39.05 17.15-7.467 4.6-13.65 8.267-18.55 11l-4.3 1.85a95.715 95.715 0 0 1-12.9 4.25c-1.1-10.667-2.383-25.567-3.85-44.7-2.933-39.233-2.283-87.767 1.95-145.6.867-4.9 1.45-9.967 1.75-15.2 1.5-28.8-7.4-53.417-26.7-73.85"
     id="path12" />
  <path
     fill="#b10000"
     d="M565.75 467.5c-9.018-18.524-24.093-31.048-32.23-6.563L477.7 545.95c-1.186 49.649 33.924 89.106 46.397 135.34 19.985 39.42 16.898 86.065 12.795 128.861-2.525 30.088-15.572 62.185-29.455 88.574 16.417 20.896 69.24 6.805 94.904 9.034 39.45 4.831 31.482-53.96 28.291-80.812-2.817-60.583-12.705-124.678-41.113-177.675-7.824-5.642-26.24-11.515-19.194 1.95-1.065-25.353 9.336-46.73 11.71-72.725 8.864-36.65 1.288-77.508-16.285-110.997zm-136.9 142.6c-13.307 16.279-68.178-10.801-53.604 17.823 19.788 82.918 4.636 168.46-23.4 247.77-12.48 21.923-37.37 59.752 5.354 50.307 29.17-5.122 80.787 12.344 101.278-11.45 14.11-56.396 7.981-123.623 2.759-180.789-4.264-41.633-15.376-83.984-29.981-123.216 3.457-2.441-3.57 2.93-2.406-.445zM387.2 243.45c1.78-30.306-20.806-62.544-48.988-76.088-54.214-27.248-124.448 10.014-137.774 67.82-10.103 35.35 4.061 73.679 31.644 96.444 25.904 28.648 43.756 68.473 32.222 107.298-9.538 57.983-6.25 128.924 41.664 170.06 44.338 34.336 105.797 38.06 158.474 24.612 39.369-8.022 56.244-50.55 59.245-86.59 5.468 5.306 1.092 47.863-12.887 63.144 37.732-21.342 73.556-59.849 67.33-106.459-1.471-33.55-24.78-65.794-59.186-70.894-37.17-8.884-72.363 10.379-102.544 29.803-19.074 11.145-37.032.408-11.2 29.9-27.485-21.595-15.524-64.728-22.027-95.67-2.769-51.204 2.115-102.27 4.027-153.38z"
     id="path13" />
  <path
     d="M307.15 347.35c-.2 0-.3.05-.3.15h.3v-.15m242.1 90.9-4.15 5.05c6.933 5.2 13.817 13.267 20.65 24.2 3.067 4.9 5.733 10.717 8 17.45 1.533 4.6 3.267 11.083 5.2 19.45 2.333 9.933 3.667 20.617 4 32.05.5 15.3-.983 29.433-4.45 42.4a5094.95 5094.95 0 0 0-4.85 18.15c-3.633 13.367-6.483 23.65-8.55 30.85l-.8 5.5-.25-.1c-.3 2.4-.45 4.65-.45 6.75-.133 3.567.217 6.617 1.05 9.15a.782.782 0 0 1 .15-.2c1.367 4.7 4.033 8.05 8 10.05-.633-4.033-1.033-7.717-1.2-11.05 8.267-.267 13.767.883 16.5 3.45v-.15c.9 1.067 1.583 2.383 2.05 3.95l.25-.15a241.837 241.837 0 0 1 8.65 17.95c16.7 38.6 26.317 86.433 28.85 143.5.367 8.433.6 17.1.7 26 1.019 4.88.713 10.8 1.05 15.95-.067.6-.133 1.217-.2 1.85-.933 7.333-2.833 15.85-5.7 25.55-1.733 5.667-3.95 9.883-6.65 12.65-2.733 2.633-5.617 3.95-8.65 3.95-7.5.333-14.25.85-20.25 1.55-4.333.2-11.833.55-22.5 1.05-4.833-.167-10.35-.067-16.55.3-2.333-.2-5.883-.25-10.65-.15-6.267-.1-12.783-.583-19.55-1.45-3.167-.433-5.667-1.867-7.5-4.3-.8-3.533-.683-6.3.35-8.3.933-1.867 4.017-8.133 9.25-18.8a202.453 202.453 0 0 0 3.5-7.5c.465-.952.802-1.383 1.262-2.45.19-.244.742-1.581.875-1.981.52-1.2.68-1.852 1.013-3.019 3.533-13.8 6.3-27.433 8.3-40.9 5.067-33.933 5.167-66.683.3-98.25a294.024 294.024 0 0 0-2.95-16.35c-.7-1.233-1.3-2.55-1.8-3.95-3.2-5.967-6.55-13.85-10.05-23.65-.1-.3-.15-.55-.15-.75-5.133-14.2-10.15-26.617-15.05-37.25l-.15-.3c-.1-.3-.2-.55-.3-.75-.2-.3-.35-.6-.45-.9-.1-.333-.2-.6-.3-.8l-.8-1.35c-.267-.633-.533-1.25-.8-1.85-4.133-7.567-8.083-15.95-11.85-25.15a135.618 135.618 0 0 1-4.25-9.35c-6.133-14.833-9.367-29.783-9.7-44.85v-5.05c-3.567 12.767-4.6 24.25-3.1 34.45 1.533 10.2 5.117 21.083 10.75 32.65 1.867 3.767 3.733 7.4 5.6 10.9 1.2 3.167 2.65 6.517 4.35 10.05v.15l.15.2c5.4 11.533 11.117 25.567 17.15 42.1v.15l.15.15v.15c3.167 8.833 6.233 16.25 9.2 22.25.733 2.6 1.667 4.967 2.8 7.1 9.767 48.467 7.383 99.833-7.15 154.1-4.233 9.833-8.817 19.067-13.75 27.7-1.933 4.333-1.983 9.35-.15 15.05.8 2.5 1.933 4.4 3.4 5.7 4.433 3.533 9.25 5.383 14.45 5.55 5.5.5 10.85.833 16.05 1 4.967.233 10.433.283 16.4.15 3.567 0 8.533-.133 14.9-.4 3.1 0 7.65-.267 13.65-.8l25.95-1.7 5.95-1.5c5.333-1.967 9.417-5.4 12.25-10.3 2.8-4.9 5-10.133 6.6-15.7 2.033-7.167 3.55-15.3 4.55-24.4l.4-4.7c.033-.467.067-.917.1-1.35a99.929 99.929 0 0 0-.5-7.8c-.2-82.1-13.267-147.433-39.2-196-.633-1.633-1.433-3.083-2.4-4.35-.033-.033-.05-.067-.05-.1a4.097 4.097 0 0 0-1.5-1.7c-3.7-4-10.917-5.917-21.65-5.75.167-5.333.867-11.017 2.1-17.05a1846.88 1846.88 0 0 0 11-40.75c3.367-13.167 5.2-27.1 5.5-41.8.2-14.1-1.017-26.717-3.65-37.85-4-16.733-9.167-30.05-15.5-39.95-7.433-11.667-15.183-19.433-23.25-23.3m-118.2 172.9c-.197.033-.297.1-.3.2-.467.2-.833.467-1.1.8.033.1.067.25.1.45 12.967 34.667 21.867 71.217 26.7 109.65 1 7.9 1.833 15.883 2.5 23.95a6.739 6.739 0 0 0-.15.8l-.05.15c-.033.3-.033.65 0 1.05.267 2.067.533 4.15.8 6.25a547.85 547.85 0 0 1 2.4 24.25c1.633 21.533 2.1 44 1.4 67.4a278.45 278.45 0 0 0-.15 5.35l-2.35 28.75a40.264 40.264 0 0 1-.15 2c-.6 6.2-2.017 13.267-4.25 21.2-1.467 5.2-3.583 9.067-6.35 11.6-2.8 2.467-5.833 3.75-9.1 3.85-8.167.5-15.5 1.15-22 1.95-4.667.333-12.817.85-24.45 1.55-5.267 0-11.267.25-18 .75-2.533-.1-6.4-.05-11.6.15-6.833.1-13.967-.15-21.4-.75-3.467-.3-6.267-1.517-8.4-3.65-1.133-3.167-1.2-5.667-.2-7.5.9-1.733 3.817-7.483 8.75-17.25 2.133-4.2 4.25-8.833 6.35-13.9 2.4-5.867 4.783-12.3 7.15-19.3.133-.433.283-.85.45-1.25l9.25-31.45c4.767-17.933 8.533-35.667 11.3-53.2 1.9-12 3.742-23.51 4.676-35.31.228-.933 1.1-15.42 1.224-18.59 1.367-38.5-2.683-73.567-12.15-105.2-.1 0-.25.017-.45.05-1.1.2-2 .767-2.7 1.7 6.467 40.733 8.083 80.533 4.85 119.4-.167.433-.267.9-.3 1.4-3.433 41.067-12.533 83.2-27.3 126.4-5.7 16.6-12.367 31.233-20 43.9-1.8 3.967-1.517 8.5.85 13.6 1.033 2.233 2.433 3.917 4.2 5.05 4.967 3.033 10.3 4.55 16 4.55 6.033.333 11.9.5 17.6.5 5.4.1 11.35-.017 17.85-.35 3.867-.1 9.267-.35 16.2-.75 3.367-.1 8.3-.45 14.8-1.05l28.1-2.3 6.4-1.55c5.667-1.933 9.867-5.133 12.6-9.6a55.495 55.495 0 0 0 6.2-14.35c1.267-5 2.533-11.483 3.8-19.45 3.567-47.233 2.85-90.933-2.15-131.1a67.432 67.432 0 0 0-.65-6c-2.633-45.467-14.033-90.483-34.2-135.05-.933-.167-1.8-.083-2.6.25"
     id="path14" />
  <path
     fill="#b10000"
     d="m 368.4,188.9 v -16.85 q -6.75,-9.2 -15,-17.45 -36.3,-35.95 -103.55,-34.7 -17.15,0.2 -32.65,3 l -0.15,9.35 q -12.4,2.25 -23.75,6.35 -24.5,8.65 -47.3,26.5 -10.15,8.05 -20.7,19.15 -3.5,3.75 -6.6,8.45 -10.4,15.65 -16.55,42.45 -5.5,24.45 -5.95,41.2 -0.6,16.55 1.85,37.5 2.3,20.95 5.8,30.65 3.55,9.75 5.5,14.3 1.85,4.25 1.85,7.75 l 11.2,0.05 q 11.35,-1.3 7.05,-0.45 39.8,55.8 141.7,48.75 36.45,-13.55 51.75,-28.45 26.65,-26.15 33.85,-35.5 7.05,-9.4 11.65,-18.25 4.6,-8.95 6.9,-18.35 18.25,-54.2 5.5,-96.9 -3.05,-10.4 -7.65,-19.95 -2.15,-4.25 -4.45,-8.3 l -0.3,-0.3"
     id="path15"
     style="display:inline" />
  <path
     fill="#000000"
     d="m 561.799,444.536 v -0.15 q -1.35,-9.7 -8.2,-16.2 h -0.2 q -3.65,-3.5 -9.4,-4.6 h -0.15 q -6.1,-1.1 -12.2,-0.6 h -0.15 q -18.25,2 -35.3,8.6 -20.7,7.1 -36.7,22 l -0.3,0.3 -6.55,6.65 10.8,0.15 q 10.5,0.45 13.85,14.45 2.15,9.7 -1.65,18.65 22.05,17.2 0.9,46.6 l 1.95,2.65 q 2.15,3.55 2.3,7.85 0.3,6.6 -7.6,14.6 -16.75,3.7 -32.9,-2.75 -16.75,-6.8 -22.35,-23.55 v -0.15 q -6.7,-18.95 -1.55,-38.5 5.2,-19.7 17.2,-36.15 7.45,-10.15 15.85,-19.1 l 0.15,-0.15 3.05,-3.25 -9.15,4.3 q -10.5,6.05 -17.2,14.5 -13.55,17.4 -18.7,37.55 -5.8,22.15 1.65,43.85 7,20.95 27.7,29.25 19.2,7.7 39.15,2.95 0.3,0 0.6,-0.15 21.75,-6 38.5,-21.55 15.55,-14.5 26.35,-32.8 7,-11.85 11.85,-24.5 v -0.15 q 8.55,-19.35 8.85,-40.15 v -0.15 q 0,-5.1 -0.45,-10.3"
     id="path16"
     style="display:inline" />
  <path
     fill="#b10000"
     d="m 532.549,432.186 q -2.85,0.35 -5.6,0.8 l -46,31.25 v 0.3 q 5.35,12.45 4.9,25.85 l 4.4,5.1 62.55,-48.95 q -0.15,-0.5 -0.15,-1.1 h 0.15 q -1.05,-6.15 -5.45,-10.3 v -0.15 q -2.15,-1.7 -5.2,-2.3 h 0.15 q -4.85,-0.95 -9.75,-0.5"
     id="path17"
     style="display:inline" />
  <path
     fill="#6eaadc"
     d="m 552.799,445.586 q -0.1,0 -0.05,-0.05 l -0.1,-0.1 q 0,0.6 0.15,1.1 v -0.95"
     id="path18"
     style="display:inline" />
  <path
     fill="#80d1f5"
     d="m 552.749,445.536 q 0,-0.05 0.05,-0.1 h -0.15 l 0.1,0.1"
     id="path19"
     style="display:inline" />
  <path
     fill="#b10000"
     d="m 499.249,438.336 -0.15,0.2 q -18.3,6.15 -31.25,16.75 7.65,0.75 11.45,5.85 l 40,-26.8 q -7,-0.9 -20.05,4 m 45.8,53.3 q 7.75,-17.7 8.05,-36.8 v -4.6 l -61.05,47.85 q 0.5,1.4 1.1,3.05 3.95,13.55 0.45,26.2 l 49.95,-32.05 q 0.75,-1.8 1.35,-3.5 l 0.15,-0.15 m -11.4,23.4 h 0.15 q 4.1,-7.25 7.6,-14.65 l -49.5,31.7 -1.8,4 q -0.15,0.15 -0.15,0.3 l -3.35,5.1 q 0.45,1.25 0.75,2.45 v 0.15 h -0.15 q 2.15,8.95 -0.3,16.65 12,-5.55 22.05,-14.95 14.5,-13.55 24.7,-30.75"
     id="path20"
     style="display:inline" />
  <path
     fill="#b10000"
     d="m 478.499,543.036 -1.95,-2.65 q 21.15,-29.4 -0.9,-46.6 3.8,-8.95 1.65,-18.65 -3.35,-14 -13.85,-14.45 l -10.8,-0.15 6.55,-6.65 -9.6,-8.75 -0.15,0.15 q -8.4,8.95 -15.85,19.1 -12,16.45 -17.2,36.15 -5.15,19.55 1.55,38.5 v 0.15 q 5.6,16.75 22.35,23.55 16.15,6.45 32.9,2.75 7.9,-8 7.6,-14.6 -0.15,-4.3 -2.3,-7.85"
     id="path21"
     style="display:inline" />
  <path
     fill="#ffffff"
     d="M111.3 207.375a220.521 220.521 0 0 1-.775-1 155.218 155.218 0 0 0-7.85 19.025c-17.183 50.6 3.621 38.012 6.58 39.376 5.167 2.312 9.003 173.508 22.67-8.422-1.793-5.84-5.501-23.595-14.175-33.004-2.467-5.9-4.767-10.9-6.9-15l.45-.975"
     id="path22" />
  <path
     fill="#010000"
     d="m102.75 219.75 2.45-6q-1.6-.7-14.65-7.55-12.2-5.9-12.8-4.15-1.15 3.05 25 17.7"
     id="path23" />
  <path
     fill="url(#c)"
     d="M97.07 234.703c-1.596 4.76-.032 9.874-.72 14.847.6-.3 1.198.212 1.865.045 1.305-.334 2.436-.198 3.747.052 1.872-2.364 4.476-4.094 7.388-3.347 3.7.933 7.183 4.2 10.45 9.8 3.2 5.467 5.217 11.683 6.05 18.65.8 6.9.183 12.467-1.85 16.7-1.229 2.438-2.712 4.03-4.45 4.775 1.421-.449-3.234 1.316-2.122-.185 1.367 13.567 4.914 23.474 1.981 34.14-1.533 5.6-1.842 9.403-4.109 12.47 1.3-.833 2.567-1.917 3.8-3.25 0-.033.017-.067.05-.1.074-.084.149-.167.225-.25 7.834-19.166 12.441-41.978 11.524-68.612-.342-8.623-3.258-18.253-6.449-28.713-3.667-8.07-8.084-13.262-13.25-15.575-2.96-1.363-5.793-1.67-8.517-.807-.168.417-1.83-.89-1.986-.37l-1.032 4.519"
     id="path24" />
  <path
     fill="#010000"
     d="M110.525 206.375q.379.492.775 1-.225.491-.45.975 3.2 6.15 6.9 15 4.011 9.614 6.7 18.375 4.787 15.69 5.3 28.625 1.376 39.951-10.375 68.7-1.915 4.671-4.175 9.05 3.461-5.86 6.325-11.875 7.001-14.761 10.325-30.425 2.53-11.868 2.95-24.25.4-11.25-1.1-22.3-3.6-29.25-19.4-57.75-.182.334-.375.675Q97.098 181.353 95.8 182.85q-1.856 2.141 14.725 23.525"
     id="path25" />
  <path
     fill="#010000"
     d="m96.35 249.55-.05.35v.1q-.1.3-.1.6-.2.8-.3 1.65-.05.15-.05.25-.05.15-.05.3-1.1 6.75-1.75 13.7-1.25 13.6-1.1 26.4l.1 5.85.1 2q.1 3.25.35 6.5l.2 2.7.1.9v.25l1.1 9.8q.8 5.8 1.9 11.45 1.85 9.25 4.25 14.4h.05q3.5 2.05 7.2 1.1 3.95-1.05 7-5.2 3.4-4.6 5.7-13 4.4-16 2.35-36.35-1.668 2.252-3.8 2.925-1.918.826-4.25.275-5.7-1.45-10.45-9.7-4.85-8.4-6.05-18.75-1.2-10.45 1.85-16.85.692-1.441 1.525-2.475-1.966-.376-3.925.125-1 .25-1.9.7"
     id="path26" />
  <path
     d="m217.05 132.25.15-9.35q-14.25 2.5-27.1 7-25.75 9.2-49.65 28-5.05 4.05-20.8 21.55-.8 1-1.55 1.75-13.95 15.75-22.5 43.7-8.75 28.4-8 60.7.8 32.3 6.3 53.95 5.5 21.45 13.8 27.1 3.5 2.2 3.5-.1 0-3.5-1.85-7.75-1.95-4.55-5.5-14.3-3.5-9.7-5.8-30.65-2.45-20.95-1.85-37.5.45-16.75 5.95-41.2 6.15-26.8 16.55-42.45 3.1-4.7 6.6-8.45 10.55-11.1 20.7-19.15 22.8-17.85 47.3-26.5 11.35-4.1 23.75-6.35"
     id="path27" />
  <path
     fill="#ffffff"
     d="M108.85 306.1q-1.75-.5-2.95 1.05-1.3 1.5-1.45 3.95-.15 2.65 1 4.8 1.1 2.1 2.85 2.55 1.6.4 2.95-1.1 1.15-1.45 1.4-4.1.05-2.55-.95-4.65-1.2-2.15-2.85-2.5m-8.2-54.9q-3.05 6.4-1.85 16.85 1.2 10.35 6.05 18.75 4.75 8.25 10.45 9.7 2.332.551 4.25-.275 2.607-1.118 4.45-4.775 3.05-6.35 1.85-16.7-1.25-10.45-6.05-18.65-4.9-8.4-10.45-9.8-4.368-1.121-7.175 2.425-.833 1.034-1.525 2.475"
     id="path28" />
  <path
     fill="url(#a)"
     d="M131.85 305.8c-2.216 10.443-5.658 20.584-10.325 30.425.409-.607-.774-.807.43-1.837 2.458-7.522 8.32-16.933 9.895-28.588"
     id="path29" />
  <path
     fill="#ffffff"
     d="M119.1 339.4q-1.85 2-3.8 3.25-3.05 4.15-7 5.2-3.7.95-7.2-1.1 5.4 11.65 13.5 1.95 2.4-4.6 4.5-9.3"
     id="path30" />
  <path
     fill="#030202"
     d="m98.25 236.15 1.15-6.1q-25.6-5.8-25.95-2.3-.3 3.55 24.8 8.4"
     id="path31" />
  <path
     fill="#ffffff"
     d="M275.35 234.15c-7.767-2.267-15.833-2.583-24.2-.95-39.054 2.116-53.817 41.754-61.97 47.141 10.75-1.496 43.968 45.159 40.964 20.817 5.191 4.734-2.625 51.873.025 31.498-1.88 30.76 12.029 29.828-10.324 47.557l20.586-1.144c8.9-2.4 17.85-7.034 26.85-13.9 16.634-12.667 29.302-29.586 36.569-50.319 3.1-9.137 4.883-17.879 5.35-26.225l-.45.075c.933-17.367-2.8-30.9-11.2-40.6-5.7-6.633-13.1-11.283-22.2-13.95"
     id="path32" />
  <path
     fill="url(#b)"
     d="M201.85 256.775q-.875 1.007-1.7 2.025-1.775 2.073-3.45 4.35 2.443-3.5 5.15-6.375"
     id="path33" />
  <path
     fill="url(#d)"
     d="M219.9 380.2c.133.033.267.05.4.05l12.35.15c2.8-.3 5.6-.817 8.4-1.55h.1c10.433-4.6 18.9-13.75 25.4-27.45l-12.547-17.426c-1.9 7.4-17.149 26.288-21.015 31.988-4.734 7.1-7.388 12.471-13.088 14.238m4.625-137.375c-8.8 5.6-16.542 12.808-22.975 20.375-5.44 6.275-10.123 13.875-13.3 20.8.52-.883 3.062.875 3.625.025 6.967-10.267 14.5-15.975 23.6-14.875-.564 5.175 4.83.306 6.75 1.125 3.772-1.615 7.58-2.59 12.175.075 5.5 3.167 9.983 8.583 13.45 16.25 3.467 7.533 4.85 15.133 4.15 22.8-.733 7.567-3.283 12.933-7.65 16.1a13.826 13.826 0 0 1-2.775 1.475 13.606 13.606 0 0 0 3.325-1.675 14.96 14.96 0 0 0 2.05-1.8c-3.654 4.098-19.146 48.696 10.262 33.275 8.361 5.869 13.98-18.692 13.913-17.725l2.725-10.75c1.567-9.167 1.767-18.733.6-28.7-2.067-18.767-8.35-33.45-18.85-44.05-9.017-9.246-20.056-14.277-30.806-12.781"
     id="path34" />
  <path
     fill="#ffffff"
     fill-opacity=".297"
     d="m245.8 339.4 13.6 3.75c4.333 1.333 7.233 2.133 8.7 2.4l.8.25h.05c0-.033.017-.067.05-.1l2.05-5.75c1.3-3.833 2.053-7.827 2.853-11.794l-.053.144-27.178 2.234c-.2 2.867-.439 6.166-.872 8.866"
     id="path35" />
  <path
     fill="#ffffff"
     fill-opacity=".534"
     d="m259.4 343.15-13.662-3.773c-.4 2.7-.871 5.34-1.538 7.873l15.928 15.315c3.8-5.566 6.739-11.332 8.772-16.765l-.8-.25c-1.467-.267-4.367-1.067-8.7-2.4"
     id="path36" />
  <path
     fill="#ffffff"
     d="M180.6 319.9q.032-.831.075-1.65-1.457 14.41 1.525 28-.009.057-.025.1.711 2.198 1.575 4.35 1.328 3.343 2.95 6.35-7-16.35-6.1-37.15"
     id="path37" />
  <path
     fill="#010000"
     d="M341.55 248.4q-.65-1.85-16.4 3.5-10.983 4.045-15.675 5.7-2.514-7.369-6.375-12.3-1.237-1.601-2.6-3.05 20.33-20.21 17.9-22.5-1.675-1.675-22.65 18.1-7.664-6.079-18.25-8.75-27.55-7.5-54.1 9.8-13.281 8.448-21.55 17.875-.875 1.007-1.7 2.025-1.775 2.073-3.45 4.35-7.862 10.63-13.55 25.55-1.55 3.65-2.6 7.8-2.15 7.65-2.75 16.7-1.55 17 3.05 30.6 1.128 3.195 1.325 2.55.016-.043.025-.1-2.982-13.59-1.525-28-.043.819-.075 1.65-.9 20.8 6.1 37.15.149.277.3.55 4.801 11.12 15.1 16.35l.2.1q.35.25.8.5.8.45 1.65.9l7.5 3.05q.25.05.5.15l4.55 1.1q.5.1 1.05.2.75.15 1.55.25 8.55-2.65 15.65-13.3 5.8-8.55 8.65-19.65 1-3.8 1.6-7.85.65-4.05.95-8.35.1-1.45.15-2.9.1-2.35.05-4.65-.95 1-2.05 1.8-1.615 1.1-3.325 1.675-5.638 2.203-12.275-1.475-8.4-4.9-13.45-16.25-5.2-11.5-4.15-22.8 1.1-11.5 7.65-16.25 1.217-.876 2.5-1.425-2.879-1.229-6-1.625-13.65-1.65-24.1 13.75-.845 1.275-1.625 2.6 4.765-10.388 12.925-19.8 9.65-11.35 22.85-19.75l.05-.025q12.228-8.081 25.2-10.725 12.55-2.45 24.2.95 13.65 4 22.2 13.95 12.6 14.55 11.2 40.6l.45-.075 3.85-.575q.005-.087 0-.175 26.643-3.709 26.35-7.325-.429-3.479-26.2.95-.087-9.231-1.9-17.425 31.26-12.454 30.25-15.675"
     id="path38" />
  <path
     fill="#ffffff"
     d="M220.45 341.1q.9-2.6-.15-5.35-1.25-2.9-3.7-4.3-2.6-1.5-4.9-.6-2.45.75-3.35 3.2-1.1 2.65.15 5.55 1.05 2.75 3.65 4.3 2.45 1.35 4.9.6 2.3-.8 3.4-3.4"
     id="path39" />
  <path
     fill="#b10000"
     d="m 143.55,333.3 -19.097,-3.653 -0.147,0.287 c -2.133,5.733 -8.513,11.663 -12.713,16.363 -3.167,3.567 -5.345,3.508 -9.945,5.041 l -1.704,0.703 c -0.6,0.2 0.64,0.55 -0.294,0.85 -0.6,-1.573 -2.721,0.099 -3.554,0.399 -0.7,0.2 -1.266,0.801 -2.1,1.001 l -6.505,2.705 -3.16,-0.903 c -5.1,2.133 -4.175,9.777 -2.242,16.31 2.367,7.134 7.052,14.87 12.852,21.404 2.067,2.366 5.52,5.269 7.954,7.502 1.234,1.033 1.865,2.819 2.998,3.45 1.1,0.8 3.12,0.614 4.253,1.447 2.306,2.507 1.82,1.754 2.453,2.154 6.633,-0.9 14.608,-2.482 19.108,-5.749 6,-4.3 7.059,-6.948 7.792,-18.582 -1.248,12.866 0.23,13.084 -6.903,19.317 -2.967,2.533 -10.73,5.52 -14.559,8.357 10.734,5.833 23.975,11.938 35.308,15.305 16.233,4.8 36.854,6.232 59.654,4.9 0.5,2.207 1.25,-0.352 1.95,-0.452 l 29.451,-3.75 c 1.434,-0.2 2.817,-0.567 4.35,-0.9 1.933,-0.4 3.382,-0.7 5.348,-1.1 l 27.553,-7.202 c 3.567,-0.9 1.765,-0.914 5.432,-2.047 1.533,-8.8 2.417,-17.44 -7.383,-21.707 -9.8,3.267 -20.117,5.25 -30.95,5.95 -3.067,0.2 -6.183,0.3 -9.35,0.3 -32.967,0 -61.15,-11.017 -84.55,-33.05 -4.167,-4 -7.933,-8.1 -11.3,-12.3 V 333.3"
     id="path40"
     style="display:inline" />
  <path
     d="m 76.3,373.15 h -0.15 c 2.933,8.967 7.783,17.233 14.55,24.8 3.567,4.2 6.217,7.067 7.95,8.6 3.267,2.833 6.067,4.967 8.4,6.4 a 178.01,178.01 0 0 0 5.85,4 c 10.7,6.633 23.317,12.05 37.85,16.25 19.6,5.7 44.917,6.517 75.95,2.45 31.267,-4.1 53.067,-11.2 65.4,-21.3 a 214.365,214.365 0 0 1 -10.85,3.05 L 254.6,424 c -1.967,0.4 -3.917,0.8 -5.85,1.2 -1.533,0.333 -3.017,0.6 -4.45,0.8 l -28.95,3.65 c -0.7,0.1 -1.35,0.15 -1.95,0.15 -22.8,1.333 -42.317,-0.4 -58.55,-5.2 -11.333,-3.367 -22.367,-7.967 -33.1,-13.8 5.133,-1.633 9.183,-3.717 12.15,-6.25 7.133,-6.233 9.067,-15.983 5.8,-29.25 -0.733,11.633 -4.1,19.6 -10.1,23.9 -4.5,3.267 -10.067,5.35 -16.7,6.25 -0.633,-0.4 -1.15,-0.75 -1.55,-1.05 a 794.346,794.346 0 0 0 -3.35,-2.45 107.603,107.603 0 0 0 -3.7,-3.25 87.454,87.454 0 0 1 -6.75,-6.9 c -5.8,-6.533 -9.883,-13.367 -12.25,-20.5 -1.933,-6.533 -0.35,-10.867 4.75,-13 h 0.15 l 4.9,-1.4 c 0.833,-0.2 1.6,-0.4 2.3,-0.6 0.833,-0.3 1.55,-0.567 2.15,-0.8 0.933,-0.3 1.7,-0.55 2.3,-0.75 h 0.3 c 4.6,-1.533 8.483,-4.083 11.65,-7.65 4.2,-4.7 7.367,-9.917 9.5,-15.65 l 0.3,-0.9 c -0.3,0.4 -0.55,0.817 -0.75,1.25 -1.833,2.433 -3.767,4.517 -5.8,6.25 a 38.28,38.28 0 0 1 -4.6,3.2 c -0.633,0.433 -1.35,0.85 -2.15,1.25 -1.833,0.933 -3.933,1.8 -6.3,2.6 -0.5,0.1 -1.067,0.25 -1.7,0.45 -0.9,0.2 -1.867,0.467 -2.9,0.8 -0.1,0 -0.2,0.05 -0.3,0.15 -0.5,0.1 -1.067,0.25 -1.7,0.45 -2.433,0.5 -5.383,1.267 -8.85,2.3 -0.484,0.138 -0.891,0.25 -1.1,0.3 -1.733,0.5 -3.267,1.117 -4.6,1.85 -0.8,0.4 -1.567,0.9 -2.3,1.5 -1.533,1.133 -2.65,2.517 -3.35,4.15 -2.667,4.4 -2.967,9.767 -0.9,16.1"
     id="path41"
     style="display:inline" />
  <path
     d="m 116.1,372.85 q -4.3,0.75 -9.8,-1.4 6,6.9 11.65,6.3 5.35,-1.4 4.15,-14.55 -1.85,8.25 -6,9.65"
     id="path42"
     style="display:inline" />
  <path
     fill="#ff0000"
     d="M441.8 158.55c-8.367-16.533-19.45-30.983-33.25-43.35-9.6-8.467-20.517-15.967-32.75-22.5l-6.894 9.445c37.366 21.566 62.633 54.5 75.8 98.8 1.233 4.1 4.825 7.626 5.825 11.993 2.866 15.433-3.594 29.201-.297 43.732l1.766 7.78c-.3 6.967 2.561 13.594 1.861 20.527-.733 5.2-.136 9.036-1.036 14.336-4.3.603-1.687 3.277-1.887 4.31-.4 1.434-3.452 2.46-3.852 4.493-.5 2.233-1.117 3.823-1.85 6.89l-2.828-.204c-.9 2.867 4.774 7.881 3.94 10.448-.3 2.133-1.71 3.056-2.11 4.89-1.034 3.9-2.91 9.543-5.277 16.576-1.1 3.167-.145 5.576-1.379 8.643-1.033 2.533-3.464 4.503-4.464 6.97-1.833 4.2-5.678 6.262-7.644 10.428-5 10-9.203 18.856-15.436 28.69-17.967 25.833-22.26 60.344-14.293 89.744-3.79 2.498-1.795 1.991-1.795 2.191 8.467 31.167 26.85 55.401 45.25 79.068 1.233 2.067 4.45 3.4 9.65 4-29.833-43.8-45.4-81.167-46.7-112.1v-7.85c.8-10.5 4.883-22.65 12.25-36.45 3.067-5 5.967-9.85 8.7-14.55.1-.3.25-.5.45-.6a252.598 252.598 0 0 0 3.55-6.45 831.704 831.704 0 0 0 11-21.6c.333-.8.7-1.567 1.1-2.3a218.305 218.305 0 0 1 4.3-10.1 249.958 249.958 0 0 0 2.9-7.5c.3-.833.6-1.7.9-2.6 3.6-9.5 6.617-18.8 9.05-27.9 0-.4.05-.75.15-1.05a160.672 160.672 0 0 0 2.75-8.3c.833-2.833 1.55-5.533 2.15-8.1 0-.5.1-1.017.3-1.55.433-1.833.8-3.617 1.1-5.35v-.45c.9-5.833 1.667-11.5 2.3-17 .7-7.067 1.15-14.017 1.35-20.85v-6.75c-.1-20.2-2.85-39.55-8.25-58.05-4-14-9.467-27.483-16.4-40.45"
     id="path43" />
  <path
     fill="#ffffff"
     d="M221.85 268.775q-1.283.549-2.5 1.425-6.55 4.75-7.65 16.25-1.05 11.3 4.15 22.8 5.05 11.35 13.45 16.25 6.637 3.678 12.275 1.475 1.422-.553 2.775-1.475 6.55-4.75 7.65-16.1 1.05-11.5-4.15-22.8-5.2-11.5-13.45-16.25-6.892-3.997-12.55-1.575"
     id="path44" />
  <path
     fill="#ff00f1"
     d="m370.1 160.85 10.6 23.45 1.95 1.85 7.05 11q.15.35.5.8 2.9 4.3 7.35 7.05 4.4 2.6 7.35 6.55 2.75 4 8.55 11.65 5.85 7.5 6.9 15.95.9 8.25 4.9 21.75v7.35q2.75 5.65-.9 17-3.7 11.35-6.3 19.3-2.6 7.95-3.8 10.25-1.4 2.3-1.55 4.45-.3 2.15-4.9 11.05-4.6 8.7-9.35 18.5-4.75 9.5-7.8 13.05-3.1 3.35-4.75 7.5-1.7 4-6.75 12.55-5.2 8.3-11.35 23.3-40.3 100.5 11.05 133.25 51.15 32.8 53.75 34h6.6q-27.6-35.5-40.3-82.25 0-.3-.15-.6-11.95-44.1 15-82.85Q423.1 392 430.6 377q2.95-6.25 5.7-12.55 1.5-3.7 3.05-7.5 1.85-4.6 3.5-9.35 3.55-10.55 5.1-16.4.6-2.75 1.05-5.95 1.25-3.85 2.6-8.15v-.15q1.1-4.6 1.85-7.95.6-3.05 1.2-5.2.3-1.55.65-3.25 1.35-7.95 2.45-15.75 1.05-10.4 1.5-20.85v-6.75q0-22.35-4.3-45.5-1.5-6.55-3.35-12.7-19.75-66.45-75.8-98.8l-5.7 60.65"
     id="path45" />
  <path
     fill="#014b4b"
     d="m157.15 244.2-.45-.65-.15.95.6-.3"
     id="path46" />
  <path
     fill="#ffffff"
     d="M15.6 242.05v.15h.2l-.2-.15"
     id="path47" />
  <path
     fill="none"
     d="M369.35 83.8q-40.9-18.85-99.25-24.5l-2.15-.15q-3.7-.35-6.9-.5-.95-.15-1.7-.15-15.3-1.35-24.95-3.05-43.2-7.35-59.75-30.65-6.9-9.95-10.75-24.8l-.15 1.4q-.3.75-.3 1.35l-.6 25.9q1.4 17.6 7.5 32.95 2.9 7.2 6.75 13.15-13.5.9-29.55 3.7-2.15.3-4.15.75-4.3.75-8.6 1.85-35.2 8.4-65.7 30.3-24.2 17.5-40 41.85-2.75 4.1-5.2 8.4-7.2 12.7-12.25 27.3-.6 2.1-1.2 4.25-1.25 3.7-2.3 7.65-.8 3.4-1.55 6.9-.45 1.85-.6 3.85-1.25 6.15-2 12.7v.8l.3-.5 15.15-15.15q1.55-1.7 2.45-2.75.8-1.1 2.3-2.45 1.4-1.55 5.7-6.6 4.3-5.2 11.65-11.65 7.2-6.25 11.15-9.95 4-3.65 9.35-7.5 5.2-3.85 22.7-15.95 17.45-12.1 35.35-18.95 17.95-6.9 30.95-10.3 12.85-3.35 39.85-4.9 26.95-1.5 58.35 7.5 31.4 9.05 42.1 17.35 10.75 8.25 15.5 12.55 4.6 4.1 10.7 11.3 6 7.2 7.5 11.05 1.55 3.7 3.1 4.3 1.5.45 4.75 2.6 3.35 2 28.15-33.55 24.85-35.55 30.8-45.95 2.45-7.05-8.55-13.65-11.2-6.75-13.95-8.1"
     id="path48" />
  <path
     fill="#ff0000"
     d="M383.3 91.9c-7.467-4.5-12.117-7.2-13.95-8.1C342.083 71.233 309 63.067 270.1 59.3l-2.15-.15c-11.229-.791-22.436-1.87-33.55-3.7-28.8-4.9-48.717-15.117-59.75-30.65-4.6-6.633-8.183-14.9-10.75-24.8l-.15 1.4c-.2.5-.3.95-.3 1.35l-.6 25.9c.933 11.733 3.433 22.717 7.5 32.95 1.933 4.8 4.183 9.183 6.75 13.15-9 .6-18.85 1.833-29.55 3.7-1.433.2-2.817.45-4.15.75-2.867.5-5.733 1.117-8.6 1.85-23.467 5.6-45.367 15.7-65.7 30.3-16.133 11.667-29.467 25.617-40 41.85a135.467 135.467 0 0 0-5.2 8.4c-4.8 8.467-8.883 17.567-12.25 27.3-.4 1.4-.8 2.817-1.2 4.25-.833 2.467-1.6 5.017-2.3 7.65a353.696 353.696 0 0 0-1.55 6.9c-.3 1.233-.5 2.517-.6 3.85-.833 4.1-1.5 9.17-2 13.536l.332-.43 23.427-17.2c-.3-2.434-4.997-2.453-4.897-2.886.434-2.734 1.707-4.953 2.407-7.72l-1.59-.627c.7-3.066 5.228-7.624 6.162-10.49 0-.1 3.762 1.037-.027 1.644 3.667-11.533 8.223-20.038 15.79-31.172 5.3-7.966 10.649-14.722 17.815-22.39 19.2-20.532 40.985-36.523 71.718-44.79.3-.1 4.263 6.214 2.341 1.44 4.735 3.764 4.293.042 7.16-.558 16.395 5.495 24.755-4.547 35.689-4.847l2.3-1.237c3.9-.1 11.472 1.591 14.939 1.891l-.16-4.462c-1.434-1.434-.806-5.922-2.006-7.456-4-5.1-7.233-9.48-9.8-16.846-1.4-3.967 2.989 1.503 2.155-2.697 8.236 7.669 5.618 13.572 20.934 7.536 11.634 3.167 26.084 6.931 43.35 8.464 3.267.3 6.05 1.484 10.117 1.784.78 9.546 1.492 9.95 2.492 10.05 1.434.133 3.044-8.943 4.477-8.843l2.22 3.306c36.966 3.066 62.396 11.31 88.663 24.376 3.066 1.534 13.445 6.61 25.478 14.877 1.633-4.7 5.147-19.503-2.186-23.903"
     id="path49" />
  <path
     fill="#ff00f1"
     d="M325.05 178.15c1.033 2.467 2.067 3.9 3.1 4.3 1 .3 2.583 1.167 4.75 2.6 2.233 1.333 11.617-9.85 28.15-33.55 16.567-23.7 26.833-39.017 30.8-45.95-12.033-8.267-19.583-13.167-22.65-14.7-26.267-13.067-57.883-21.133-94.85-24.2l-2.75-.3c-1.433-.1-2.867-.217-4.3-.35-1-.1-2.067-.15-3.2-.15-4.067-.3-7.733-.6-11-.9-17.267-1.533-31.717-3.883-43.35-7.05-13.1-3.567-23.933-8.467-32.5-14.7.833 4.2 1.95 8.283 3.35 12.25 2.567 7.367 5.85 13.6 9.85 18.7a49.038 49.038 0 0 0 3.95 4.45l-.9.75c-3.467-.3-7.15-.4-11.05-.3h-2.3c-10.933.3-23.183 2.033-36.75 5.2-2.867.6-5.783 1.317-8.75 2.15-.2 0-.45.05-.75.15-30.733 8.267-55.7 22.667-74.9 43.2-7.167 7.667-13.4 15.483-18.7 23.45-7.567 11.133-13.183 22.467-16.85 34-.1.1-.15.2-.15.3a102.208 102.208 0 0 0-2.45 8.9v.45a92.983 92.983 0 0 0-1.7 8.25c-.1.433 0 1.867.3 4.3 1.033-1.133 1.85-2.05 2.45-2.75.533-.733 1.3-1.55 2.3-2.45.933-1.033 2.833-3.233 5.7-6.6 2.867-3.467 6.75-7.35 11.65-11.65 4.8-4.167 8.517-7.483 11.15-9.95 2.667-2.433 5.783-4.933 9.35-7.5 3.467-2.567 11.033-7.883 22.7-15.95 11.633-8.067 24.126-13.39 36.06-17.957 11.966-4.6 21.573-7.04 30.24-9.306 8.567-2.234 21.424-4.435 39.424-5.468 17.967-1 37.843.081 58.776 6.081 20.933 6.033 34.967 11.817 42.1 17.35 7.167 5.5 12.333 9.683 15.5 12.55 3.067 2.733 6.633 6.5 10.7 11.3 4 4.8 6.5 8.483 7.5 11.05"
     id="path50" />
  <path
     d="m200.55 155-5.1-3.95q-30.15-29.9-44.1-43.55-5.8-5.8-8.9-8.85-1.05-1.1-1.65-1.7-11.8-10.4-20.85-16.85v-.15q-23-16.55-32.15-10.1-8.6 4.1 1.05 28.8 3.7 9.65 10.1 22.35 2.95 6 6.45 12.85 7.8 14.25 15 26.65 11.2 19.3 16.1 30.2 48.85-16.85 64.05-35.7"
     id="path51" />
  <path
     fill="#b10000"
     d="m 92.25,77.8 q -2.65,2 5.95,20.85 3.2,7.2 8.1,16.7 10.15,-6.15 11.35,-16.7 0.45,-4.3 -0.6,-9.35 -1.25,-0.95 -2.45,-1.85 h -0.15 Q 97.9,75.65 92.25,77.8"
     id="path52" />
  <path
     fill="#b10000"
     d="M120.7 92.05q.3 3.5.15 6.6-1.35 12.25-13 19.45h-.15q2.6 5.5 5.95 11.5 7.05 13.45 14.1 25.25 20.25-11.35 19.3-38.9-1.05-1.1-2-1.85-7.8-7.65-10.55-10.1-1.35-1.25-2.45-2.15-1.2-1.35-3.2-3.2-3.25-2.75-8.15-6.6"
     id="path53" />
  <path
     fill="#b10000"
     d="M129.15 157.6q11.95 20.25 14.1 23.6 31.55-7.8 45.35-24.35-24.7-24.35-38.3-37.7-.15 26.95-21.15 38.45"
     id="path54" />
  <path
     fill="#0000ff"
     d="M330.1 177.55a108.967 108.967 0 0 0-5.8-9.5c-4.7-6.933-9.967-13.05-15.8-18.35a17.12 17.12 0 0 0-3.05-2.75c-14-11.667-32.633-20.05-55.9-25.15-20.533-4.6-41.317-6.083-62.35-4.45-15.333 1.233-30.3 3.95-44.9 8.15-2.867.8-5.717 1.717-8.55 2.75-21.867 7.133-42.917 17.7-63.15 31.7a243.194 243.194 0 0 0-8.85 6.45 228.516 228.516 0 0 0-9.8 7.8 140.78 140.78 0 0 0-10.3 9.05c-5.4 5-10.45 10.2-15.15 15.6a40.622 40.622 0 0 0-3.5 4c-14.248 16.226-18.082 20.823-19 22.2-.433 2.567-.9 6.133-1.4 10.7-.5 4.7-1.017 11.5-1.55 20.4C.45 264.917.1 271.3 0 275.3c-.1 1.433.1 5.05.6 10.85 24.733-23.667 52.567-44.183 83.5-61.55 30.933-17.467 68.467-34.167 112.6-50.1-19.5 17.867-32.267 38.283-38.3 61.25-.1.233-.15.5-.15.8-.2.6-.4 1.267-.6 2 0 .2-.067.45-.2.75l-.45 2.6c-.1.5-.2 1.067-.3 1.7l.45.6c4-2.567 8.033-4.967 12.1-7.2 29.133-16.967 55.283-29.167 78.45-36.6 16.733-5.433 36.8-9.367 60.2-11.8 5.3-.633 10.867-1.15 16.7-1.55l8.9-.6c.3-.1.65-.15 1.05-.15l-2.45-5.35c-.1-.1-.2-.1-.3 0a40.407 40.407 0 0 0-1.7-3.4"
     id="path55" />
  <path
     fill="#3dff00"
     d="m211.7 169.6-.45.3q-29.75 27.6-39.55 58.2 36.3-20.35 68.05-31.25 25.25-8.7 64.95-13.3 8.25-1.1 17.3-1.85-.45-.9-.95-1.85-7.15-13.95-15.9-22.5-1.55-1.4-2.75-2.75-18.85-17.15-48.25-26.05-27.9-8.6-59-7.95-26.95.45-52.85 8.1-4.45 1.2-8.7 2.75-27.9 9.5-54.4 27.45-9.35 6.1-17.6 13-2.3 1.85-4.6 3.85-6.6 5.5-12.6 11.45-10.7 10.6-19.75 22.55-.9 1.2-1.85 2.45-1.35 1.65-2.45 3.35-1.65 2.3-3.2 4.6-7.05 20.85-6.9 47.05 27.9-25.3 75.05-51.65 47.2-26.35 82.9-39.2 35.7-12.9 39.5-12.25h.15q5.4-.5 10.6-.5l-4.3 3.85q-1.4.9-2.45 2.15"
     id="path56" />
  <path
     fill="#014b4b"
     d="m156.7 243.6-.15.9.6-.3-.45-.6"
     id="path57" />
  <path
     fill="#0000ff"
     d="m348.2 176.6 2.45 3.1c17.867 7.133 28.85 11.667 32.95 13.6.9.433 1.45.7 1.65.8.833.5 1.65 1.05 2.45 1.65 8.7 5.933 15.9 12.883 21.6 20.85a83.326 83.326 0 0 1 3.85 5.8c.1.2.25.517.45.95 4.8 8.167 2.542 19.175 4.475 29.275 0 .4-1.558 2.192 1.575.75 2.133 11.933 1.808 18.867-.225 30.3-1.233 6.867-4.983 12.917-7.75 19.65-.3.7.4 4.392.1 5.325-1.12 2.406-4.504.806-5.65 3.2l-12.25 23.45c-.533.933.274 3.506-.126 4.406-1.234 2.467.91 5.802-.524 8.569-1.1 1.833-1.467 3.642-2.6 5.675h-.15c-5.6-3.525-2.65-.875-2.65-.675-1.448 2.492-4.381 2.492-5.8 5-1.144 1.884-2.752 2.22-3.842 4.135-1.433 2.233-2.401 6.036-3.434 8.403C367.915 382.646 364.4 393.7 360 402.6c-7.533 17.967-14.117 40.367-14.25 56.7-.5 42.267 17.621 74.42 66.854 105.154-7.166.433-6.945-1.09-13.479-2.622-8.266-2.367-6.167-3.564-13.5-8.364-62.6-46.267-72.045-98.549-30.278-172.049 3.612 2.764-2.006-3.312-2.006-3.112 6.476-6.235 11.112-11.047 14.278-15.947 1.892-1.163-1.854-3.125-5.21-1.315.775-2.14-3.968-1.001-5.8-1.201-9.888-5.445-17.095-3.25-23.429-3.65 5.834-2.767 5.13-.816 9.93-4.183 2.307 2.309.8-.149 1.1-.349 7.367-5.633 15.986-11.494 24.653-20.794 5.878 1.18 5.218-7.09 7.451-10.156 3.667-5.433 13.305-13.825 16.072-20.358 1.133-2.733-.208-6.035.792-9.101 4.6-14.1 1.095-28.486 1.929-41.553.8-13.067-2.39-22.417-5.557-28.05-.4-1.133-.85-2.15-1.35-3.05-.633-1.033-1.2-2-1.7-2.9-1.433-2.367-2.917-4.517-4.45-6.45l-.15-.15c-.2-.4-.5-.767-.9-1.1v-.15c-.333-.3-.65-.6-.95-.9l-1.35 10.7c.2.333.45.7.75 1.1.5.9 2.233 5.233 5.2 13 2.867 7.667 1.65 23.55-3.65 47.65-3.267 14.8-8.783 27.367-16.55 37.7a79.095 79.095 0 0 1-17.3 16.7 169.261 169.261 0 0 1-7.05 4.9c-14.4 9.8-26.967 17.2-37.7 22.2l47.05 7.05a34.02 34.02 0 0 0-1.55 1.55c-1.933 2.533-3.617 5.083-5.05 7.65-4 6-7.483 12.117-10.45 18.35-17.033 35.533-18.2 72.667-3.5 111.4l1.55 3.65c.2.3.45.667.75 1.1 12.367 22.367 27.683 38.95 45.95 49.75 12.367 7.267 26 11.967 40.9 14.1 7.033 1.033 14.533 1.55 22.5 1.55.633-.1 1.25-.15 1.85-.15 1.933 0 4.033-.1 6.3-.3h.425c-.179-.005-.22-.055-.125-.15a.81.81 0 0 1-.15-.5h-.15c-4.1-2.133-7.883-4.317-11.35-6.55l.125.25c-.09-.167-.182-.25-.275-.25l-.15-.15c-.6-.433-1.217-.8-1.85-1.1-69.533-42.567-90.467-96.583-62.8-162.05 4.2-8.367 9.667-18.117 16.4-29.25a56.385 56.385 0 0 0 2.45-4.3 280.802 280.802 0 0 1 4.9-8 276.782 276.782 0 0 0 4.3-7.65c6.833-12.333 12.183-22.9 16.05-31.7a206.38 206.38 0 0 0 3.85-7.5l.3-.6a675.005 675.005 0 0 1 3.4-8.15c2.933-7.867 5.117-15.517 6.55-22.95l.15-1.25c1.867-9.6 2.283-18.783 1.25-27.55v-.75c-.733-7.767-2.367-15.183-4.9-22.25-1.833-4.6-5.467-11.483-10.9-20.65-.1-.2-.2-.367-.3-.5a107.386 107.386 0 0 0-4.3-7c-3.033-4.6-6.033-7.983-9-10.15a88.96 88.96 0 0 0-7.85-5.2 367.308 367.308 0 0 0-7.5-5.8l-.15-.15c-.5-.2-.9-.467-1.2-.8-.2-.1-.3-.2-.3-.3h-.15v-.15c-.733-.4-2.167-.65-4.3-.75.1.4.15.85.15 1.35a170.743 170.743 0 0 0-8.75-3.5c-12.367-4.4-20.483-5.733-24.35-4"
     id="path58" />
  <path
     fill="#3dff00"
     d="M387.7 195.75c-.8-.6-1.617-1.15-2.45-1.65-.2-.1-.75-.367-1.65-.8-4.1-1.933-15.083-6.467-32.95-13.6l29.4 27.25c.3.3.617.6.95.9v.15c.4.333.7.7.9 1.1l.15.15c1.533 1.933 3.017 4.083 4.45 6.45.5.9 1.067 1.867 1.7 2.9.5.9.95 1.917 1.35 3.05 3.167 5.633 4.35 14.983 3.55 28.05-.833 13.067-3.55 26.65-8.15 40.75-1 3.067-2.067 5.967-3.2 8.7-2.767 6.533-5.983 12.517-9.65 17.95a89.88 89.88 0 0 1-7.05 8.55c-8.667 9.3-16.683 16.767-24.05 22.4-.3.2-.6.45-.9.75-4.8 3.367-10.117 6.433-15.95 9.2 6.333.4 16.35 1.617 30.05 3.65 1.833.2 3.767.467 5.8.8.608.204.603.183 1.266.366-3.167 4.9-5.85 9.15-9.516 14.784 0-.2.05-.4.15-.6-41.767 73.5-31.35 133.383 31.25 179.65 7.333 4.8 15.133 8.383 23.4 10.75 6.533 1.533 13.383 2.083 20.55 1.65-49.233-30.733-73.6-67.233-73.1-109.5.133-16.333 3.967-33.483 11.5-51.45 4.4-8.9 10.017-19.267 16.85-31.1a49.246 49.246 0 0 1 3.7-6.9 233.1 233.1 0 0 1 3.35-5.7 751.393 751.393 0 0 1 4.3-7.5c.207-.295.254-.381.3-.45a209.964 209.964 0 0 1 3.35-5.8 615.546 615.546 0 0 0 4-7.85c.4-.9.867-1.817 1.4-2.75a14982.475 14982.475 0 0 1 11-22.95 742.433 742.433 0 0 0 3.4-7.2c.3-.933.6-1.75.9-2.45 2.767-6.733 4.767-13.533 6-20.4 2.033-11.433 1.983-23.117-.15-35.05-.133-.433-.2-.85-.2-1.25-1.933-10.1-5.3-19.233-10.1-27.4-.2-.433-.35-.75-.45-.95a83.326 83.326 0 0 0-3.85-5.8c-5.7-7.967-12.9-14.917-21.6-20.85"
     id="path59" />
  <path
     fill="#b10000"
     d="m 384.05,96.5 v 0.15 c -3.167,-3.967 -5.783,-6.667 -7.85,-8.1 -8.467,3.967 -18.517,14.083 -30.15,30.35 -9.1,12.667 -18.874,26.878 -25.208,43.911 -2.966,8.167 -2.592,18.406 -2.992,29.439 1.233,1.433 3.383,3.833 6.45,7.2 20,21.233 34.45,37.467 43.35,48.7 1.833,9.5 3.717,20.95 5.65,34.35 l 1.151,2.546 c 12.067,-11.767 22.086,-27.761 27.786,-44.295 3.366,-9.3 6.709,-22.926 9.175,-39.46 4.4,-29.432 -1.645,-56.791 -13.312,-81.791 -4.067,-8.8 -8.75,-16.467 -14.05,-23"
     id="path60"
     style="display:inline" />
  <path
     d="M 384.05,96.65 V 96.5 q 7.95,9.8 14.05,23 17.5,37.5 10.9,81.65 -3.7,24.8 -8.75,38.75 -8.55,24.8 -26.65,42.45 l -0.3,0.15 -3.05,2.9 q 10.1,-0.45 24.2,-18.25 7.65,-11.8 13.95,-26.8 3.35,-8.25 5.5,-16.7 2,-8.1 4.3,-21.15 6.75,-47 -11.8,-86.85 -6.75,-14.25 -15.5,-24.95 -7.8,-9.5 -12.55,-11.35 -1.7,-0.9 -3.2,-0.15 -15.35,5.05 -39.2,41.5 -14.55,22.25 -20.55,43.05 -5.8,21 2.45,28.5 0.6,-16.55 5.05,-28.8 9.5,-25.55 23.15,-44.55 17.45,-24.4 30.15,-30.35 3.1,2.15 7.85,8.1"
     id="path61"
     style="display:inline" />
  <path
     d="m 383.1,188.1 q 4.3,-30.45 -2.9,-47.6 1.85,20.35 -1.55,40.9 -3.8,22.8 -9.95,41.05 -2,5.95 -4.45,11.45 -0.3,0.95 -0.75,1.85 0.45,-0.6 1.05,-1.2 3.1,-3.7 5.7,-7.85 9.65,-15.45 12.85,-38.6"
     id="path62"
     style="display:inline" />
  <path
     fill="#b10000"
     d="m 215.82,432.64 c 21.187,-1.741 45.826,-7.108 75.112,-19.038 1.433,-8.805 -2.66,-15.255 -12.282,-19.35 -12.282,4.402 -25.434,6.757 -39.456,7.064 -11.566,0.205 -22.568,-0.972 -33.008,-3.532 -11.13,-2.83 -21.57,-7.335 -31.32,-13.515 -13.39,-11.932 -24.24,-22.272 -32.547,-31.022 -4.58,-4.78 -8.393,-9.08 -11.437,-12.9 0.162,-0.41 0.29,-0.87 0.384,-1.382 0.41,-3.174 -0.235,-6.253 -1.566,-7.584 -1.799,-0.089 -4.278,-1.348 -5.6,-1.209 -1.777,0.14 -3.133,0.38 -3.334,1.825 -0.413,-1.72 -3.77,-1.42 -2.358,0.81 -1.645,0.888 -2.526,3.834 -2.824,4.432 0.595,0.15 3.663,0.604 4.244,0.813 2.658,0.815 4.14,1.834 6.651,3.425 -0.272,2.083 1.148,1.045 1.967,1.659 1.842,1.331 1.693,0.11 2.308,0.93 l -0.704,-0.397 c -2.968,1.126 -2.184,-0.612 -7.2,-3.376 -1.793,-0.925 -5.205,-1.719 -6.38,-2.38 -1.378,2.391 -4.066,5.128 -5.86,7.292 -2.15,2.663 -3.648,3.476 -6.514,5.012 -1.228,0.614 -1.038,1.82 -2.368,2.332 l -1.87,-2.48 c -0.613,0.205 -0.646,2.39 -1.567,2.697 -1.228,0.41 -3.263,-2.16 -5.003,-1.648 -1.433,0.41 -2.193,2.666 -3.933,3.28 l -0.888,1.194 c -1.206,0.51 -3.581,3.262 -4.372,4.032 -1.082,3.907 -1.414,10.325 -0.075,15.581 1.843,7.27 8.634,14.362 17.436,19.993 9.417,6.143 23.952,10.187 38.281,12.133 0.511,-2.15 2.27,-2.962 3.805,-4.088 0.717,-0.615 0.015,-1.3 0.834,-1.504 2.456,-0.922 5.435,-0.768 9.12,0.46 l 0.336,0.644 c 3.365,-2.242 3.095,-3.865 9.108,-8.36 -4.708,4.3 -1.89,4.785 -2.198,9.904 -0.306,4.71 -3.587,0.87 -0.107,6.297 -4.708,-4.197 0.37,-13.457 -3.765,-3.651 1.091,-1.112 -3.296,-1.897 -1.409,-1.317 l 0.398,0.122 c -4.402,-1.535 -9.464,-2.238 -12.432,-0.089 -1.228,0.717 -2.446,2.251 -3.469,3.684 l 0.46,-1.04 c -0.922,1.126 -0.955,1.182 -1.569,2.923 -0.103,-0.717 1.631,-3.678 0.519,-1.354 l -0.214,-1.97 c -7.062,-0.512 -11.756,-2.972 -11.971,-0.401 -4.426,-3.03 -9.964,-0.339 -13.767,-1.2 -1.477,-3.306 -0.93,4.877 -0.748,4.99 13.033,8.107 28.89,13.963 42.98,17.938 14.124,3.993 31.95,5.07 51.09,4.148 2.455,-0.205 5.79,-0.266 8.348,-0.368"
     id="path63"
     style="display:inline" />
  <path
     d="m 226.759,436.331 q 45.904,-7.218 64.173,-22.73 -45.444,14.59 -77.223,17.202 -3.839,0.153 -7.523,0.46 -28.709,1.382 -49.896,-4.607 -21.134,-5.962 -40.684,-18.121 -0.273,-0.17 -0.537,-0.308 5.705,1.293 12.206,1.843 0.46,0 11.053,0.768 l -0.154,3.532 q 0.154,0.921 0.308,1.997 0.92,-2.612 2.303,-4.3 v -0.154 q 1.534,-2.15 3.377,-3.225 4.452,-3.225 11.054,-0.921 l 0.153,0.153 0.307,0.307 q 2.764,5.068 9.826,11.365 -5.22,-8.14 -4.76,-15.205 0.461,-7.678 7.524,-14.128 -11.361,2.61 -14.893,9.829 h -0.153 q -5.527,-1.844 -9.212,-0.461 -1.228,0.307 -2.302,1.229 -2.304,1.689 -3.07,4.914 -21.494,-2.918 -35.619,-12.133 -13.203,-8.446 -15.967,-19.35 -2.008,-7.884 -0.384,-13.745 1.186,-1.155 2.995,-1.92 h 0.153 q 2.61,-0.922 4.76,-1.535 2.61,-0.768 4.452,-1.383 l 2.302,-0.767 h 0.308 q 1.996,-0.768 3.837,-1.69 4.3,-2.303 7.524,-6.297 2.692,-3.246 4.758,-6.834 1.763,0.993 4.453,2.381 7.523,4.146 11.974,2.457 l -0.306,-0.153 q -0.922,-1.23 -3.685,-3.226 -1.228,-0.921 -2.61,-1.843 -3.767,-2.386 -7.753,-3.608 -0.872,-0.314 -1.765,-0.538 0.448,-0.897 2.916,-2.227 0.086,-0.04 0.155,-0.076 1.402,-0.79 4.067,-0.999 1.984,-0.21 4.683,-0.077 h 1.075 q -0.46,-2.15 -6.141,-2.918 -5.834,-0.768 -9.519,1.997 -3.377,2.61 -2.763,4.914 0.393,1.7 1.92,2.611 -1.546,1.22 -2.995,2.15 -0.921,0.614 -2.15,1.229 -2.763,1.535 -6.294,2.764 -0.614,0.154 -1.535,0.46 l -0.92,0.308 q -0.922,0.154 -1.997,0.46 -0.154,0 -0.307,0.155 -3.992,0.92 -10.593,2.917 -0.461,0 -0.615,0.154 -0.153,0 -0.306,0.154 -2.61,0.767 -4.606,1.842 -1.229,0.615 -2.303,1.536 -2.15,1.843 -3.224,4.3 -3.839,7.218 -0.154,17.508 0.117,0.01 0.231,0 1.381,4.487 4.221,9.368 3.685,4.607 7.524,9.675 7.202,7.62 17.962,11.748 -2.318,4.27 1.535,9.292 17.809,13.207 44.369,20.58 22.108,5.988 53.887,3.378 9.825,-0.922 20.573,-2.457"
     id="path64"
     style="display:inline" />
  <path
     d="m 121.747,363.23 q -1.842,8.292 -5.988,9.675 -4.298,0.767 -9.825,-1.383 5.988,6.911 11.668,6.298 5.373,-1.383 4.145,-14.59"
     id="path65"
     style="display:inline" />
</svg>
