<svg xmlns="http://www.w3.org/2000/svg" xmlns:xlink="http://www.w3.org/1999/xlink" id="svg65" width="311.907" height="304.66" version="1.1" viewBox="0 0 648.073 630.985">
  <defs id="defs4">
    <linearGradient id="linearGradient3">
      <stop id="stop5" offset="0" style="stop-color:#ff0000;stop-opacity:1"/>
      <stop id="stop6" offset="1" style="stop-color:#000000;stop-opacity:1"/>
    </linearGradient>
    <linearGradient id="b">
      <stop id="stop1" offset="0" stop-color="red"/>
      <stop id="stop2" offset="1"/>
    </linearGradient>
    <linearGradient id="a">
      <stop id="stop3" offset="0" stop-color="red"/>
      <stop id="stop4" offset="1"/>
    </linearGradient>
    <linearGradient xlink:href="#a" id="d" x1="204.706" x2="219.81" y1="377.276" y2="119.205" gradientTransform="matrix(.69274 0 0 .67885 -143.256 8.815)" gradientUnits="userSpaceOnUse"/>
    <linearGradient xlink:href="#b" id="c" x1="107.588" x2="104.124" y1="340.766" y2="120.022" gradientTransform="matrix(.69274 0 0 .67885 -.008 0)" gradientUnits="userSpaceOnUse"/>
    <linearGradient xlink:href="#b" id="linearGradient1" x1="218.847" x2="224.577" y1="230.79" y2="230.79" gradientTransform="matrix(.62263 0 0 .75528 -.008 0)" gradientUnits="userSpaceOnUse"/>
    <linearGradient xlink:href="#a" id="linearGradient2" x1="207.112" x2="224.945" y1="179.242" y2="179.242" gradientTransform="matrix(.46832 0 0 1.3358 -12.907 -31.841)" gradientUnits="userSpaceOnUse"/>
    <linearGradient xlink:href="#linearGradient3" id="linearGradient6" x1="142.893" x2="166.563" y1="264.128" y2="116.086" gradientTransform="matrix(1 0 0 1.0051 0 -.841)" gradientUnits="userSpaceOnUse"/>
    <clipPath id="clipPath9" clipPathUnits="userSpaceOnUse"/>
  </defs>
  <path id="path8-8" fill="#ff00f1" fill-opacity="1" stroke-width="2.078" d="M610.932 193.166c-15.099-19.67-34.43-34.245-56.178-42.556-23.548-9.003-48.161-9.415-72.54-4.22-25.142 5.264-46.244 16.492-62.659 34.984-2.493 2.77-6.86 6-9.077 8.909-6.51 8.31-11.93 16.856-16.778 26.414-3.117 6.094-5.792 11.687-8.285 18.336-.831 2.078-2.178 5.294-2.87 7.441-7.688 22.994-12.424 45.607-10.83 68.878.138 1.663 1.844 1.801-.858 2.494l-1.48 2.337 10.57 15.428c1.845-11.714 7.048-58.585 21.454-89.059 45.699-32.14 66.54-57.858 117.446-39.504 5.194 1.94 6.84-1.428 7.532-1.013 21.332 13.506 26.803 27.583 31.998 54.178.138 1.04.83 2.078 1.039 3.117.484 2.77 5.021 4.181 5.298 7.09 1.316 13.09-1.013 25.782-3.09 41.712-.624 4.432 3.194 9.003 2.363 13.713-1.87 10.25-6.606 20.276-9.792 31.634-1.316 4.64.511 9.42-1.013 14.337l-2.649 5.61c-7.133 21.609-14.776 49.213-26.204 74.354 1.732.277 3.36.831 4.883 1.662 1.385.762 1.117 4.176 2.225 5.285 2.285 2.216 2.834 4.77 3.943 8.579.9 3.116 1.338 4.592 1.13 7.639-.484 6.372-2.613 10.39-7.946 16.554-.346.346-1.014 1.186-1.36 1.602-4.571 5.056-7.95 7.567-13.075 9.645-1.108.484.263-1.981-.845-1.704-3.394.97-6.34.673-9.942.396-4.364-.346-7.611-.685-11.213-2.486 1.031-3.973-.635-1.61-1.05-1.817l-2.473.723c-.138.692-3.272.501-3.342 1.263l1.837 3.605c-.762 5.056-.89 10.48-.752 15.535.208 9.766.574 20.237 4.037 27.925 1.663 3.81 2.949 7.158 5.511 10.413 9.212 11.982 23.972 20.723 39.14 23.286 15.791 2.632 32.568-1.625 43.719-11.667 11.012-9.904 19.219-24.374 20.396-37.534 1.524-16.553-4.086-29.678-12.605-35.704-8.172-5.68-18.519-7.26-28.284-4.559-1.04.277-3.398.807-4.506 1.223-1.801.692-4.508 2.189-6.101 3.02-.554 1.8-1.682 4.393-2.097 6.125-1.316 5.817-1.94 10.55-1.87 14.013.069 1.73.828 3.702 1.174 4.81.97 3.117 2.597 6.575 4.883 8.722 2.285 2.078 7.6 2.77 9.331 2.078 1.662-.762 4.61-2.426 6.272-5.543 1.663-3.116.782-.969.297-5.679 4.225 6.788 2.405 3.751.05 6.868-2.631 3.393-7.726 4.323-12.713 4.807-5.056.485-4.598-1.439-7.991-4.486-1.662-1.455-2.083-4.104-2.914-6.113-1.177-2.909-.766-3.709-.42-7.726.277-2.978 1.92-5.68 2.544-8.659.624-3.255.353-7.096 1.392-10.42 2.84-9.212 5.424-17.587 11.173-27.353 3.809-6.44 12.856-14.873 23.245-28.933 2.493-3.324 3.666-7.41 6.506-11.22 26.18-34.56 43.313-67.54 51.139-98.292 1.177-4.64 3.835-9.276 4.597-13.778 2.563-14.96 2.515-30.898.507-44.958-.277-2.078-.883-4.675-1.3-6.753-.138-.762-.47-2.108-.61-2.87-4.709-22.786-15.938-42.958-29.79-61.034" display="inline"/>
  <path id="path10-5" fill="#94008c" fill-opacity="1" stroke-width="2.078" d="M570.454 308.781c2.078-15.93 2.459-30.44 1.143-43.53a109.79 109.79 0 0 0-1.143-8.518 48.727 48.727 0 0 1-.52-3.117c-5.194-26.595-18.457-46.646-39.789-60.152-.693-.415-3.636-1.593-8.83-3.532-50.906-18.354-92.046-.9-123.42 52.36-14.407 30.474-21.298 58.905-20.674 85.293l6.648 7.584c-2.216-18.77 2.529-35.147 10.009-53.085 7.965-19.324 18.522-34.696 34.521-44.74 5.749-3.67 11.59-6.452 17.893-8.253 7.342-2.147 14.857-1.038 22.822-.623 15.791.832 26.79 5.307 36.209 16.18 3.74 4.294 4.664 9.302 7.366 14.289 1.454 2.77 1.025 6.16 2.203 9.07.692 1.8 3.875 2.293 4.499 4.232 2.562 8.242 2.295 16.166 2.502 25.793.07 3.81-.08 6.826-.357 10.428-.416 4.779.016 9.625-1.092 13.989a56.455 56.455 0 0 1-1.479 4.863c-3.186 9.28-6.68 16.57-13.329 23.703-1.662 1.801-3.669 2.602-5.47 4.057-2.839 2.285-4.187 5.257-7.165 6.712l-15.6-1.494c-4.363-3.324-4.877-3.277-3.561-7.57l7.375-7.33c-3.532 2.977-2.946 2.788-3.293 6.043-.277 3.186.843 6.782 3.267 8.582 3.394 2.632 10.037 2.46 14.054-.241 1.593-8.173 2.412-15.403 2.274-19.213-.139-5.056-1.029-11.416-3.037-14.948-1.247-2.147-3.264-2.926-5.134-4.45-2.214-1.1-4.341-1.47-5.758-3.312-3.463-1.524-7.28-1.895-10.536-1.757-6.164.208-12.9 3.486-18.372 9.65-7.341 8.38-15.057 17.035-15.542 27.84-.415 8.518-.805 16.085 3.766 22.18 4.918 6.648 17.8 13.946 26.18 14.362 8.52.416 18.605-2.043 27.401-6.337 1.506 1.878.03-.662.377-.87 6.9-1.81 9.692-6.735 10.67-7.061-.334.334-1.802.853-1.802.9l-2.323 3.79c-.07 0 .045.344-.024.483-1.732 2.701-3.706 4.785-5.922 8.317-6.095 9.696-10.723 17.754-13.701 24.264-8.866 19.185-12.351 40.994-6.741 57.755.9 2.701 3.043 5.324 4.22 7.61.762 1.593 2.243 3.602 3.143 4.987 1.731 2.562 3.865 4.294 6.013 6.233.692.693 1.973.442 2.805 1.065 1.246.9 2.043 2.25 3.428 3.013 5.264 2.77 12.142 4.038 17.129 2.376 1.454-.485 4.436-2.216 5.96-3.117 2.216-1.385 4.952-3.06 7.168-5.415 8.658-9.28 10.71-21.69 7.454-29.31-.277-.623-2.112-2.54-2.389-3.025-3.047-5.956-8.354-7.385-14.103-6.623-2.632.346-7.112 3.575-10.713 7.87l5.688-7.441c.415-.208 2.225-.156 2.57-.364 1.317-.623 1.334-1.593 2.65-1.87 2.978-.623 5.507-1.55 8.139-.997 11.428-25.14 21.244-49.896 28.378-71.504l1.87-5.61a620.271 620.271 0 0 0 4.26-14.337c3.185-11.359 5.713-22.163 7.583-32.414.807-4.558 1.535-9.13 2.182-13.713" display="inline"/>
  <path id="path9-6" fill="#ff0000" fill-opacity="1" stroke-width="2.078" d="M554.559 153.467c21.747 8.311 40.17 22.302 55.269 41.971 13.852 18.077 23.132 38.509 27.842 61.295l.416 2.285a97.438 97.438 0 0 1 1.039 6.234c2.008 14.06 1.73 28.57-.832 43.53a173.427 173.427 0 0 1-2.908 13.712c-7.827 30.751-24.83 63.407-51.01 97.968a4600.034 4600.034 0 0 1-8 10.7c-10.388 14.06-17.487 24.31-21.297 30.751-5.748 9.766-10.042 19.254-12.882 28.466a89.551 89.551 0 0 0-2.493 9.87 79.566 79.566 0 0 0-1.35 8.934c-.347 4.017.069 7.48 1.246 10.389a13.868 13.868 0 0 0 3.74 5.194c3.394 3.047 7.618 4.329 12.674 3.844 4.987-.485 8.796-2.424 11.428-5.818 2.355-3.116 1.42-8.069-2.805-14.856.485 4.71-.104 8.623-1.766 11.74-1.662 3.116-3.324 5.055-4.987 5.817-1.731.693-3.74 0-6.025-2.077-2.286-2.147-3.913-4.78-4.883-7.896-.346-1.108-.554-2.528-.623-4.26-.07-3.462.554-8.103 1.87-13.92a87.27 87.27 0 0 1 1.454-5.299 49.108 49.108 0 0 1 5.09-2.285 34.525 34.525 0 0 1 3.221-1.04c9.766-2.7 18.735-1.211 26.907 4.468 8.52 6.025 12.017 17.315 10.493 33.868-1.177 13.159-7.272 24.69-18.284 34.595-11.151 10.042-24.622 13.748-40.413 11.116-15.168-2.563-27.357-9.835-36.569-21.817a48.27 48.27 0 0 1-6.337-10.597c-3.463-7.687-5.298-16.414-5.506-26.18-.15-5.871.322-11.76 1.247-17.557 0-.07.034-.173.103-.311.267.13 1.267.75 1.767 1.039 3.6 1.8 7.583 2.874 11.947 3.22 3.601.277 7.099-.07 10.493-1.039a21.007 21.007 0 0 0 3.324-1.143c5.125-2.077 9.973-5.644 14.544-10.7.347-.416.693-.797 1.04-1.143 5.332-6.164 8.241-12.432 8.726-18.804.208-3.047-.139-6.13-1.039-9.246-1.108-3.81-2.805-6.822-5.09-9.038a16.519 16.519 0 0 0-3.74-2.805 15.104 15.104 0 0 0-4.883-1.662c-2.632-.555-5.437-.52-8.415.103a17.763 17.763 0 0 0-3.948 1.35c-.346.209-.727.417-1.143.624-6.164 3.671-9.83 10.63-10.87 20.327l.194-.276c2.286-3.67 4.408-6.684 6.417-9.038 3.601-4.295 6.718-6.615 9.35-6.961 5.748-.762 10.146 1.835 13.194 7.792.277.484.554 1.039.83 1.662 3.256 7.618.555 16.068-8.103 25.349-2.216 2.355-4.432 4.225-6.648 5.61-1.524.9-3.013 1.593-4.468 2.078-4.986 1.662-10.112 1.108-15.375-1.663a38.07 38.07 0 0 1-3.948-2.493 21.285 21.285 0 0 1-2.286-1.974c-2.147-1.94-4.086-4.19-5.817-6.753a39.283 39.283 0 0 1-2.494-4.467c-1.177-2.285-2.216-4.779-3.116-7.48-5.61-16.76-3.983-34.733 4.882-53.918 2.979-6.51 7.515-14.614 13.61-24.31 2.216-3.532 4.19-6.65 5.922-9.35l3.012-4.78c0-.068.035-.138.104-.207l.96-1.38c-4.307 2.26-8.234 5.26-12.595 7.406-8.796 4.294-17.454 6.233-25.973 5.817-8.38-.415-15.029-3.947-19.946-10.596-4.571-6.095-6.65-13.402-6.234-21.92.485-10.805 4.398-20.398 11.74-28.778 5.471-6.164 11.289-9.35 17.453-9.558 3.255-.138 6.614.554 10.077 2.078.9.416 1.732.866 2.494 1.35a24.68 24.68 0 0 1 2.805 1.87 19.958 19.958 0 0 1 4.675 5.507c2.008 3.532 3.082 7.826 3.22 12.882.139 3.81-.588 9.8-2.181 17.973-4.017 2.7-7.723 2.735-11.116.104-2.425-1.801-3.498-4.295-3.221-7.48.346-3.256 2.286-6.372 5.818-9.35v-.104c-7.757 2.7-12.19 5.852-13.298 9.454-1.316 4.294.208 8.103 4.571 11.427 4.294 3.325 9.766 3.429 16.415.312-.082-.163 3.519-1.44 8.83-5.714a48.842 48.842 0 0 0 5.195-4.883c6.648-7.133 11.566-15.34 14.752-24.621a72.275 72.275 0 0 0 1.662-5.506c1.108-4.364 1.87-8.935 2.286-13.714.277-3.601.38-7.307.311-11.116-.208-9.627-1.593-18.561-4.155-26.803-.624-1.94-1.282-3.81-1.974-5.61a94.971 94.971 0 0 0-3.948-8.52 76.905 76.905 0 0 0-9.662-13.92c-9.419-10.874-22.024-16.726-37.815-17.557-7.965-.416-15.618.45-22.96 2.597-6.302 1.8-12.328 4.536-18.076 8.207-16 10.043-27.981 24.726-35.946 44.049-7.48 17.938-10.112 36.292-7.895 55.06l.207 1.663c.139 1.108 1.524 1.316 4.156.624 2.7-.624 3.982-1.559 3.844-2.805-1.247-9.627-.831-19.947 1.246-30.96a131.703 131.703 0 0 1 1.974-8.726l.831-2.701c3.74-13.506 9.385-25.488 16.934-35.946 7.134-9.904 15.099-17.21 23.895-21.92a69.595 69.595 0 0 1 6.13-2.805c12.743-4.848 26.11-4.156 40.1 2.078 10.043 4.501 18.077 12.19 24.103 23.063a81.733 81.733 0 0 1 3.116 6.545c.277.623.554 1.281.831 1.974a91.861 91.861 0 0 1 2.078 5.61c3.325 10.25 4.848 21.228 4.571 32.933l-.208 4.986a83.557 83.557 0 0 1-2.39 13.714 550.847 550.847 0 0 1-1.661 5.506c-2.217 6.51-5.299 12.813-9.246 18.907l-.208.416v-.52c.762-6.856-.07-13.124-2.493-18.803a2.31 2.31 0 0 0-.312-.728 21.001 21.001 0 0 0-2.91-4.779c-3.046-3.74-7.34-6.337-12.881-7.791a42.226 42.226 0 0 0-5.61-1.143 33.49 33.49 0 0 0-6.96-.104c-6.996.624-13.541 3.67-19.636 9.142-7.064 6.234-12.224 14.268-15.48 24.103-3.67 11.012-2.977 20.847 2.079 29.504 5.194 8.796 13.47 13.852 24.829 15.168 8.865.97 18.25-.52 28.154-4.467a11249.972 11249.972 0 0 0-10.181 15.998c-8.311 14.545-12.952 28.085-13.921 40.621-1.04 11.982.692 23.063 5.194 33.245a39.713 39.713 0 0 0 1.35 3.012c2.078 4.156 4.433 7.688 7.065 10.597.139.138.277.312.416.52a57.074 57.074 0 0 0-.728 3.324c-1.593 8.31-2.077 16.449-1.454 24.414 0 1.039.07 2.078.208 3.116.485 4.571 1.316 8.9 2.493 12.986 3.186 11.359 9.108 20.917 17.765 28.674 12.259 10.943 26.838 15.999 43.737 15.168 16.623-.832 30.786-7.03 42.49-18.597 10.32-10.25 15.861-23.582 16.623-39.997.762-18.007-5.887-29.677-19.947-35.01-7.826-2.978-15.721-3.671-23.686-2.078a49.478 49.478 0 0 0-8.52 2.493c3.118-8.519 7.515-17.453 13.195-26.803 1.8-2.978 4.051-6.441 6.753-10.389 4.501-6.51 10.18-14.267 17.037-23.271 11.22-14.822 19.185-26.007 23.895-33.556 14.544-23.618 24.587-46.577 30.128-68.878a241.758 241.758 0 0 0 2.908-13.714c2.494-14.821 2.944-29.331 1.35-43.53a358.805 358.805 0 0 0-1.142-8.518 172.49 172.49 0 0 0-4.675-19.22c-6.372-20.57-17.003-38.785-31.894-54.645-14.89-15.86-32.378-27.6-52.464-35.218-19.808-7.55-40.863-9.905-63.164-7.065-22.302 2.84-42.144 10.354-59.528 22.544-13.575 9.488-25.21 21.47-34.907 35.946a141.633 141.633 0 0 0-8.103 13.297c-3.186 5.887-6.13 12.086-8.831 18.596a194.001 194.001 0 0 0-7.376 21.298c-5.956 20.847-8.173 42.005-6.649 63.476.07 1.108.797 1.662 2.182 1.662.554 0 1.212-.104 1.974-.312 2.7-.692 3.982-1.87 3.844-3.532-1.593-23.271 1.454-46.404 9.142-69.398a98.39 98.39 0 0 1 2.285-6.337 183.349 183.349 0 0 1 8.415-19.115 162.702 162.702 0 0 1 17.038-26.804 135.37 135.37 0 0 1 7.065-8.519c16.414-18.492 37.192-30.37 62.333-35.634 24.379-5.194 48.343-3.29 71.89 5.714" display="inline"/>
  <path id="path4" fill="#ff0000" stroke-width=".686" d="M557.958 198.835c-22.076-7.83-45.352-10.115-69.828-6.857-24.477 3.259-46.298 11.507-65.464 24.744-18.542 12.763-33.967 28.84-46.275 48.233a178.08 174.51 0 0 0-12.088 22.47 171.565 168.126 0 0 0-9.56 27.357 161.268 158.035 0 0 0-2.736 12.05v.305a.72.72 0 0 0 .104.645c.07.204.242.373.52.51.138.067.392.135.761.203.139 0 .347.034.624.102.277-.068.635-.102 1.074-.102h.207c.139-.068.982-.102 2.529-.102 3.187-11.79 5.911-20.207 8.174-25.253 5.52-16.79 16.915-30.417 27.237-44.831 15.563-21.701 33.35-36.631 56.28-47.515 26.532-12.604 52.396-16.033 82.738-10.014 31.335 6.246 53.937 20.432 71.001 43.242 14.917 20.026 19.614 43.306 22.015 72.564 1.917 25.095-2.692 50.203-19.387 80.638-2.402 4.504-8.6 13.403-19.153 29.695-.208.204-3.44.93-3.578 1.223-8.497 13.102-12.463 24.633-16.065 33.503-8.197 20.388-6.117 42.45 5.543 52.837 5.889 5.273 16.74 7.272 27.13 8.177 8.567.679 18.384-4.075 27.505-6.36 1.755-.408-3.916 2.647-2 1.946-.692 1.312.897.763.182 2.166-7.159 11.292-15.064 13.784-25.94 18.785-10.899 4.978-21.092 8.548-38.364 7.439-.624-.068-1.537-.613-2.183-.68-7.622-2.723-21.988-1.37-27.737-2.003l6.43 4.288c5.519 3.032 11.846 5.983 18.959 6.562-.643.742-1.966 1.093-1.663.398 6.789.475 15.223-.003 21.365-.411 9.768-.701 18.75-2.466 26.948-5.295 13.093-4.526 23.922-13.09 32.49-25.695 2.54-3.756 5.264-8.44 8.174-14.052a627.875 627.875 0 0 0 1.905-3.835 486.371 476.62 0 0 1 2.216-4.48c-4.595 2.986-8.624 5.272-12.088 6.856a8.972 8.972 0 0 1-1.178.543c-14.916 6.72-29.453 7.343-43.607 1.867-9.676-3.756-15.045-11.145-16.107-22.165-.784-8.53.947-18.023 5.196-28.477 1.755-4.571 7.62-14.731 17.596-30.48.3-.34.554-.725.762-1.155 8.913-13.848 16.198-26.113 21.855-36.793 13.647-25.729 20.043-50.96 19.19-75.692-.901-25.728-8.118-49.16-21.649-70.295-13.855-21.859-33.875-37.46-60.06-46.806" display="inline"/>
  <path id="path5" fill="#ff00f1" stroke-width=".686" d="M605.41 241.161c-17.064-22.81-41.264-37.337-72.598-43.582-30.342-6.02-58.78-2.727-85.311 9.877-22.93 10.884-42.176 27.177-57.74 48.877-10.322 14.414-18.242 30.017-23.76 46.807-2.264 5.046-4.988 13.463-8.175 25.253l.52.102-1.04.543 3.707-.645a56.798 55.659 0 0 1 1.8-3.02 89.49 89.49 0 0 0 1.49-2.479c11.615-18.646 24.241-32.127 33.986-43.44 15.632-18.285 30.313-31.114 47.515-39.305 17.55-8.395 33.778-8.778 51.743-1.832 17.757 6.789 30.144 17.555 38.272 35.296 7.989 17.333 10.183 37.277 6.72 61.467-2.125 14.775-9.903 33.664-18.61 60.343l-1.18.919c-.14.226-1.136 10.513-7.994 29.77-.415.973-.692 2.013-.97 2.986-4.04 11.315-6.08 21.227-7.928 29.192-6.072 25.502-4.236 48.205 5.092 64.294 4.735 8.327 10.123 15.602 17.836 21.553 1.709 1.313 6.128.73 7.975 1.929.208.136.45.305.728.509.784.068 1.593.17 2.424.305 5.75.634 12.262 1.256 19.535 1.867a505.338 505.338 0 0 1 1.905.204c17.272 1.108 31.359-.826 42.257-5.804 10.876-5.001 19.894-13.147 27.052-24.439a340.553 333.725 0 0 1 2.113-4.073 47.066 47.066 0 0 1-5.508 1.663c-9.121 2.286-17.964 3.089-26.532 2.41-10.39-.905-18.53-3.993-24.419-9.266-11.66-10.386-13.392-25.774-5.195-46.162 3.602-8.87 9.652-19.856 18.15-32.958.138-.294.311-.543.52-.747 10.552-16.292 17.029-26.69 19.43-31.193 16.696-30.435 24.085-58.2 22.168-83.294-2.402-29.259-11.06-53.901-25.978-73.927" display="inline"/>
  <path id="path6" fill="#0000ff" stroke-width=".686" d="M544.484 335.147c3.464-24.189 1.2-44.95-6.789-62.284-8.128-17.74-21.07-30.005-38.828-36.793-17.964-6.947-35.722-6.223-53.271 2.172-17.203 8.192-33.62 21.43-49.254 39.713-9.744 11.314-20.424 26.293-32.039 44.94a89.49 89.49 0 0 1-1.49 2.477 56.798 55.659 0 0 0-1.8 3.021l-3.707.645 1.04-.543-.52-.102c-1.547 0-2.39.034-2.529.102h-.207c-.439 0-.797.034-1.074.102a2.893 2.893 0 0 0-.624-.102c-.369-.068-.623-.136-.762-.204l2.563 2.716c6.928 4.774 11.73 5.668 14.41 2.681 2.632-2.964 12.827-10.794 30.584-23.488 17.688-12.695 36.426-18.453 56.216-17.277 22.93 1.403 34.255 14.652 33.978 39.747-.138 13.87-4.595 33.66-13.37 59.365-2.909 8.667-7.227 21.18-12.954 37.54a431.177 422.532 0 0 0-2.77 7.705c-5.935 17.809-10.034 33.196-12.297 46.162-2.124 12.061-1.593 23.952 1.594 35.673 3.186 11.994 8.774 22.527 16.764 31.6 13.508 15.547 32.893 24.315 58.155 26.306 21.636 1.743 40.698-1.753 57.186-10.488h.104c.438-.272.9-.543 1.385-.815l4.018-2.41c.161-.135.312-.237.45-.305.07-.068.964-.63 1.033-.63l-1.24-.117c-2.84-.34-5.565-.746-8.175-1.222a1119.252 1096.812 0 0 1-4.676-.848 140.838 138.014 0 0 1-11.36-2.92 233.51 228.828 0 0 1-4.78-1.459c-.907-.31-2.924-1.005-2.835-1.029-5.889-1.539-11.494-4.017-17.013-7.05a21.435 21.435 0 0 0-2.112-1.153 16.85 16.85 0 0 0-.728-.51 82.553 80.898 0 0 1-5.334-3.767c-7.712-5.951-13.936-13.09-18.67-21.418-9.328-16.088-10.956-36.883-4.883-62.386 1.848-7.965 4.792-17.604 8.832-28.919.277-.972.624-1.946 1.04-2.919 6.858-19.257 10.356-28.998 10.494-29.224v-.102c8.706-26.679 14.12-47.406 16.245-62.182M366.52 329.75c-.208 0-.52-.204-.935-.611l.104-.102.83.713" display="inline"/>
  <path id="path7" fill="#3dff00" stroke-width=".686" d="M490.693 239.056q-22.271-5.09-34.29-.61-31.728 11.846-53.272 36.827-16.106 18.499-37.442 53.765l.83.713q10.426-12.05 25.805-22.267 27.156-17.99 54.969-20.365 13.37-1.154 24.73 2.715 13.163 4.345 19.605 14.324 12.02 18.43 4.884 50.438-2.944 13.408-9.421 32.653-3.602 10.828-10.945 32.245-.208.713-3.499 10.081-1.905 5.397-4.78 13.645-5.091 14.663-7.62 24.54-7.343 28.784-1.385 49.794 5.195 18.091 17.595 31.193 13.058 13.645 31 18.533 20.47 5.498 41.703 3.19 12.954-1.425 23.242-5.6-18.878-3.632-34.291-11.948h-.104q-2.944-1.561-10.703-7.807h.104q-.97-.61-1.801-1.256-19.95-14.968-25.042-36.386-5.508-22.979 5.091-58.245 3.499-10.488 6.685-19.653 9.456-27.968 14.652-44.193 11.984-38.253 12.711-66.018 1.178-39-18.877-61.368-13.266-14.968-30.134-18.94" display="inline"/>
  <path id="path20-4" fill="#ff0000" d="m483.29 170.557-.155-.052q-53.085-8.045-93.136 40.88-44.299 54.075-33.14 133.654.153 1.084 1.038 1.818.902.758 2.026.727l18.025-.572.415-.051q.862-.142 1.455-.832.704-.833.57-1.973v-.26q1.956-34.766 18.7-55.892 31.789-39.786 72.204-10.441 13.95 10.237 18.388 29.764 4.756 21.17-3.273 45.97-7.824 24.084-20.05 40.102-15.814 20.82 1.247 35.166h.103q1.206.979 2.442 1.766-13.655 17.674-13.402 36.829.154 9.934.935 13.402v.051q2.31 11.117 6.545 15.532 5.024 5.552 12.26 2.857h-.053q4.363-1.517 7.74-5.09-2.477 44.55 15.064 54.333 6.917 4.108 12.103 2.545 1.556-.453 2.96-1.402.202-.16.416-.312l.156-.104.831-.779q.7-.642 1.35-1.35 6.138-7.281 4.312-21.557-.4-3.495-1.299-7.428.742 2.925 1.559 5.662 5.456 18.477 14.388 28.984 8.837 10.044 20.674 9.402 11.29-.168 12.779-13.038v-.052l-.052.052q1.155-9.094-4.883-31.738-16.313-61.481 27.894-110.433 9.793 3.174 17.973-3.377v-.052q15.126-11.866 20.362-34.854v-.052q4.313-18.937 2.234-54.127v-.155q-2.94-50.312-45.14-89.293-34.96-32.392-86.488-30.44 2.263-10.201-1.09-15.011v-.052q-3.412-5.728-16.986-8.727" style="display:inline;fill:#ff0000;fill-opacity:1;stroke-width:2.07778"/>
  <path id="path21-7" fill="#ff00f1" d="M495.082 196.166q.077-.339.156-.675 2.662-9.421.467-13.506v.052q-2.807-3.782-12.986-6.078-50.332-7.378-88.409 39.115-42.096 51.545-32.31 126.952l12.987-.416q2.335-35.515 19.687-57.243 35.023-43.84 79.63-11.168 15.785 11.403 20.778 33.297 5.095 22.519-3.48 48.88-8.093 24.968-20.778 41.555-12.377 16.286.052 27.478.052.05.104.104 2.04 1.523 4.207 2.338l.104.052q6.6 2.127 14.13-3.065v-.052q5.827-4.216 10.856-11.791 5.649-8.779 8.05-19.064l-.051-.104.052-.052q.723-3.017 1.143-6.077-.1-.339-.208-.675v-.052q-1.847-6.971 3.636-25.505-.208 17.214 1.662 24.57v.052q.611 2.269 1.559 4.051 4.172 7.958 15.583 5.039 11.116-3.04 12.155-18.492.96-14.804-6.233-45.4 12.907 29.852 11.739 46.23-1.28 19.576-15.843 23.064-13.62 3.48-19.947-4.415-2.564 10.833-8.57 20.154-5.619 8.397-12.156 13.038h-.052q-9.059 6.365-17.245 4.312-13.43 16.742-13.298 34.906.154 9.101.831 12.207v.052q1.908 9.053 5.143 12.727.663.683 1.402 1.09v.052q3.884 1.995 7.273.156 6.76-4.068 12.414-29.193-3.251 69.02 12.415 78.852 6.181 3.655 12-2.234 5.804-5.863 2.492-47.58 5.97 18.674 8.623 27.686l-.052.052q11.316 35.147 31.323 34.958 6.935-.386 7.843-8.675l.052-.051q.892-8.44-4.779-29.557-16.94-63.378 27.79-113.966-6.989-4.536-6.96-14.233-.043-8.664 9.61-26.128-4 19.95-4.104 26.596-.025 7.08 5.558 9.973.052.023.104.052.511.233 1.091.52h.052l.104.051q7.808 3.07 14.233-2.13h.052q13.794-10.972 18.596-32.1l.052.051q4.112-18.417 2.077-52.62l-.051-.26q-2.857-47.977-43.166-85.188-34.103-31.45-84.722-28.777-5.27 10.34-33.4 12.83 10.886 2.73 16.934 7.843 6.028 5.157 11.012 26.336-6.859-17.715-14.129-23.53-8.944-6.945-34.595-12.104 44.396-2.732 49.711-15.167" style="display:inline;fill:#ff00f1;fill-opacity:1;stroke-width:2.07778"/>
  <path id="path22-3" fill="#ff0000" d="M575.492 275.9q1.775 8.361-1.402 12.155-3.16 3.788-6.338 3.065-3.143-.752-13.92-7.791 9.964 13.912 18.751 11.739 5.826-2.032 7.844-7.22l.311-.987q.075-.39.468-2.701.428-2.3-1.247-9.506-1.685-7.164-19.167-29.764 12.897 22.67 14.7 31.01" style="display:inline;fill:#ff0000;fill-opacity:1;stroke-width:2.07778"/>
  <path id="path9" fill="#800000" stroke-width=".686" d="M360.25 322.962c-4.733-6.743-9.502-11.721-14.304-14.934l-46.691 63.302v3.123c.23 9.322 2.471 18.544 6.72 27.663a74.284 72.795 0 0 0 2.944 5.804c2.61 5.725 5.368 10.93 8.278 15.614l.485 1.018.554.848c.07.114.139.272.208.476.07.18.173.373.312.577.069.113.138.26.207.44l.104.205c3.395 6.562 5.494 14.607 9.05 23.364 0 .113-1.046 1.33.497.86 2.425 6.042 4.167 10.414 6.407 14.08.346.882.357 2.275.819 3.022.785 3.349 1.171 7.094 1.748 10.466 3.372 19.483 3.204 37.775-.306 58.729-1.385 8.327-2.586 13.717-3.602 17.518-1.04 3.802-1.79 5.283-1.859 5.6-.092.294.493 3.272-1.193 6.62-.808 1.607-3.385 1.22-4.193 2.69-3.625 6.562-4.779 11.696-5.425 12.894-.716 1.222-.6 4.846-.046 7.018 1.27 1.494 3.69 4.4 5.884 4.67 4.687.544 10.283 1.128 14.623 1.173 3.303-.046 5.86.278 7.477.39 4.295-.226 6.642 1.248 9.99 1.338 7.39-.294 15.14-1.846 18.143-1.96 4.156-.43 7.554-4.033 12.75-4.259 2.1 0 4.099-.815 5.992-2.444 1.87-1.675 3.406-4.277 4.606-7.807 1.963-5.86 3.268-11.03 3.914-15.511.07-.294.116-1.279.139-2.953 0-1.697-.127-4.866-.381-9.504-.277-4.639-.542-9.572-.797-14.8-1.754-35.231-8.416-64.75-19.985-88.555a140.972 140.972 0 0 0-5.992-11.065l-.174.102c-.323-.973-.796-1.8-1.42-2.478v.102c-1.893-1.584-5.703-2.297-11.43-2.139.116 2.06.393 4.333.831 6.823-2.724-1.222-4.572-3.281-5.542-6.178a.542.53 0 0 0-.103.136c-.577-1.584-.82-3.462-.728-5.634 0-1.313.104-2.716.312-4.21l.173.069c.208-1.268.393-2.399.554-3.395 1.432-4.434 3.407-10.77 5.923-19.007a2771.66 2716.09 0 0 1 3.36-11.201c2.402-8.01 3.429-16.734 3.083-26.17-.231-7.06-1.155-13.645-2.771-19.754-1.34-5.182-2.54-9.187-3.602-12.016-1.571-4.163-3.418-7.75-5.542-10.76" display="inline"/>
  <path id="path10" fill="#474747" stroke-width=".686" d="m348.82 304.905-2.874 3.123q7.204 4.82 14.304 14.934 3.187 4.515 5.542 10.76 1.594 4.243 3.603 12.016 2.424 9.164 2.77 19.754.52 14.154-3.082 26.17-1.836 6.075-3.36 11.2-3.775 12.356-5.923 19.008-.242 1.494-.554 3.395l-.173-.068q-.312 2.24-.312 4.209-.138 3.258.728 5.634.034-.068.103-.136 1.455 4.345 5.542 6.178-.658-3.734-.83-6.823 8.59-.237 11.43 2.139v-.102q.934 1.018 1.42 2.478l.172-.102q3.187 5.295 5.993 11.065 17.353 35.708 19.985 88.556.381 7.84.797 14.799.38 6.958.38 9.504-.034 2.511-.138 2.953-.97 6.72-3.914 15.511-1.8 5.295-4.606 7.807-2.84 2.444-5.993 2.444-7.793.34-14.028.984-4.502.17-15.586.611-5.022-.136-11.465.204-2.425-.17-7.378-.102-6.511-.068-13.543-.882-3.29-.408-5.195-2.648-.831-3.258.242-5.091.97-1.8 6.408-11.643 1.212-2.206 2.425-4.616 2.528-5.023 2.667-5.464.104-.476 1.662-6.178 1.524-5.702 3.603-18.193 5.264-31.43.207-60.655-.866-5.058-2.043-10.081-.693-1.12-1.212-2.444-3.36-5.499-6.997-14.561-.104-.306-.104-.475-5.334-13.136-10.426-22.98l-.104-.203q-.104-.272-.207-.441-.208-.306-.312-.577-.104-.306-.208-.476l-.554-.848-.485-1.018q-4.364-7.027-8.278-15.614-1.628-2.885-2.944-5.804-6.374-13.679-6.72-27.663v-3.123q-3.706 11.812-2.148 21.282 1.594 9.436 7.447 20.128 1.94 3.496 3.88 6.754 1.247 2.92 3.013 6.178v.102l.104.101q5.611 10.692 11.88 26v.068l.104.102v.102q3.291 8.18 6.374 13.713.762 2.376 1.94 4.412 10.148 44.838-4.92 95.039l-.034.034q-4.433 9.097-9.525 17.073-2.009 4.04-.104 9.3.831 2.308 2.355 3.496 4.607 3.259 10.01 3.428 5.716.476 11.119.645 5.161.238 11.361.068 3.706 0 10.322-.237 3.22 0 9.456-.442l17.976-1.12 4.122-.882q5.542-1.867 8.486-6.381 2.91-4.515 4.572-9.674 2.113-6.619 3.152-15.07.208-1.731.208-2.885-.035-1.188-.035-2.648-.034-1.46-.173-3.021-.208-75.963-27.12-120.835-.659-1.595-1.733-2.817-.346-.679-1.004-1.018-3.845-3.768-15.032-3.598.173-4.956 1.454-10.522 3.81-11.982 7.62-25.118 3.499-12.185 3.81-25.796.208-13.068-2.528-23.352-4.156-15.512-10.737-24.677-7.724-10.793-16.107-14.357" display="inline"/>
  <path id="path8" fill="#b10000" stroke-width=".686" d="M218.17 411.382c-.323-.068-.6-.08-.831-.034 4.364 19.641 3.062 41.478.613 65.51-.392 3.733.4 7.5-.131 11.346l-.574-.058c-1.062 7.309-2.45 14.637-4.066 22.082-4.183 11.851-6.143 24.043-10.208 36.284-1.824 5.477-3.59 9.723-5.691 15.244l-.999 2.983c-.416 1.04-.733 1.867-1.149 2.862-1.13 2.715-2.84 5.476-3.949 7.897-1.501 3.146-2.29 5.464-3.746 8.111-3.394 6.11-5.895 9.42-6.518 10.506-.693 1.176-1.057 5.424-.502 7.347 1.224 1.334 4.447 3.634 6.525 3.815 4.457.34 9.834.079 13.967-.012 3.163-.18 4.905.148 6.407.216 4.087-.362 8.325-.747 11.534-.77 7.043-.52 11.002-1.46 13.842-1.664 3.972-.543 8.625-2.923 13.567-3.284 1.962-.068 3.856-.883 5.68-2.444 1.778-1.584 3.221-4.005 4.33-7.264 1.685-4.933 2.828-9.323 3.429-13.17l.415.034c.139-1.04.277-2.07.416-3.088.116-.883.23-1.731.346-2.546a507.705 507.705 0 0 0 1.594-13.679c1.616-15.75 2.39-30.808 2.32-45.177a347.579 340.61 0 0 0-.38-14.562 312.28 306.018 0 0 0-.243-4.548 2.14 2.098 0 0 1 .034-.645l.035-.102a2.132 2.089 0 0 1 .173-.645c-.07-4.978-.242-9.91-.52-14.798-1.316-23.918-5.172-46.637-11.568-68.157v-.271c.161-.226.404-.396.727-.51v-.101a5.29 5.29 0 0 0-.831.237 22.168 21.723 0 0 0-.312-.916 6.789 6.789 0 0 1-.069.984c-11.084 2.716-22.652 3.315-34.706 1.8.346.474.693.87 1.039 1.187" display="inline"/>
  <path id="path11" fill="#000000" stroke-width=".686" d="M217.062 411.382c-.693.114-1.27.464-1.732 1.052 2.194 25.321 1.501 50.088-2.078 74.3a2.883 2.825 0 0 0-.312 1.019c-3.81 25.615-11.072 51.91-21.787 78.882a2.485 2.435 0 0 0-.242 1.188c-3.972 9.594-8.533 18.351-13.682 26.271-1.247 2.49-1.259 5.318-.034 8.486.531 1.38 1.304 2.41 2.32 3.089 2.887 1.9 6.05 2.828 9.49 2.783 3.603.158 7.136.226 10.6.204 3.256.022 6.846-.08 10.772-.306 2.378-.068 5.657-.26 9.837-.577 2.031-.045 5.022-.283 8.97-.713l17.077-1.561 3.948-.984c3.533-1.268 6.212-3.293 8.036-6.076a40.236 39.43 0 0 0 4.33-8.995c1.016-3.19 1.824-6.698 2.424-10.522a3.404 3.336 0 0 0 .624-1.426c4.133-29.212 5.564-56.254 4.295-81.122v-.645a34.7 34.7 0 0 0-.174-4.14c.3-28.24-4.687-56.142-14.963-83.703-.577-.09-1.096-.034-1.558.17-.114.022-.171.068-.174.136-.323.113-.566.283-.727.509v.271c6.396 21.52 10.253 44.239 11.569 68.157a346.706 346.706 0 0 1 .52 14.799 2.134 2.09 0 0 0-.174.644l-.035.102a2.14 2.098 0 0 0-.034.645 312.28 306.018 0 0 1 .242 4.548c.231 4.775.358 9.629.381 14.562.07 14.369-.704 29.428-2.32 45.177a528.222 517.631 0 0 1-1.594 13.679 240.258 240.258 0 0 0-.346 2.546c-.139 1.018-.277 2.048-.416 3.088l-.415-.033c-.6 3.847-1.744 8.236-3.43 13.17-1.108 3.258-2.55 5.68-4.329 7.263-1.824 1.561-3.718 2.376-5.68 2.444-4.942.361-9.399.814-13.37 1.357-2.84.204-7.782.566-14.825 1.087-3.21.022-6.858.215-10.945.577-1.501-.068-3.833-.012-6.997.17-4.133.09-8.428-.035-12.885-.374-2.078-.181-3.729-.939-4.953-2.274-.554-1.923-.485-3.474.208-4.65.624-1.086 2.633-4.684 6.027-10.794a171.524 171.524 0 0 0 4.433-8.69 251.782 246.734 0 0 0 4.607-10.759l.9-2.308a430.417 421.787 0 0 0 5.889-16.496c4.064-12.242 7.4-24.337 10.01-36.285a336.476 329.73 0 0 0 4.018-22.13c.607-3.778 1.392-7.535 1.836-11.337 2.447-24.031 1.49-45.868-2.875-65.509-.07 0-.162.012-.277.034" display="inline"/>
  <path id="path12" stroke-width=".686" d="M256.548 122.193h.104c-13.347-13.871-30.019-20.807-50.016-20.807-19.859 0-37.188 6.97-51.99 20.909-14.917 13.87-22.895 30.582-23.934 50.133-1.109 18.396 4.318 34.35 16.28 47.858a1021.657 1001.173 0 0 0 2.112 2.207 146.507 143.57 0 0 1 7.308 7.705 288.472 288.472 0 0 1 5.612 6.652c8.959 11.79 14.386 24.065 16.279 36.828a78.59 78.59 0 0 1-.277 15.817 79.16 77.572 0 0 1-.45 3.937c-5.265 27.54-5.023 52.86.727 75.963v.102c8.013 31.906 26.659 53.064 55.939 63.473l2.978 1.052c10.09 4.247 21.117 5.818 32.005 6.788 3.325.272 6.685.408 10.08.408h5.09c23.277-1.947 39.129-4.752 47.557-8.418 8.914-3.87 18.392-8.96 28.437-15.274 11.245-7.15 19.8-13.803 25.666-19.958 7.297-7.626 12.712-15.636 16.245-24.032 6.304-15.116 6.627-31.476.97-49.08-5.242-16.428-15.899-27.663-31.97-33.705-13.509-5.137-28.287-5.86-44.336-2.172-8.567 2.014-17.583 5.894-27.05 11.642-5.174 3.123-9.457 5.612-12.851 7.467l-2.979 1.256a66.305 64.976 0 0 1-8.936 2.885c-.762-7.241-1.651-17.356-2.667-30.344-2.032-26.634-1.582-59.581 1.35-98.84a86.451 86.451 0 0 0 1.213-10.32c1.039-19.55-5.126-36.261-18.496-50.132" display="inline"/>
  <path id="path13" fill="#b10000" stroke-width=".686" d="M391.909 317.362c-6.247-12.575-16.69-21.077-22.327-4.456l-38.669 57.711c-.822 33.704 21.664 61.224 30.305 92.61 13.844 26.76 10.603 59.527 7.761 88.58-1.749 20.425-8.859 36.704-18.476 54.618 6.965 18.593 48.975 8.293 66.754 9.806 27.328 3.28 21.808-36.63 19.598-54.86-1.952-41.126-8.801-84.637-28.48-120.614-5.42-3.83-18.178-7.817-13.297 1.324-.738-17.21 6.467-31.723 8.112-49.37 6.14-24.879.892-52.615-11.281-75.35zm-94.836 96.803c-9.218 11.051-47.23-7.332-37.134 12.1 13.708 56.288 3.212 114.358-16.21 168.198-8.645 14.882-25.887 40.563 3.71 34.15 20.206-3.476 55.963 8.38 70.158-7.772 9.775-38.284 5.529-83.921 1.912-122.728-2.954-28.263-10.652-57.013-20.77-83.645 2.395-1.657-2.472 1.989-1.666-.302zm-28.853-248.9c1.233-20.572-14.413-42.457-33.936-51.652-37.555-18.497-86.21 6.798-95.44 46.04-7 23.997 2.813 50.017 21.92 65.47 17.945 19.449 30.312 46.484 22.322 72.84-6.608 39.362-4.33 87.52 28.862 115.445 30.714 23.309 73.29 25.837 109.78 16.708 27.273-5.446 38.963-34.316 41.042-58.782 3.788 3.602.756 32.492-8.927 42.865 26.138-14.488 51.322-41.454 47.01-73.096-1.02-22.775-19.646-42.827-41.001-48.126-13.684-3.968-27.894-.229-34.972 1.56-.952.46-3.81 1.31-6.492 2.61-2.068 1.002-4.006 2.482-5.048 2.954-7.267 3.285-15.286 7.429-20.922 10.251-7.625 3.818-15.672 5.858-21.143 7.424-7.125-50.809-5.213-101.324-3.055-152.51z" display="inline"/>
  <path id="rect19" fill="#ffffff" stroke-width=".686" d="M108.824 144.17H224.4v114.667H108.824Z" style="display:inline"/>
  <path id="path14" stroke-width=".686" d="M212.767 235.798c-.139 0-.208.034-.208.102h.208v-.102m167.712 61.707-2.875 3.429c4.802 3.53 9.571 9.006 14.305 16.428 2.124 3.326 3.971 7.275 5.542 11.846 1.062 3.122 2.263 7.523 3.602 13.203 1.616 6.743 2.54 13.996 2.77 21.757.347 10.387-.68 19.98-3.082 28.783a3529.464 3458.7 0 0 0-3.36 12.321c-2.516 9.075-4.49 16.055-5.923 20.943l-.554 3.734-.173-.068a36.327 36.327 0 0 0-.312 4.582c-.092 2.421.15 4.492.728 6.212a.542.53 0 0 1 .104-.136c.947 3.19 2.793 5.465 5.541 6.822-.438-2.738-.715-5.238-.83-7.501 5.726-.181 9.536.6 11.43 2.342v-.102c.623.724 1.096 1.618 1.42 2.681l.173-.101a167.53 164.17 0 0 1 5.992 12.185c11.569 26.204 18.23 58.675 19.985 97.415a533.78 533.78 0 0 1 .485 17.65c.706 3.313.494 7.331.728 10.827a220.975 220.975 0 0 0-.139 1.256c-.646 4.978-1.962 10.76-3.948 17.345-1.201 3.847-2.737 6.709-4.607 8.587-1.893 1.788-3.891 2.682-5.992 2.682-5.196.226-9.872.577-14.028 1.052-3.002.136-8.198.373-15.587.713-3.348-.114-7.17-.046-11.465.203-1.616-.135-4.075-.17-7.377-.101-4.342-.068-8.856-.396-13.543-.985-2.194-.294-3.926-1.267-5.196-2.919-.554-2.398-.473-4.277.242-5.634.647-1.268 2.783-5.521 6.408-12.763a140.247 137.435 0 0 0 2.425-5.09c.322-.647.555-.94.874-1.664.132-.166.514-1.073.606-1.345.36-.815.471-1.257.702-2.05 2.447-9.367 4.364-18.622 5.75-27.764 3.51-23.036 3.58-45.268.208-66.697a203.681 199.598 0 0 0-2.044-11.1c-.485-.836-.9-1.73-1.247-2.68-2.217-4.051-4.537-9.403-6.962-16.056a1.644 1.644 0 0 1-.104-.509c-3.556-9.64-7.031-18.069-10.426-25.287l-.103-.203a3.902 3.902 0 0 0-.208-.51 2.551 2.551 0 0 1-.312-.61 3.454 3.454 0 0 0-.208-.544l-.554-.916a69.449 69.449 0 0 0-.554-1.256c-2.863-5.137-5.6-10.828-8.21-17.073a93.948 92.064 0 0 1-2.943-6.347c-4.249-10.07-6.49-20.218-6.72-30.447v-3.428c-2.47 8.667-3.186 16.462-2.147 23.387 1.062 6.924 3.544 14.312 7.447 22.164a276.341 276.341 0 0 0 3.879 7.4 85.566 85.566 0 0 0 3.013 6.822v.102l.104.135c3.741 7.83 7.701 17.357 11.88 28.58v.102l.105.102v.102c2.194 5.996 4.317 11.03 6.373 15.104.508 1.765 1.155 3.372 1.94 4.82 6.765 32.902 5.114 67.771-4.954 104.61-2.932 6.675-6.108 12.944-9.525 18.804-1.339 2.942-1.373 6.348-.104 10.217.555 1.697 1.34 2.987 2.356 3.87 3.07 2.398 6.407 3.654 10.01 3.767 3.81.34 7.516.566 11.118.679 3.44.158 7.227.192 11.361.102 2.471 0 5.911-.09 10.322-.272 2.147 0 5.3-.181 9.456-.543l17.976-1.154 4.122-1.018c3.694-1.335 6.524-3.666 8.486-6.992a47.74 47.74 0 0 0 4.572-10.658c1.408-4.865 2.46-10.387 3.152-16.564l.277-3.19c.023-.318.046-.623.07-.917a69.225 67.837 0 0 0-.347-5.295c-.139-55.734-9.19-100.085-27.155-133.054a11.89 11.89 0 0 0-1.663-2.953c-.023-.023-.034-.046-.034-.068a2.838 2.781 0 0 0-1.04-1.154c-2.563-2.716-7.562-4.017-14.997-3.904.115-3.62.6-7.479 1.454-11.574a1279.403 1253.752 0 0 0 7.62-27.663c2.333-8.939 3.603-18.397 3.81-28.376.14-9.572-.704-18.137-2.528-25.694-2.77-11.36-6.35-20.4-10.737-27.12-5.15-7.92-10.518-13.192-16.106-15.818m-81.882 117.373c-.137.023-.206.068-.208.136a1.922 1.922 0 0 0-.762.543c.023.068.046.17.07.306 8.982 23.533 15.147 48.345 18.495 74.435a369.196 369.196 0 0 1 1.732 16.259 4.668 4.575 0 0 0-.104.543l-.034.102a3.672 3.672 0 0 0 0 .712c.185 1.404.37 2.818.554 4.243a379.516 371.907 0 0 1 1.663 16.462c1.13 14.618 1.454 29.87.97 45.755a192.893 189.025 0 0 0-.105 3.632l-1.627 19.517a27.892 27.333 0 0 1-.104 1.357c-.416 4.209-1.398 9.006-2.944 14.392-1.017 3.53-2.483 6.155-4.4 7.874-1.939 1.675-4.04 2.546-6.303 2.614-5.658.34-10.738.78-15.24 1.324-3.234.226-8.88.577-16.938 1.052-3.649 0-7.805.17-12.47.509-1.754-.068-4.433-.034-8.035.102-4.733.068-9.675-.102-14.825-.51-2.401-.203-4.34-1.03-5.819-2.477-.784-2.15-.83-3.847-.138-5.091.623-1.177 2.644-5.08 6.061-11.71 1.478-2.852 2.944-5.997 4.4-9.437 1.662-3.982 3.313-8.35 4.952-13.101a9.06 9.06 0 0 1 .312-.849l6.408-21.35c3.302-12.173 5.911-24.212 7.828-36.114 1.316-8.147 2.592-15.96 3.24-23.97.157-.634.761-10.468.847-12.62.947-26.136-1.859-49.941-8.417-71.415-.07 0-.173.011-.312.034-.762.135-1.385.52-1.87 1.154 4.48 27.651 5.6 54.67 3.36 81.054a3.158 3.158 0 0 0-.208.95c-2.378 27.879-8.682 56.48-18.912 85.807-3.948 11.269-8.567 21.203-13.854 29.802-1.247 2.693-1.051 5.77.588 9.232.716 1.516 1.686 2.659 2.91 3.428 3.44 2.059 7.135 3.089 11.084 3.089a225.9 225.9 0 0 0 12.192.34c3.74.067 7.862-.012 12.365-.238 2.68-.068 6.42-.238 11.223-.51 2.332-.067 5.75-.305 10.252-.712l19.466-1.562 4.434-1.052c3.925-1.312 6.835-3.484 8.728-6.517a38.444 37.673 0 0 0 4.295-9.741c.878-3.394 1.755-7.795 2.632-13.204 2.471-32.064 1.975-61.73-1.489-88.997a46.713 45.776 0 0 0-.45-4.073c-1.824-30.865-9.721-61.424-23.692-91.678-.646-.114-1.247-.057-1.8.17" display="inline"/>
  <path id="path1-6" fill="url(#c)" d="M160.853 164.882a23.898 23.898 0 0 0-4.46.053c-.524.088-1.048.193-1.57.314-6.995 4.728-13.485 11.165-18.74 18.996-16.585 24.71-15.83 55.584 2.442 68.823 8.51 6.166 19.893 7.543 31.922 3.882 12.19-9.2 20.336-27.214 20.27-47.02-.085-24.389-12.86-43.658-29.864-45.048z" style="display:inline"/>
  <path id="path35" fill="#ffffff" fill-opacity=".297" stroke-width=".686" d="m170.267 230.401 9.422 2.546c3.001.905 5.01 1.448 6.026 1.63l.555.169h.034c0-.023.012-.046.035-.068l1.42-3.904c.9-2.602 1.422-5.313 1.976-8.006l-.036.098-18.828 1.516c-.138 1.947-.304 4.186-.604 6.02" display="inline"/>
  <path id="path36" fill="#ffffff" fill-opacity=".534" stroke-width=".686" d="m179.689 232.947-9.465-2.561c-.277 1.833-.603 3.625-1.065 5.344l11.334 10.794c2.632-3.778 4.368-8.09 5.776-11.778l-.554-.17c-1.016-.181-3.025-.724-6.027-1.63" display="inline"/>
  <path id="path1-7" fill="#010000" fill-opacity="1" stroke-width=".893" d="M151.037 180.425c-7.255-.702-15.174 3.842-20.643 12.55-11.024 22.677-7.383 48.416 7.937 60.034 4.098 3.108 9.048 4.43 14.065 5.158 9.956-4.932 17.628-19.075 19.195-35.541 2.07-21.963-7.132-40.857-20.554-42.201z" style="display:inline"/>
  <path id="path18" fill="#b10000" d="M178.81 81.385c-1.885-.03-3.796-.027-5.738.008-7.92.091-15.457.77-22.616 2.038l-.105 6.347c-5.727 1.018-11.21 2.454-16.452 4.31-11.315 3.914-22.236 9.91-32.766 17.99-4.687 3.642-9.469 7.978-14.341 13.002a43.524 43.524 0 0 0-4.574 5.734c-4.803 7.082-8.624 16.688-11.464 28.817-2.54 11.065-3.911 20.388-4.119 27.969-.277 7.49.147 15.975 1.278 25.456 1.063 9.482 2.405 16.417 4.022 20.807 1.64 4.412 2.906 7.648 3.806 9.707.855 1.923 1.283 3.68 1.283 5.263l7.76.033c5.24-.589 6.871-.69 4.885-.305 18.38 25.253 51.099 36.285 98.159 33.095 16.833-6.133 28.784-12.57 35.85-19.313 12.307-11.835 20.123-19.87 23.448-24.102 3.256-4.254 5.947-8.384 8.071-12.39 2.125-4.05 3.719-8.2 4.78-12.454 8.43-24.529 9.7-46.458 3.812-65.782a87.519 87.519 0 0 0-5.3-13.543c-.993-1.923-2.022-3.8-3.085-5.632l-.207-.207v-11.436a103.082 103.082 0 0 0-10.393-11.846c-15.716-15.253-37.714-23.11-65.993-23.566Zm3.584 74.853c6.31.128 12.293 1.925 17.442 5.617 18.307 13.125 19.124 45.235 2.54 69.82-16.584 24.585-45.544 34.07-63.85 20.944-18.308-13.124-19.028-43.888-2.444-68.473 11.92-17.67 30.184-28.236 46.312-27.908z" style="display:inline"/>
  <path id="path16" fill="#000000" stroke-width=".686" d="M389.691 300.864v-.102q-.935-6.585-5.68-10.998h-.139q-2.528-2.376-6.512-3.122h-.104q-4.225-.747-8.451-.408h-.104q-12.642 1.358-24.453 5.838-14.34 4.82-25.424 14.935l-.208.204-4.537 4.514 7.481.102q7.274.305 9.595 9.81 1.49 6.584-1.143 12.66 15.275 11.676.623 31.634l1.351 1.8q1.49 2.41 1.593 5.328.208 4.48-5.264 9.911-11.604 2.512-22.791-1.867-11.604-4.616-15.483-15.986v-.102q-4.642-12.864-1.074-26.136 3.602-13.373 11.915-24.54 5.161-6.89 10.98-12.966l.104-.102 2.113-2.206-6.339 2.919q-7.273 4.107-11.915 9.843-9.386 11.812-12.954 25.49-4.018 15.037 1.143 29.768 4.85 14.222 19.189 19.857 13.3 5.227 27.12 2.002.208 0 .416-.102 15.067-4.073 26.67-14.629 10.773-9.843 18.254-22.266 4.85-8.044 8.21-16.632v-.102q5.922-13.135 6.13-27.255v-.102q0-3.462-.312-6.992" display="inline"/>
  <path id="path17" fill="#b10000" stroke-width=".686" d="M369.428 292.48q-1.974.237-3.879.543l-31.866 21.214v.204q3.706 8.451 3.395 17.548l3.048 3.462 43.33-33.23q-.103-.34-.103-.746h.104q-.728-4.175-3.776-6.993v-.101q-1.49-1.154-3.602-1.562h.104q-3.36-.645-6.754-.34" display="inline"/>
  <path id="path20" fill="#b10000" stroke-width=".686" d="m346.36 296.655-.104.135q-12.677 4.175-21.648 11.371 5.3.51 7.932 3.971l27.71-18.193q-4.85-.61-13.89 2.716m31.728 36.182q5.368-12.015 5.576-24.981v-3.123l-42.291 32.483q.346.95.762 2.07 2.736 9.199.311 17.786l34.603-21.757q.52-1.222.935-2.376l.104-.102m-7.897 15.885h.104q2.84-4.921 5.264-9.945l-34.29 21.52-1.247 2.715q-.104.102-.104.204l-2.32 3.462q.31.848.519 1.663v.102h-.104q1.49 6.076-.208 11.303 8.313-3.768 15.275-10.149 10.045-9.198 17.11-20.875" display="inline"/>
  <path id="path21" fill="#b10000" stroke-width=".686" d="m331.986 367.73-1.35-1.799q14.65-19.958-.624-31.634 2.632-6.076 1.143-12.66-2.32-9.505-9.595-9.81l-7.481-.102 4.537-4.514-6.65-5.94-.104.102q-5.82 6.075-10.98 12.966-8.313 11.167-11.915 24.54-3.568 13.272 1.074 26.136v.102q3.88 11.37 15.482 15.986 11.188 4.38 22.792 1.867 5.472-5.43 5.264-9.91-.104-2.92-1.593-5.33" display="inline"/>
  <path id="path22" fill="#ffffff" stroke-width=".686" d="M77.094 140.776a152.763 149.7 0 0 1-.537-.679 107.525 105.37 0 0 0-5.438 12.915c-11.903 34.35 2.509 25.805 4.558 26.73 3.58 1.57 6.237 117.787 15.705-5.717-1.242-3.964-3.811-16.017-9.82-22.404-1.709-4.005-3.302-7.4-4.78-10.183l.312-.662" display="inline"/>
  <path id="path23" fill="#010000" stroke-width=".686" d="m71.171 149.177 1.697-4.073q-1.108-.475-10.148-5.125-8.452-4.006-8.867-2.818-.797 2.07 17.318 12.016" display="inline"/>
  <path id="path24" fill="url(#c)" stroke-width=".686" d="M67.236 159.328c-1.105 3.231-.022 6.703-.498 10.079.415-.204.83.144 1.292.03.904-.227 1.687-.134 2.595.035 1.297-1.604 3.1-2.779 5.118-2.272 2.563.634 4.976 2.852 7.24 6.653 2.216 3.711 3.613 7.931 4.19 12.66.554 4.685.127 8.464-1.281 11.337-.852 1.655-1.879 2.736-3.083 3.242.985-.305-2.24.893-1.47-.126.947 9.21 3.404 15.936 1.372 23.176-1.062 3.802-1.276 6.383-2.846 8.465.9-.565 1.778-1.301 2.632-2.206 0-.022.012-.045.035-.068l.156-.17c5.427-13.01 8.618-28.496 7.983-46.577-.237-5.853-2.257-12.39-4.468-19.491-2.54-5.479-5.6-9.003-9.178-10.573-2.05-.926-4.013-1.134-5.9-.548-.117.283-1.268-.604-1.376-.251l-.715 3.067" display="inline"/>
  <path id="path25" fill="#010000" stroke-width=".686" d="m76.557 140.097.537.68q-.156.333-.312.661 2.217 4.175 4.78 10.183 2.779 6.526 4.641 12.474 3.317 10.65 3.672 19.432.953 27.12-7.187 46.637-1.327 3.17-2.892 6.143 2.397-3.978 4.381-8.061 4.85-10.02 7.153-20.654 1.752-8.057 2.043-16.462.277-7.637-.762-15.139-2.494-19.856-13.439-39.203-.126.227-.26.458-11.656-14.135-12.556-13.118-1.285 1.453 10.201 15.97" display="inline"/>
  <path id="path26" fill="#010000" stroke-width=".686" d="m66.738 169.407-.035.237v.068q-.07.204-.07.408-.138.542-.207 1.12-.035.101-.035.17-.034.101-.034.203-.762 4.582-1.213 9.3-.866 9.232-.762 17.922l.07 3.971.069 1.358q.07 2.206.242 4.412l.139 1.833.07.611v.17l.761 6.652q.554 3.938 1.316 7.773 1.282 6.28 2.944 9.776h.035q2.425 1.391 4.988.746 2.736-.712 4.849-3.53 2.355-3.122 3.949-8.825 3.048-10.861 1.628-24.676-1.156 1.53-2.633 1.986-1.329.56-2.944.187-3.949-.985-7.24-6.585-3.359-5.702-4.19-12.729-.832-7.094 1.281-11.438.48-.978 1.057-1.68-1.362-.256-2.72.085-.692.17-1.315.475" display="inline"/>
  <path id="path27" stroke-width=".686" d="m150.351 89.778.104-6.348q-9.872 1.698-18.773 4.752-17.838 6.246-34.395 19.008-3.498 2.75-14.409 14.63-.554.678-1.073 1.187-9.664 10.692-15.587 29.666-6.061 19.28-5.542 41.206.554 21.927 4.364 36.624 3.81 14.561 9.56 18.397 2.425 1.493 2.425-.068 0-2.376-1.282-5.261-1.35-3.089-3.81-9.708-2.425-6.585-4.018-20.806-1.697-14.222-1.281-25.457.311-11.37 4.122-27.969 4.26-18.193 11.464-28.817 2.148-3.19 4.572-5.736 7.309-7.535 14.34-13 15.794-12.118 32.767-17.99 7.862-2.783 16.452-4.31" display="inline"/>
  <path id="path28" fill="#ffffff" stroke-width=".686" d="M75.397 207.796q-1.213-.34-2.044.712-.9 1.019-1.004 2.682-.104 1.799.692 3.258.763 1.426 1.975 1.731 1.108.272 2.043-.746.797-.985.97-2.784.035-1.73-.658-3.156-.831-1.46-1.974-1.698m-5.68-37.268q-2.114 4.344-1.282 11.438.831 7.026 4.19 12.729 3.291 5.6 7.24 6.585 1.615.374 2.944-.187 1.806-.76 3.083-3.242 2.113-4.31 1.281-11.336-.866-7.094-4.19-12.66-3.395-5.703-7.24-6.654-3.026-.76-4.97 1.647-.577.702-1.057 1.68" display="inline"/>
  <path id="path30" fill="#ffffff" stroke-width=".686" d="M82.497 230.401q-1.281 1.358-2.632 2.206-2.113 2.818-4.85 3.53-2.562.645-4.987-.746 3.74 7.908 9.352 1.323 1.663-3.122 3.117-6.313" display="inline"/>
  <path id="path31" fill="#030202" stroke-width=".686" d="m68.054 160.31.796-4.14q-17.734-3.938-17.976-1.562-.208 2.41 17.18 5.702" display="inline"/>
  <path id="path37" fill="#ffffff" stroke-width=".686" d="M125.1 217.164q.023-.564.053-1.12-1.01 9.782 1.056 19.007-.006.039-.017.068.492 1.492 1.09 2.953.92 2.27 2.044 4.31-4.849-11.098-4.225-25.218" display="inline"/>
  <path id="path2" fill="#010000" fill-opacity="1" d="M220.362 149.092c-1.247-.142-6.413 3.983-15.494 12.373-3.54-2.751-7.752-4.732-12.641-5.941-12.723-3.394-25.216-1.178-37.477 6.651-6.134 3.824-11.111 7.872-14.93 12.138-.404.456-.796.911-1.177 1.372a51.23 51.23 0 0 0-2.39 2.954c-3.631 4.81-6.76 10.592-9.387 17.345a35.826 35.826 0 0 0-1.802 5.296c-.993 3.462-1.626 7.238-1.903 11.334-.716 7.694-.01 14.619 2.114 20.774.521 1.446.826 2.025.918 1.733a.438.438 0 0 0 .016-.07c-1.377-6.15-2.15-12.551-1.055-19.008.513-5.24.969-9.93 3.416-17.218.837-2.18 1.969-4.194 3.036-6.262.076-.152.145-.248.22-.353 2.188-4.612 5.123-9.012 8.826-13.197 4.456-5.137 9.735-9.607 15.83-13.409l.033-.016c5.647-3.657 11.467-6.084 17.458-7.28 5.796-1.109 11.384-.894 16.764.645 6.304 1.81 11.432 4.965 15.38 9.468 5.82 6.585 8.403 15.773 7.756 27.563.995-.174 1.986-.371 2.979-.56 12.304-1.679 18.393-3.335 18.257-4.972-.198-1.574-6.25-1.359-18.152.646-.04-4.178-.477-8.121-1.315-11.83 14.437-5.636 21.42-9.183 20.953-10.64h.004c-.3-.838-4.09-.047-11.363 2.374-5.072 1.83-8.693 3.122-10.86 3.871-1.16-3.335-2.632-6.12-4.415-8.351a28.196 28.196 0 0 0-1.802-2.07c9.389-9.147 13.524-14.239 12.402-15.275a.329.329 0 0 0-.199-.085z" style="display:inline"/>
  <path id="path39" fill="#ffffff" stroke-width=".686" d="M152.706 231.555q.624-1.765-.104-3.632-.866-1.968-2.563-2.919-1.8-1.018-3.394-.407-1.697.51-2.32 2.172-.763 1.8.103 3.768.728 1.867 2.529 2.919 1.697.917 3.394.407 1.593-.543 2.355-2.308" display="inline"/>
  <path id="path44" fill="#ffffff" stroke-width=".686" d="M153.676 182.458q-.889.372-1.732.967-4.537 3.224-5.3 11.031-.726 7.671 2.876 15.478 3.498 7.705 9.317 11.031 4.598 2.497 8.503 1.001.985-.375 1.923-1 4.537-3.225 5.3-10.93.727-7.807-2.876-15.478-3.602-7.807-9.317-11.031-4.774-2.714-8.694-1.07" display="inline"/>
  <path id="path40" fill="#b10000" stroke-width=".686" d="m99.435 226.26-13.23-2.48-.101.195c-1.478 3.892-5.898 7.918-8.807 11.108-2.194 2.422-3.703 2.382-6.89 3.422l-1.18.477c-.415.136.444.374-.203.577-.416-1.067-1.885.068-2.462.271-.485.136-.877.544-1.455.68l-4.506 1.836-2.19-.613c-3.532 1.448-2.892 6.637-1.553 11.072 1.64 4.843 4.886 10.095 8.903 14.53 1.432 1.606 3.824 3.577 5.51 5.093.855.701 1.292 1.914 2.077 2.342.762.543 2.162.417 2.947.982 1.597 1.702 1.26 1.191 1.699 1.463 4.595-.611 10.12-1.685 13.237-3.903 4.156-2.92 4.89-4.717 5.397-12.615-.864 8.734.16 8.882-4.782 13.114-2.055 1.72-7.433 3.747-10.085 5.673 7.436 3.96 16.608 8.104 24.46 10.39 11.244 3.258 25.53 4.23 41.324 3.326.346 1.498.866-.239 1.35-.307l20.402-2.545c.994-.136 1.952-.385 3.014-.611 1.339-.272 2.343-.476 3.705-.747l19.087-4.89c2.47-.61 1.222-.62 3.763-1.389 1.061-5.974 1.674-11.839-5.115-14.736-6.789 2.218-13.936 3.564-21.44 4.04a101.52 101.52 0 0 1-6.477.203c-22.838 0-42.361-7.479-58.571-22.436-2.887-2.715-5.496-5.498-7.828-8.35V226.26" display="inline"/>
  <path id="path41" stroke-width=".686" d="M52.848 253.312h-.104c2.032 6.088 5.392 11.699 10.08 16.836 2.47 2.85 4.306 4.797 5.507 5.838 2.263 1.923 4.203 3.372 5.819 4.345a123.45 123.45 0 0 0 4.052 2.715c7.413 4.503 16.153 8.18 26.22 11.031 13.578 3.87 31.116 4.424 52.614 1.663 21.66-2.783 36.761-7.603 45.305-14.46a150.873 150.873 0 0 1-7.516 2.071l-18.462 4.48a1204.3 1204.3 0 0 0-4.052.815c-1.062.226-2.09.408-3.083.543l-20.055 2.478a9.783 9.783 0 0 1-1.35.102c-15.795.905-29.315-.271-40.56-3.53-7.851-2.286-15.495-5.408-22.93-9.368 3.556-1.109 6.362-2.523 8.417-4.243 4.941-4.231 6.28-10.85 4.018-19.856-.508 7.897-2.84 13.305-6.997 16.224-3.117 2.218-6.974 3.632-11.569 4.243a16.454 16.454 0 0 1-1.073-.713c-.772-.556-1.546-1.11-2.321-1.663a74.105 74.105 0 0 0-2.563-2.206 59.951 59.951 0 0 1-4.676-4.684c-4.018-4.435-6.846-9.074-8.486-13.917-1.34-4.435-.243-7.377 3.29-8.825h.104l3.395-.95a39.294 39.294 0 0 0 1.593-.407 66.594 66.594 0 0 0 1.49-.543 165.75 165.75 0 0 0 1.593-.51h.207c3.187-1.04 5.877-2.771 8.07-5.193 2.91-3.19 5.689-7.608 7.166-11.5.085-.249-.289-.174-.896 1.114-1.27 1.652-2.61 3.066-4.018 4.243a26.536 26.536 0 0 1-3.186 2.172c-.439.294-.936.577-1.49.849-1.27.633-2.724 1.222-4.364 1.765-.346.068-.74.17-1.178.305-.623.136-1.293.317-2.009.543-.069 0-.138.034-.207.102-.347.068-.74.17-1.178.305-1.686.34-3.729.86-6.13 1.562-.336.093-.618.17-.763.203-1.2.34-2.263.759-3.186 1.256a8.578 8.578 0 0 0-1.594 1.019c-1.062.769-1.835 1.708-2.32 2.817-1.848 2.987-2.056 6.63-.624 10.93" display="inline"/>
  <path id="path42" stroke-width=".686" d="M80.42 253.109q-2.98.509-6.79-.95 4.157 4.683 8.07 4.276 3.707-.95 2.876-9.877-1.282 5.6-4.157 6.55" display="inline"/>
  <path id="path43" fill="#ff0000" stroke-width=".686" d="M306.044 107.631C300.248 96.408 292.57 86.6 283.01 78.203c-6.65-5.748-14.213-10.839-22.687-15.274l-4.776 6.412c25.885 14.64 43.389 36.997 52.51 67.07.854 2.784 3.342 5.177 4.035 8.142 1.986 10.476-2.49 19.823-.206 29.687l1.224 5.282c-.208 4.729 1.774 9.228 1.289 13.934-.508 3.53-.094 6.134-.718 9.732-2.978.41-1.168 2.225-1.307 2.926-.277.974-2.391 1.67-2.668 3.05-.347 1.516-.774 2.595-1.282 4.677l-1.959-.138c-.623 1.946 3.307 5.35 2.73 7.093-.208 1.448-1.185 2.074-1.462 3.32-.717 2.647-2.016 6.477-3.656 11.252-.762 2.15-.1 3.785-.955 5.867-.716 1.72-2.4 3.057-3.092 4.732-1.27 2.85-3.934 4.25-5.296 7.079-3.463 6.788-6.375 12.8-10.693 19.476-12.446 17.536-15.42 40.964-9.901 60.922-2.626 1.696-1.244 1.352-1.244 1.488 5.866 21.157 18.6 37.609 31.347 53.675.854 1.403 3.082 2.308 6.685 2.715-20.667-29.733-31.45-55.1-32.351-76.099v-5.329c.554-7.128 3.382-15.376 8.486-24.744a487.657 487.657 0 0 0 6.027-9.877c.069-.204.173-.34.311-.407a174.984 171.476 0 0 0 2.46-4.379 576.153 564.601 0 0 0 7.62-14.663 16.354 16.354 0 0 1 .762-1.561 151.228 148.196 0 0 1 2.979-6.857 173.155 169.684 0 0 0 2.009-5.091c.207-.566.415-1.154.623-1.765 2.494-6.449 4.584-12.762 6.27-18.94 0-.271.034-.509.103-.713a111.304 109.072 0 0 0 1.905-5.634 99.67 99.67 0 0 0 1.49-5.499c0-.34.069-.69.207-1.052.3-1.244.555-2.455.762-3.632v-.305c.624-3.96 1.155-7.807 1.594-11.54.485-4.798.796-9.516.935-14.155v-4.582c-.07-13.713-1.974-26.848-5.715-39.407a137.598 137.598 0 0 0-11.361-27.46" display="inline"/>
  <path id="path45" fill="#ff00f1" stroke-width=".686" d="m256.375 109.193 7.343 15.919 1.35 1.256 4.884 7.467q.104.238.347.543 2.009 2.92 5.091 4.786 3.048 1.765 5.092 4.446 1.905 2.716 5.923 7.909 4.052 5.091 4.78 10.828.623 5.6 3.394 14.765v4.99q1.905 3.835-.623 11.54-2.564 7.705-4.365 13.101-1.8 5.397-2.632 6.959-.97 1.56-1.074 3.02-.208 1.46-3.394 7.502-3.187 5.906-6.477 12.558-3.29 6.45-5.404 8.86-2.147 2.273-3.29 5.09-1.178 2.716-4.676 8.52-3.602 5.635-7.863 15.817-27.917 68.225 7.655 90.457 35.434 22.266 37.235 23.08h4.572q-19.12-24.098-27.918-55.835 0-.203-.104-.407-8.278-29.937 10.392-56.242 6.477-10.013 11.672-20.196 2.044-4.243 3.949-8.52 1.039-2.511 2.113-5.091 1.281-3.123 2.424-6.347 2.46-7.162 3.533-11.133.416-1.867.728-4.04.866-2.613 1.8-5.532v-.102q.763-3.123 1.282-5.397.416-2.07.832-3.53.207-1.052.45-2.206.935-5.397 1.697-10.692.727-7.06 1.04-14.154V174.6q0-15.172-2.98-30.888-1.039-4.446-2.32-8.621-13.682-45.11-52.51-67.07l-3.948 41.172" display="inline"/>
  <path id="path49" fill="#ff0000" stroke-width=".686" d="M265.519 62.386c-5.173-3.055-8.394-4.888-9.664-5.499-18.889-8.53-41.807-14.074-68.754-16.631l-1.49-.102c-7.778-.537-15.542-1.27-23.241-2.512-19.95-3.326-33.748-10.262-41.391-20.807-3.187-4.502-5.669-10.114-7.447-16.835l-.104.95c-.138.34-.208.645-.208.917l-.415 17.582c.646 7.965 2.378 15.421 5.195 22.368 1.34 3.259 2.898 6.234 4.676 8.927-6.235.407-13.058 1.244-20.47 2.512-.993.135-1.952.305-2.875.509a79.865 79.865 0 0 0-5.958 1.256C77.117 58.822 61.946 65.679 47.86 75.59 36.685 83.51 27.448 92.98 20.151 104a93.843 91.962 0 0 0-3.602 5.702c-3.325 5.748-6.154 11.925-8.486 18.533a484.29 484.29 0 0 0-.832 2.885 81.254 81.254 0 0 0-1.593 5.193 245.019 240.106 0 0 0-1.074 4.684 15.858 15.858 0 0 0-.415 2.613c-.577 2.784-1.04 6.225-1.386 9.19l.23-.293 16.229-11.676c-.208-1.652-3.462-1.665-3.392-1.959.3-1.856 1.182-3.362 1.667-5.24l-1.101-.426c.485-2.082 3.621-5.176 4.268-7.121 0-.068 2.606.704-.018 1.116 2.54-7.83 5.696-13.603 10.938-21.161 3.671-5.408 7.377-9.994 12.341-15.2 13.3-13.938 28.392-24.794 49.682-30.406.208-.067 2.953 4.219 1.621.978 3.28 2.555 2.975.028 4.96-.379 11.358 3.73 17.15-3.087 24.724-3.29l1.593-.84c2.702-.068 7.947 1.08 10.349 1.284l-.111-3.03c-.994-.973-.559-4.02-1.39-5.06-2.77-3.463-5.01-6.436-6.789-11.437-.97-2.693 2.071 1.02 1.493-1.83 5.706 5.206 3.892 9.213 14.502 5.115 8.06 2.15 18.07 4.705 30.03 5.746 2.263.204 4.191 1.008 7.009 1.211.54 6.48 1.033 6.755 1.726 6.823.993.09 2.109-6.071 3.101-6.003l1.538 2.244c25.608 2.081 43.224 7.678 61.42 16.547 2.124 1.042 9.314 4.488 17.65 10.1 1.131-3.19 3.566-13.24-1.514-16.227" display="inline"/>
  <path id="path50" fill="#ff00f1" stroke-width=".686" d="M225.167 120.937c.715 1.675 1.432 2.647 2.147 2.919.693.204 1.79.792 3.29 1.765 1.548.905 8.048-6.687 19.501-22.776 11.477-16.088 18.589-26.486 21.337-31.193-8.336-5.612-13.566-8.938-15.69-9.979-18.197-8.87-40.099-14.346-65.707-16.428l-1.905-.203a133.33 133.33 0 0 1-2.979-.238 22.773 22.773 0 0 0-2.217-.102 438.472 438.472 0 0 1-7.62-.61c-11.961-1.042-21.971-2.637-30.03-4.787-9.075-2.421-16.58-5.748-22.514-9.979a59.118 59.118 0 0 0 2.32 8.316c1.779 5.001 4.053 9.232 6.824 12.695a33.97 33.29 0 0 0 2.736 3.02l-.623.51c-2.402-.204-4.953-.272-7.655-.204h-1.593c-7.574.204-16.06 1.38-25.458 3.53a94.177 94.177 0 0 0-6.062 1.46c-.138 0-.311.033-.52.101-21.29 5.612-38.585 15.388-51.885 29.327C35.899 93.285 31.58 98.59 27.91 104c-5.242 7.557-9.133 15.251-11.673 23.08-.07.068-.104.136-.104.204a70.803 69.384 0 0 0-1.697 6.042v.305a64.413 63.121 0 0 0-1.178 5.6c-.069.295 0 1.268.208 2.92a86.096 86.096 0 0 0 1.697-1.867c.37-.497.9-1.052 1.594-1.663.646-.701 1.962-2.195 3.948-4.48 1.986-2.354 4.676-4.99 8.07-7.91 3.326-2.828 5.9-5.079 7.725-6.754 1.847-1.651 4.006-3.348 6.477-5.091 2.401-1.743 7.643-5.351 15.725-10.828 8.058-5.476 16.713-9.09 24.98-12.19 8.29-3.122 14.944-4.779 20.948-6.317 5.935-1.517 14.842-3.01 27.31-3.712 12.447-.679 26.216.055 40.717 4.128 14.501 4.096 24.223 8.022 29.164 11.778 4.965 3.734 8.544 6.573 10.738 8.52 2.124 1.855 4.595 4.412 7.412 7.67 2.771 3.26 4.503 5.76 5.196 7.502" display="inline"/>
  <path id="path51-8" stroke-width=".686" d="m138.92 105.222-3.532-2.682q-20.886-20.297-30.55-29.564-4.018-3.937-6.165-6.008-.728-.746-1.143-1.154-8.175-7.06-14.444-11.438v-.102q-15.933-11.235-22.271-6.856-5.958 2.783.727 19.55 2.563 6.551 6.997 15.173 2.043 4.073 4.468 8.723 5.403 9.674 10.39 18.091 7.76 13.102 11.154 20.501 33.84-11.438 44.37-24.234" display="inline"/>
  <path id="path52-0" fill="#b10000" stroke-width=".686" d="M63.897 52.814q-1.835 1.358 4.122 14.154 2.217 4.888 5.611 11.337 7.032-4.175 7.863-11.337.312-2.919-.416-6.347-.866-.645-1.697-1.256h-.104q-11.465-8.01-15.379-6.55" display="inline"/>
  <path id="path53-2" fill="#b10000" stroke-width=".686" d="M83.606 62.488q.208 2.376.104 4.48-.935 8.316-9.006 13.204H74.6q1.801 3.734 4.122 7.807 4.884 9.13 9.767 17.14 14.028-7.704 13.37-26.407-.727-.746-1.385-1.255-5.404-5.194-7.309-6.857-.935-.848-1.697-1.46-.831-.916-2.217-2.172-2.25-1.866-5.645-4.48" display="inline"/>
  <path id="path54-0" fill="#b10000" stroke-width=".686" d="M89.46 106.987q8.278 13.746 9.767 16.02 21.856-5.295 31.416-16.53-17.111-16.53-26.532-25.592-.104 18.295-14.652 26.102" display="inline"/>
  <path id="path55" fill="#0000ff" stroke-width=".686" d="M228.665 120.53a73.714 73.714 0 0 0-4.018-6.45c-3.256-4.706-6.904-8.858-10.945-12.456a11.78 11.78 0 0 0-2.113-1.867c-9.698-7.92-22.606-13.611-38.724-17.073-14.224-3.123-28.622-4.13-43.192-3.021a160.952 160.952 0 0 0-31.104 5.532 81.425 81.425 0 0 0-5.923 1.867c-15.148 4.843-29.73 12.016-43.746 21.52a168.376 168.376 0 0 0-6.131 4.378 157.824 157.824 0 0 0-6.789 5.295 96.948 96.948 0 0 0-7.135 6.144 138.475 138.475 0 0 0-10.495 10.59 27.753 27.753 0 0 0-2.425 2.715C6.055 148.72 3.4 151.84 2.763 152.774c-.3 1.744-.623 4.164-.97 7.265-.346 3.19-.704 7.806-1.073 13.848-.416 5.952-.658 10.285-.728 13-.069.973.07 3.428.416 7.365 17.133-16.066 36.415-29.993 57.844-41.783 21.428-11.857 47.43-23.194 78.002-34.01-13.509 12.13-22.353 25.988-26.532 41.58-.07.158-.104.339-.104.543-.138.407-.277.86-.416 1.357 0 .136-.046.306-.138.51l-.312 1.764c-.07.34-.284 1.43-.354 1.86l.458-.298a143.198 143.198 0 0 1 8.382-4.888c20.182-11.518 38.297-19.8 54.346-24.846 11.591-3.688 25.492-6.359 41.702-8.01 3.672-.43 7.528-.78 11.569-1.052l6.165-.408c.208-.068.45-.102.728-.102l-1.697-3.631c-.07-.068-.139-.068-.208 0a27.215 27.215 0 0 0-1.178-2.308" display="inline"/>
  <path id="path56" fill="#3dff00" stroke-width=".686" d="m146.645 115.133-.312.203c-13.74 12.491-22.872 25.66-27.398 39.51 16.765-9.21 32.478-16.282 47.141-21.215 11.661-3.937 26.659-6.947 44.994-9.028 3.81-.498 7.804-.917 11.984-1.256a67.371 67.371 0 0 0-.658-1.256c-3.302-6.313-6.974-11.405-11.015-15.274a24.46 24.46 0 0 1-1.905-1.867c-8.705-7.762-19.847-13.656-33.424-17.684-12.885-3.892-26.51-5.691-40.872-5.397a139.303 139.303 0 0 0-36.611 5.499 74.32 74.32 0 0 0-6.027 1.867c-12.885 4.299-25.446 10.51-37.685 18.634a127.87 127.87 0 0 0-12.192 8.825 107.876 107.876 0 0 0-3.187 2.614 135.415 135.415 0 0 0-8.728 7.772 144.265 144.265 0 0 0-13.682 15.308 320.604 320.604 0 0 1-1.281 1.664 25.322 25.322 0 0 0-1.697 2.274 129.812 129.812 0 0 0-2.217 3.122c-3.256 9.436-4.85 20.083-4.78 31.94 12.885-11.45 30.215-23.137 51.99-35.062 21.798-11.925 40.94-20.796 57.428-26.611 16.487-5.838 25.254-7.997 27.285-8.345 2.74-.225 4.906-.622 7.525-.31l-2.979 2.613a7.448 7.448 0 0 0-1.697 1.46" display="inline"/>
  <path id="path58" fill="#0000ff" stroke-width=".686" d="m241.204 119.885 1.697 2.104c12.377 4.842 19.985 7.92 22.825 9.232.624.294 1.005.476 1.143.544.577.339 1.143.712 1.698 1.12 6.026 4.027 11.014 8.745 14.963 14.154a57.723 56.566 0 0 1 2.667 3.937c.07.136.173.35.312.645 3.325 5.544 1.76 13.017 3.1 19.873 0 .272-1.08 1.488 1.09.51 1.478 8.1 1.253 12.807-.155 20.568-.854 4.662-3.452 8.769-5.369 13.34-.208.475.277 2.981.07 3.615-.776 1.633-3.12.547-3.915 2.172l-8.486 15.919c-.369.633.19 2.38-.087 2.99-.855 1.676.63 3.94-.363 5.818-.762 1.244-1.016 2.472-1.801 3.852h-.104c-3.88-2.393-1.836-.594-1.836-.458-1.003 1.692-3.035 1.692-4.018 3.395-.792 1.279-1.906 1.507-2.661 2.807-.993 1.515-1.663 4.097-2.379 5.704-4.734 8.033-7.17 15.537-10.217 21.578-5.218 12.197-9.78 27.403-9.872 38.491-.346 28.693 12.207 50.52 46.313 71.384-4.964.294-4.811-.74-9.338-1.78-5.726-1.607-4.272-2.42-9.352-5.678-43.365-31.408-49.908-66.9-20.974-116.795 2.502 1.876-1.39-2.249-1.39-2.113 4.486-4.232 7.698-7.5 9.89-10.825 1.312-.79-1.283-2.122-3.608-.893.537-1.453-2.75-.68-4.018-.815-6.85-3.697-11.842-2.207-16.23-2.478 4.041-1.879 3.553-.554 6.879-2.84 1.598 1.568.554-.101.762-.237 5.103-3.824 11.074-7.802 17.078-14.116 4.072.801 3.614-4.813 5.161-6.894 2.54-3.688 9.217-9.385 11.134-13.82.785-1.855-.144-4.097.549-6.178 3.186-9.572.758-19.338 1.336-28.209.554-8.87-1.656-15.217-3.85-19.041-.277-.77-.588-1.46-.935-2.07a53.446 53.446 0 0 1-1.177-1.97 42.268 42.268 0 0 0-3.083-4.378l-.104-.102a2.35 2.35 0 0 0-.624-.747v-.101a17.282 17.282 0 0 1-.658-.611l-.935 7.263c.139.226.312.476.52.747.346.611 1.547 3.553 3.602 8.825 1.986 5.205 1.143 15.987-2.529 32.347-2.263 10.047-6.084 18.578-11.464 25.593a54.792 53.694 0 0 1-11.985 11.337 117.254 114.903 0 0 1-4.884 3.326c-9.975 6.653-18.68 11.676-26.116 15.07l32.594 4.786a23.567 23.094 0 0 0-1.074 1.053 43.592 43.592 0 0 0-3.498 5.193 99.207 99.207 0 0 0-7.24 12.457c-11.799 24.121-12.607 49.33-2.424 75.623l1.074 2.478c.138.204.311.453.52.747 8.566 15.184 19.176 26.441 31.83 33.773 8.567 4.933 18.012 8.123 28.333 9.571 4.872.702 10.068 1.053 15.587 1.053a8.374 8.374 0 0 1 1.282-.102c1.339 0 2.793-.068 4.364-.204h.294c-.124-.003-.152-.037-.086-.102a.561.55 0 0 1-.104-.34h-.104a98.88 98.88 0 0 1-7.863-4.446l.087.17c-.062-.113-.126-.17-.19-.17l-.105-.101a8.204 8.204 0 0 0-1.281-.747c-48.168-28.897-62.67-65.565-43.504-110.008 2.91-5.68 6.697-12.298 11.36-19.856a39.06 38.277 0 0 0 1.698-2.919 194.522 190.622 0 0 1 3.394-5.43 191.737 187.893 0 0 0 2.98-5.194c4.733-8.372 8.439-15.546 11.118-21.52a142.967 140.1 0 0 0 2.667-5.09l.208-.408a467.601 458.226 0 0 1 2.355-5.533c2.032-5.34 3.545-10.533 4.537-15.58l.104-.848c1.293-6.517 1.582-12.75.866-18.702v-.51c-.508-5.272-1.64-10.306-3.394-15.104-1.27-3.122-3.788-7.795-7.551-14.018a2.223 2.223 0 0 0-.208-.34 74.39 72.899 0 0 0-2.979-4.751c-2.1-3.123-4.18-5.42-6.234-6.89a61.626 60.39 0 0 0-5.438-3.53 254.448 249.346 0 0 0-5.196-3.938l-.104-.102a2.195 2.195 0 0 1-.831-.543c-.139-.068-.208-.136-.208-.203h-.104v-.102c-.508-.272-1.501-.442-2.979-.51.07.272.104.578.104.917a118.28 115.909 0 0 0-6.061-2.376c-8.567-2.987-14.19-3.892-16.868-2.715" display="inline"/>
  <path id="path59" fill="#3dff00" stroke-width=".686" d="M268.567 132.885a19.915 19.915 0 0 0-1.697-1.12c-.139-.068-.52-.25-1.143-.543-2.84-1.313-10.45-4.39-22.826-9.233l20.366 18.499c.208.203.428.407.658.61v.102c.278.226.485.476.624.747l.104.102a42.25 42.25 0 0 1 3.082 4.379c.347.61.74 1.267 1.178 1.968.347.611.658 1.302.935 2.07 2.194 3.825 3.014 10.172 2.46 19.042-.577 8.871-2.46 18.092-5.646 27.663a79.912 79.912 0 0 1-2.217 5.907c-1.917 4.435-4.145 8.497-6.685 12.185a62.263 61.015 0 0 1-4.884 5.804c-6.004 6.313-11.557 11.382-16.66 15.206a4.106 4.106 0 0 0-.624.51c-3.325 2.285-7.008 4.366-11.049 6.245 4.387.271 11.327 1.097 20.817 2.478 1.27.135 2.61.317 4.018.543.421.138.418.124.877.248-2.194 3.327-4.053 6.212-6.592 10.036a.88.88 0 0 1 .104-.407c-28.934 49.895-21.718 90.547 21.648 121.955a59.791 59.791 0 0 0 16.21 7.298c4.526 1.04 9.27 1.414 14.236 1.12-34.106-20.863-50.986-45.641-50.64-74.334.093-11.088 2.749-22.73 7.967-34.927 3.048-6.042 6.94-13.08 11.673-21.112a34.115 33.43 0 0 1 2.563-4.684 161.477 158.24 0 0 1 2.32-3.87 520.518 510.082 0 0 1 2.98-5.091c.143-.2.175-.259.207-.305a145.45 142.534 0 0 1 2.32-3.938 426.412 417.863 0 0 0 2.772-5.329c.277-.61.6-1.233.97-1.867a10378.925 10170.831 0 0 1 7.62-15.58 514.311 504 0 0 0 2.355-4.887c.208-.633.416-1.188.623-1.663 1.917-4.57 3.303-9.187 4.157-13.848 1.408-7.762 1.373-15.693-.104-23.794a2.84 2.84 0 0 1-.139-.849c-1.339-6.856-3.671-13.056-6.996-18.6a25.3 25.3 0 0 0-.312-.645 57.723 56.566 0 0 0-2.667-3.937c-3.949-5.409-8.936-10.127-14.963-14.154" display="inline"/>
  <path id="path91" fill="#ff00f1" fill-opacity="1" stroke-width="2.078" d="M228.403 76.915c-2.908-2.078-6.53-5.498-9.577-7.507l-5.834-3.249c-.831-.554-2.27-.798-3.033-1.283-6.233-3.81-11.467-6.813-17.354-9.93-54.507-26.734-104.322-24.935-147.609 4.847l.63-2.112c-.346.208-3.412 2.344-3.69 2.552l-5.002 3.732c-.9.693-3.477 2.671-4.238 3.364-1.87 1.523-2.604 3.449-4.405 5.042-4.502 4.71-7.713 8.111-10.553 12.96l.368-.748c-.277.485-1.473 4.035-1.75 4.59-7.826 17.037-9.661 31.384-1.28 46.898.346.485.818 4.127 1.234 4.68l4.038 1.87c1.73 2.01 2.373 3.971 4.312 5.703 1.731 1.523 4.485 3.368 6.424 4.614 13.921 8.935 35.108 11.443 57.132 4.586 14.96-7.895 23.636-19.446 24.19-29.142.138-2.147.114-5.798-.44-8.014-.415-1.455-2.806-4.046-3.499-5.57-3.74-5.056-8-8.439-12.778-10.517-4.571-1.939-10.327-2.379-15.798-1.686-10.597 1.247-17.415 6.243-16.168 12.615-1.4.048.303 1.45.441 1.935.416 2.424 1.745 2.74.221 3.156l-.104-.35c-.138.068-.147.627-.285.765-.208.07.008-1.779-.195-.026-.831-.069-.987.212-2.026-1.104v-.363c-.07-.208-.169-.156-.169-.364-.138-.692.117-1.156.117-1.779-.554-7.757 2.41-11.46 11.067-15.407 7.688-2.701 15.347-1.917 25.182 2.17 1.108.484 1.998 1.532 3.037 2.225 5.056 3.463 6.354 6.467 9.956 14.155-.252.576 4.456 2.84 4.663 3.395 3.048-.554 6.934-1.365 10.189-3.165 12.743-2.286 23.182-3.05 32.601-2.841l23.499-.216c29.227 1.593 54.385 4.51 59.221 6.637l.092-37.947c-4.155-3.463-6.35-6.305-10.99-9.63" display="inline"/>
  <path id="path90" fill="#ff0000" fill-opacity="1" stroke-width="2.078" d="M219.102 73.265a288.882 288.882 0 0 1 8.934 6.13 228.126 228.126 0 0 1 13.194 10.18v-8.83c-5.956-4.779-12.363-9.42-19.22-13.921a185.644 185.644 0 0 0-3.843-2.493l-11.532-6.857c-50.698-29.089-96.998-34.353-138.9-15.791l-9.038 4.57a34.034 34.034 0 0 0-3.116 1.663 191.067 191.067 0 0 0-8.935 5.402 28.319 28.319 0 0 0-2.39 1.559l-2.493 1.766a109.187 109.187 0 0 0-7.376 5.61c-4.848 3.948-9.73 8.38-14.648 13.298-2.84 3.393-5.125 6.545-6.857 9.453a32.2 32.2 0 0 0-1.558 2.598l-.104.104a8.231 8.231 0 0 0-.831 1.766L8.103 94.77c-1.593 4.71-2.32 9.696-2.181 14.96-.485 20.847 5.679 35.842 18.492 44.984a44.832 44.832 0 0 0 5.61 3.428 31.2 31.2 0 0 0 4.052 1.87l.207.104c18.839 6.995 36.292 7.342 52.36 1.039 4.017-1.593 8-3.601 11.948-6.025 10.388-9.212 16.518-18.874 18.388-28.985 26.595-8.312 67.597-8.312 123.004 0a63.178 63.178 0 0 1 1.247-3.948c-10.804-2.77-30.82-4.952-60.048-6.545-8.242-.485-15.86-.658-22.855-.52-9.42-.207-20.501.831-33.245 3.117-3.622 1.112-6.59 1.509-9.775 2.614-.208-.554-.094-.155-.302-.64-3.601-7.688-7.93-13.263-12.986-16.726a20.905 20.905 0 0 0-3.22-1.766c-9.836-4.087-18.597-4.78-26.285-2.078-8.657 3.948-12.709 9.8-12.155 17.557 0 .623.07 1.281.208 1.974 0 .208.035.416.104.623v.104c1.039 1.316 1.974 2.009 2.805 2.078.139 0 .312-.035.52-.104 2.105-.98 2.313-2.436 2.181-4.675a12.311 12.311 0 0 1-.311-1.35c-1.247-6.372 3.428-10.182 14.025-11.428 5.471-.693 10.492-.07 15.063 1.87 4.78 2.078 9.039 5.644 12.779 10.7a32.184 32.184 0 0 1 1.662 4.468c.554 2.216.762 4.398.623 6.545-.554 9.696-8.31 18.492-23.27 26.387-22.025 6.857-39.998 5.818-53.92-3.116a45.87 45.87 0 0 1-5.505-4.156 60.215 60.215 0 0 1-5.506-5.61l-1.559-1.87a83.463 83.463 0 0 1-1.142-1.558c-8.38-15.514-8.658-31.79-.832-48.828a31.88 31.88 0 0 1 .832-1.558v.103c2.84-4.848 6.51-9.627 11.012-14.336a178.148 178.148 0 0 1 5.506-4.675 39.625 39.625 0 0 1 2.493-2.078l5.922-4.467c.277-.208.589-.416.935-.624h.104c43.287-29.781 92.184-31.305 146.69-4.57 5.888 3.116 11.948 6.579 18.181 10.388a134.352 134.352 0 0 1 2.39 1.559l6.753 4.259" display="inline"/>
  <path id="path63" fill="#b10000" stroke-width=".686" d="M149.499 293.697c14.677-1.182 31.745-4.825 52.033-12.924.993-5.977-1.843-10.356-8.508-13.136-8.508 2.989-17.62 4.587-27.333 4.796-8.012.139-15.634-.66-22.866-2.398a75.446 75.446 0 0 1-21.696-9.175c-9.276-8.1-16.792-15.119-22.547-21.059-3.173-3.245-5.814-6.164-7.923-8.757a4.93 4.93 0 0 0 .266-.938c.284-2.155-.163-4.245-1.085-5.148-1.246-.06-2.963-.915-3.879-.821-1.23.095-2.17.258-2.31 1.239-.286-1.168-2.611-.964-1.633.55-1.14.602-1.75 2.602-1.956 3.008.412.102 2.537.41 2.94.552 1.841.553 2.868 1.245 4.607 2.325-.188 1.414.795.71 1.363 1.126 1.276.904 1.173.075 1.599.632l-.488-.27c-2.056.765-1.513-.415-4.988-2.292-1.242-.628-3.606-1.167-4.42-1.615-.954 1.623-2.816 3.48-4.059 4.95-1.49 1.808-2.527 2.36-4.512 3.402-.851.417-.72 1.236-1.64 1.583l-1.296-1.683c-.425.139-.448 1.622-1.086 1.83-.85.279-2.26-1.466-3.466-1.118-.992.278-1.519 1.81-2.724 2.227l-.615.81c-.836.346-2.48 2.215-3.029 2.737-.75 2.653-.98 7.01-.052 10.577 1.277 4.936 5.981 9.75 12.079 13.573 6.523 4.17 16.592 6.915 26.518 8.236.354-1.46 1.573-2.01 2.636-2.775.497-.418.01-.883.578-1.021 1.701-.626 3.765-.521 6.318.312l.233.437c2.33-1.522 2.144-2.623 6.309-5.675-3.261 2.92-2.87 2.973-3.084 6.448-6.804 1.785-.923.866 1.487 4.55-3.261-2.849.257-9.135-2.608-2.478.756-.755-2.283-1.288-.976-.894l.276.082c-3.05-1.042-6.556-1.519-8.612-.06-.851.487-1.695 1.528-2.403 2.501l.318-.706c-.638.764-.661.802-1.087 1.984-.071-.487 1.13-2.497.36-.919l-.148-1.337c-4.892-.348-8.144-2.018-8.293-.273-3.066-2.056-6.903-.23-9.537-.814-1.023-2.244-.644 3.31-.518 3.387 9.028 5.504 20.013 9.48 29.774 12.178 9.784 2.71 22.133 3.441 35.392 2.815 1.7-.139 4.01-.18 5.783-.25" display="inline"/>
  <path id="path64" stroke-width=".686" d="M157.077 296.203q31.8-4.9 44.455-15.43-31.48 9.904-53.495 11.677-2.66.104-5.212.312-19.888.938-34.565-3.127-14.64-4.048-28.183-12.302-.19-.115-.372-.209 3.952.878 8.455 1.251.32 0 7.657.522l-.106 2.398q.106.625.213 1.355.637-1.773 1.595-2.919v-.104q1.063-1.46 2.34-2.19 3.084-2.189 7.657-.625l.106.104.213.208q1.915 3.44 6.807 7.715-3.616-5.525-3.298-10.321.32-5.213 5.212-9.591-7.87 1.771-10.317 6.672h-.106q-3.828-1.252-6.38-.313-.852.209-1.596.835-1.596 1.146-2.126 3.335-14.89-1.98-24.675-8.236-9.146-5.734-11.06-13.136-1.392-5.352-.267-9.33.822-.785 2.075-1.304h.106q1.808-.626 3.297-1.042 1.808-.521 3.084-.939l1.595-.52h.213q1.383-.522 2.658-1.148 2.98-1.563 5.213-4.274 1.864-2.204 3.296-4.64 1.22.674 3.084 1.617 5.212 2.814 8.295 1.668l-.212-.104q-.638-.835-2.553-2.19-.85-.625-1.808-1.251-2.61-1.62-5.37-2.45-.604-.213-1.223-.365.31-.609 2.02-1.512.06-.027.107-.051.972-.537 2.818-.678 1.374-.143 3.244-.053h.745q-.32-1.46-4.255-1.98-4.041-.522-6.594 1.355-2.34 1.772-1.914 3.336.272 1.154 1.33 1.772-1.07.829-2.074 1.46-.638.417-1.49.834-1.914 1.042-4.36 1.877-.425.104-1.063.312l-.638.209q-.638.104-1.383.312-.107 0-.213.105-2.765.625-7.338 1.98-.32 0-.426.105-.106 0-.212.105-1.808.52-3.19 1.25-.852.418-1.596 1.043-1.49 1.25-2.233 2.919-2.66 4.9-.107 11.885.081.007.16 0 .957 3.046 2.924 6.36 2.553 3.127 5.212 6.568 4.99 5.172 12.443 7.975-1.606 2.898 1.063 6.307 12.337 8.966 30.736 13.971 15.316 4.065 37.33 2.293 6.806-.626 14.252-1.668" display="inline"/>
  <path id="path65" stroke-width=".686" d="M84.331 246.578q-1.276 5.63-4.148 6.568-2.977.52-6.806-.939 4.148 4.692 8.083 4.276 3.722-.94 2.871-9.905" display="inline"/>
  <path id="path93" fill="#ff00f1" fill-opacity="1" stroke-width="2.078" d="M293.278 171.726c-.415-3.879 1.579-10.917-2.415-10.779-1.732-7.618-3.905-16.622-7.298-23.894-4.571-9.766-11.09-19.8-18.778-28.803-.33-1.446-3.97-2.273-5.078-3.52l.318.682.968 1.747-1.065-1.461c-5.264-5.818-11.185-12.794-17.765-18.266l.046 62.972c3.81 2.632 6.399 4.565 9.239 7.543 1.593 1.731 2.623 2.2 4.008 4.07 2.493 3.602 3.95 7.044 5.196 11.061.208.693.278 1.466.486 2.228l1.012 1.961-1.031 1.317.162 1.629.792.321c0 .346.31 1.106.38 1.452.069.97-.769 1.205-.769 2.174 0 2.009-.012 3.398-.22 5.545-.208 1.731.445 3.486.03 5.356-.208.831-.6 1.938-.808 2.77-.97 3.6-2.056 6.239-3.718 10.117l-.633.99c-2.078 4.641-4.76 9.102-9.608 15.127-.97 1.247-1.136 2.666-2.245 3.982-.39-1.928.137.035.068.104-.138.138-2.443 1.22-2.582 1.428-4.086 3.74-8.523 7.389-11.363 10.298-13.574 13.92-20.795 28.361-22.18 42.283-1.039 9.419 1.126 18.752 4.935 23.323 3.116 3.809 8.224 6.337 12.726 7.584l2.052.285c1.87.416 3.151.165 4.883.026-1.05 1.564 1.696.805 2.39.805 2.354-.415 4.372-1.939 6.45-3.324l1.59-1.703-.114-.392c-.095.502.433.402.517.31 3.81-3.255 7.567-7.845 9.16-12.209 2.216-5.887 1.38-12.282.065-15.33-1.801-4.57-3.039-7.778-4.632-9.164-.97-.9-3.409-1.098-4.656-1.237-1.8-.207-3.935.208-6.22 1.247-.486.208-1.51.577-2.064.923-3.81 1.94-1.975 1.88-7.904 6.247 3.777-4.275.555-1.426 3.741-3.85 2.078-1.593 3.869-2.702 6.016-3.602a25.533 25.533 0 0 1 2.435-.98c.9-.347 1.285-.452 2.254-.59.831-.139 1.812.113 2.573.113 2.286-.208 3.445-.367 5.315.256 4.641 1.732 6.815 3.789 7.993 11.13.207 1.178-.205 2.963-.136 4.071.485 8.935-1.315 14.463-9.072 20.35-.83.624-1.524 1.304-2.355 1.858-.97.416-1.446.74-2.346 1.155-.554.208-2.405 1.552-2.89 1.83.346 4.155-.13 9.78 1.324 13.935.762 1.94 2.557 3.626 3.457 5.426 3.256 6.234 8.767 12.644 14.516 16.661 8.103 5.68 17.36 9.355 27.125 8.454 9.904-.97 19.844-6.158 26.424-13.638 7.826-8.935 10.781-21.085 8.773-30.85-1.247-6.303-2.681-12.31-5.313-15.635-1.455-1.94-4.33-2.577-6.2-3.616-.624-.346-2.05-3.722-2.998-2.371-2.701-.831-5.104-.982-7.666-.636-2.355.347-6.936 2.406-9.153 3.791-5.194 2.84-8.103 8.177-8.726 13.441-.347 2.909 1.437 7.85 3.515 10.689 2.91 4.086 8.416 4.262 12.571 1.353 4.086-2.91 6.01-6.015.262-13.634 5.203 5.853 5.371 3.751 5.094 7.422-.208 3.601-1.092 5.707-5.04 8.062-3.947 2.493-7.103 2.957-11.397 1.848-2.424-.623-3.037-1.54-4.63-3.272-1.8-1.94-3.865-3.853-4.766-7.038l-.324.026c-.07-.07.026-.433.026-.572-.139-.485.05-1.491-.02-2.045-3.67-12.536-4.876-24.743-3.422-39.218.91.06.49-.398.559-.468.762-3.463 2.151-4.458 2.22-4.805.277-2.424 1.308-3.55 1.792-5.973.9-4.502 2.775-14.657 6.792-28.648 1.732-6.094 4.035-13.315 6.39-21.14.207-.624.545-5.178.753-5.87.415-2.563.242-2.364.519-4.857 1.498-.407-1.065-2.373-1.065-2.65.9-8.38 1.844-16.163 1.013-24.128m-32.926-64.982-.299-.04.299-.454.136.818-.039-2.013" display="inline"/>
  <path id="path92" fill="#ff0000" fill-opacity="1" stroke-width="2.078" d="M295.564 161.467a112.654 112.654 0 0 0-6.96-22.336c-3.88-9.212-9.039-18.042-15.48-26.492a93.847 93.847 0 0 0-4.571-5.818c-7.48-8.934-16.276-17.453-26.388-25.556v8.83c6.58 5.471 12.501 11.116 17.765 16.934l.104.104a190.017 190.017 0 0 1 3.324 3.844c7.688 9.003 13.818 18.388 18.389 28.154 3.393 7.272 5.956 14.717 7.688 22.336.761 3.74 1.35 7.549 1.766 11.427.83 7.965.796 16.138-.104 24.518a3.41 3.41 0 0 1-.104.831 152.703 152.703 0 0 1-1.04 7.584 68.415 68.415 0 0 1-.622 1.974 1424.106 1424.106 0 0 0-6.13 20.882c-4.017 13.99-6.476 23.236-7.376 27.738a88.042 88.042 0 0 0-1.143 7.272c-3.296 16.124-2.59 31.395 1.825 46.473 1.188 4.44 3.464 8.237 4.616 9.627 1.593 1.732 3.602 2.91 6.026 3.533 4.294 1.108 8.415.415 12.363-2.078 3.948-2.355 6.025-5.333 6.233-8.935.277-3.67-3.013-7.445-9.87-11.324 5.75 7.619 6.58 12.883 2.494 15.792-4.156 2.908-7.688 2.32-10.597-1.767-2.077-2.84-2.943-5.714-2.597-8.622.623-5.264 3.532-9.316 8.727-12.155 2.216-1.386 4.502-2.251 6.856-2.598 2.563-.346 5.195-.104 7.896.728.623.207 1.247.484 1.87.83 1.87 1.04 3.532 2.529 4.987 4.468 2.631 3.324 4.57 8.138 5.817 14.44 2.009 9.766-.9 19.116-8.726 28.05-6.58 7.48-14.822 11.705-24.726 12.675-9.765.9-18.7-1.489-26.803-7.168-5.749-4.017-10.25-9.142-13.506-15.376a68.69 68.69 0 0 1-2.493-5.61c-1.455-4.155-2.355-8.31-2.701-12.467a10.76 10.76 0 0 1 1.558-.727 111.596 111.596 0 0 1 2.805-1.246 55.067 55.067 0 0 0 2.494-1.767c7.757-5.887 11.393-13.297 10.908-22.232a30.793 30.793 0 0 0-.416-3.428c-1.177-7.342-4.086-11.878-8.726-13.61-1.87-.623-3.948-.83-6.234-.623-.762 0-1.558.07-2.39.208-.969.138-1.904.38-2.804.727-.831.277-1.628.589-2.39.935-2.147.9-4.26 2.147-6.337 3.74-3.186 2.424-5.887 6.095-8.103 11.012 5.194-5.194 9.696-8.76 13.505-10.7a11.589 11.589 0 0 1 1.559-.831c2.285-1.04 4.328-1.455 6.13-1.247 1.246.138 2.354.658 3.324 1.558 1.593 1.385 3.29 4.364 5.09 8.935 1.316 3.047.866 7.514-1.35 13.401-1.593 4.364-4.294 8.173-8.104 11.428-.07 0-.104.035-.104.104l-.207.208-1.04.831c-2.077 1.385-4.293 2.286-6.648 2.701a8.15 8.15 0 0 1-1.35.104c-1.732.138-3.533 0-5.403-.416l-1.662-.415c-4.502-1.247-8.311-3.775-11.428-7.584-3.81-4.571-5.194-11.566-4.155-20.985 1.385-13.922 8.865-27.843 22.44-41.764 2.84-2.909 6.302-6.233 10.388-9.973a77.516 77.516 0 0 0 3.74-4.467c4.849-6.026 8.312-11.359 10.39-16l.31-.623c1.663-3.878 2.979-7.618 3.949-11.22l.623-2.493c.416-1.87.727-3.67.935-5.402.208-2.147.312-4.225.312-6.234.073-1.926-.245-3.817-.52-5.713l-.207-1.455-.416-1.87a90.195 90.195 0 0 0-.623-2.181c-1.247-4.017-3.117-7.827-5.61-11.428a65.99 65.99 0 0 0-4.468-5.402c-2.84-2.979-6.164-5.784-9.973-8.415v8.31a60.52 60.52 0 0 1 5.61 5.507c3.117 3.601 5.54 7.41 7.272 11.428a34.113 34.113 0 0 1 1.559 4.467c2.777 10.108.696 19.253-.416 22.96-.693 2.7-1.177 4.328-1.454 4.882a7.38 7.38 0 0 1-.312.935c-1.87 5.402-6.58 12.363-14.129 20.882-2.635 3.251-5.85 5.918-8.83 8.83-11.497 11.15-19.705 22.163-24.622 33.037-4.156 9.28-5.298 18.423-3.428 27.427 1.939 9.21 6.89 15.098 14.856 17.66 1.039.347 2.112.624 3.22.832 4.433.9 8.692 1.039 12.779.415.761 6.65 2.943 13.021 6.545 19.116a57.355 57.355 0 0 0 4.259 6.13c9.765 12.535 22.405 18.942 37.92 19.219 7.133.138 14.163-1.593 21.089-5.195 6.718-3.463 12.397-8.172 17.038-14.129 9.973-12.813 12.016-25.626 6.129-38.439a71.69 71.69 0 0 1-1.143-2.389c-8.097-17.33-26.88-14.272-31.351-12.962-2.84.762-5.564 2.4-8.126 4.547-1.732 1.524-3.429 3.394-5.091 5.61l-.208.208a1.21 1.21 0 0 1-.208.311v-.519c-1.385-11.012-.97-23.202 1.247-36.569.346-1.039.658-2.147.935-3.324 1.039-4.502 1.8-7.653 2.286-9.454.415-1.87.796-3.498 1.142-4.883.832-3.255 2.667-9.489 5.507-18.7l.83-3.324c1.94-7.619 3.29-15.03 4.052-22.233.693-6.649.866-13.194.52-19.635a76.445 76.445 0 0 0-.416-5.714c-.415-3.878-.97-7.687-1.662-11.427m-60.36 153.755h-.103v-.207l.104.207" display="inline"/>
  <path id="path51" stroke-width=".686" d="m138.92 105.222-3.532-2.682q-20.886-20.297-30.55-29.564-4.018-3.937-6.165-6.008-.728-.746-1.143-1.154-8.175-7.06-14.444-11.438v-.102q-15.933-11.235-22.271-6.856-5.958 2.783.727 19.55 2.563 6.551 6.997 15.173 2.043 4.073 4.468 8.723 5.403 9.674 10.39 18.091 7.76 13.102 11.154 20.501 33.84-11.438 44.37-24.234" display="inline"/>
  <path id="path52" fill="#b10000" stroke-width=".686" d="M63.897 52.814q-1.835 1.358 4.122 14.154 2.217 4.888 5.611 11.337 7.032-4.175 7.863-11.337.312-2.919-.416-6.347-.866-.645-1.697-1.256h-.104q-11.465-8.01-15.379-6.55" display="inline"/>
  <path id="path53" fill="#b10000" stroke-width=".686" d="M83.606 62.488q.208 2.376.104 4.48-.935 8.316-9.006 13.204H74.6q1.801 3.734 4.122 7.807 4.884 9.13 9.767 17.14 14.028-7.704 13.37-26.407-.727-.746-1.385-1.255-5.404-5.194-7.309-6.857-.935-.848-1.697-1.46-.831-.916-2.217-2.172-2.25-1.866-5.645-4.48" display="inline"/>
  <path id="path93-1" fill="#ff00f1" d="m205.188 71.499-9.298-6.56c-3.03-1.829-7.394-3.963-10.39-5.632-26.958-15.102-46.898-21.678-74.101-24.555-25.718-2.16-48.668-1.423-63.086 6.104-3.423 1.802-5.997 7.545-6.902 9.586-.535 1.76.427 4.57 1.932 6.653 2.249 2.711 5.351 4.574 8.289 6.422 5.302 3.535 13.804 7.15 23.184 10.298 44.75 23.792 97.51 40.36 145.515 60.07l26.264-30.056c-10.246-8.01-20.308-17.07-33.125-25.822" style="display:inline;fill:#ff00f1;fill-opacity:1;stroke-width:2.07778"/>
  <path id="path92-4" fill="#ff0000" d="M203.934 73.525c2.395 1.62 5.027 3.404 7.895 5.35 12.817 8.752 24.35 17.132 34.595 25.141l1.559-1.766c-10.813-14.088-31.331-29.931-61.555-47.529-30.712-14.583-55.645-22.738-74.8-24.466-27.195-2.273-48.405.653-63.631 8.779-5.167 2.701-8.318 5.714-9.454 9.038-1.51 3.606-.766 7.484 2.233 11.636 1.897 2.698 4.719 5.313 8.467 7.843h.052c5.64 3.807 13.467 7.391 23.48 10.753l-.209-.052 147.886 56.412v-.935L74.956 72.434a7.828 7.828 0 0 0-.208-.052c-9.38-3.148-16.722-6.49-22.024-10.025h.052c-3.04-2.04-5.342-4.135-6.91-6.285-1.503-2.084-1.988-4.006-1.454-5.766.906-2.042 3.07-3.964 6.494-5.766 14.418-7.527 34.486-10.21 60.203-8.051 22.7 2.04 47.53 10.61 74.488 25.712a304.174 304.174 0 0 1 9.039 5.247" style="display:inline;fill:#ff0000;fill-opacity:1;stroke-width:2.07778"/>
  <path id="path54" fill="#b10000" stroke-width=".686" d="M89.46 106.987q8.278 13.746 9.767 16.02 21.856-5.295 31.416-16.53-17.111-16.53-26.532-25.592-.104 18.295-14.652 26.102" display="inline"/>
  <path id="path68" fill="#ff00f1" fill-opacity="1" stroke-dasharray="none" stroke-dashoffset="0" stroke-linecap="butt" stroke-linejoin="miter" stroke-miterlimit="4" stroke-opacity="1" stroke-width=".686" d="M101.008 105.319c2.398 1.172 43.38-27.412 73.46-23.14-32.846 35.128-105.007 59.325-109.455 57.299-7.079-3.224 16.896-39.202 11.57-36.18" opacity="1" style="font-variation-settings:normal;display:inline;-inkscape-stroke:none" vector-effect="none"/>
  <path id="path90-4" fill="#ff0000" fill-opacity="1" stroke-width="2.078" d="M20.672 151.677a41.52 41.52 0 0 0 3.742 3.035 44.808 44.808 0 0 0 5.608 3.43c1.247.692 2.6 1.316 4.054 1.87l.207.106c18.839 6.995 36.29 7.341 52.359 1.039 4.017-1.593 8-3.603 11.947-6.027 10.389-9.211 16.521-18.875 18.391-28.987 26.596-8.311 67.596-8.311 123.003 0 .347-1.247.761-2.56 1.246-3.945-10.804-2.77-30.821-4.952-60.048-6.545-8.242-.485-15.86-.658-22.856-.52-9.42-.208-20.5.831-33.244 3.117-3.623 1.112-6.587 1.508-9.772 2.613-.208-.554-.097-.156-.305-.641-3.601-7.688-7.93-13.26-12.986-16.724a20.911 20.911 0 0 0-3.218-1.769c-9.835-4.086-18.597-4.779-26.285-2.078-8.657 3.948-12.708 9.803-12.154 17.56 0 .623.068 1.28.207 1.972 0 .208.032.417.101.625v.102c1.04 1.316 1.978 2.008 2.809 2.077.138 0 .311-.032.52-.101 2.105-.98 2.31-2.436 2.178-4.675a12.362 12.362 0 0 1-.312-1.351c-1.247-6.372 3.428-10.182 14.025-11.428 5.471-.693 10.493-.069 15.064 1.87 4.779 2.078 9.039 5.646 12.779 10.702a32.151 32.151 0 0 1 1.664 4.464c.554 2.216.76 4.399.62 6.546-.553 9.696-8.309 18.494-23.269 26.39-22.024 6.857-39.995 5.818-53.917-3.117a45.88 45.88 0 0 1-5.507-4.155c-.448-.4-.873-.835-1.31-1.25-1.216 1.424-2.697 3.077-5.34 5.795z" display="inline"/>
  <path id="path81" fill="#ff00f1" d="M273.653 144.75c-2.326-4.034-4.613-7.047-6.264-9.384l-3.324.029c.486 6.513.431 13.198-.165 20.055-7.795 39.106-12.426 60.88-13.892 65.32-3.19 14.713-7.081 26.792-8.947 36.368-3.007 15.486-3.034 32.133-1.379 44.227 1.121-3.55 1.121-.28 2.209-4.472-5.983 51.687-1.978 72.483 9.938 77.194l-.858-.064c4.067 1.504 10.42.496 11.914-2.374 1.719-4.14 1.805-9.671-.39-32.437 10.846 31.086 18.743 40.264 27.327 40.519 6.373-1.492 13.516-10.645 13.119-21.225l-14.561-34.783c-4.843-6.865-8.227-14.21-11.191-22.687-2.94-8.499-3.418-11.57-4.746-23.95 3.69 12.355 5.162 14.198 6.625 18.385-3.831 2.057-1.065 5.221 1.558 12.58l14.467 1.616c3.263-1.077 6.23-6.56 6.306-11.123.016-5.936-1.88-15.168-6.08-25.75-3.202-8.078-5.172-15.868-6.431-24.407-.089-.59-.441-1.52-.538-2.141-1.28-7.425-1.533-13.908-1.667-19.84-.268-14.312-.029-24.529.197-31.687.335-10.98-.946-21.194-3.066-29.211" style="display:inline;fill:#ff00f1;fill-opacity:1;stroke-width:2.07778"/>
  <path id="path80" fill="#ff0000" d="m268.997 135.351-1.608.015q2.477 3.505 5.965 9.556 5.42 9.397 8.577 21.43 3.18 12.026 2.677 28.496-.34 10.738.062 32.208.201 8.897 2.121 20.034.146.93.279 1.816 1.888 12.81 6.69 24.927 6.3 15.872 6.275 24.775-.112 6.847-5.007 8.461-10.1 2.83-15.268-9.838-.033-.206-.108-.414-.301-.658-.532-1.242-.023-.054-.052-.104-2.194-6.281-7.73-24.813-.246 19.058 4.163 31.807 4.446 12.714 11.71 23.011 10.53 15.155 11.183 32.524l.002.052q.596 15.87-8.964 18.107-12.876-.382-29.145-47.011 3.293 34.148.715 40.358-2.242 4.306-8.342 2.05h-.052q-17.873-7.067-8.9-84.598-1.63 6.29-3.311 11.615-2.483-18.14 2.027-41.37 2.8-14.364 7.584-36.432-4.014 12.213-10.247 29.756-10.348 32.69-1.243 57.673-1.359 9.898-2.433 16.439.054.07.106.154-3.223 46.802 14.813 52.594l-.052.002q11.087 4.112 14.858-5.121 1.666-3.472 1.932-9.369 9.22 20.11 21.908 19.388.18-.015.364-.054 14.638-2.192 13.78-24.489v-.052q-.699-19.232-12.361-35.993-2.9-4.152-5.28-8.63 4.549 1.694 10.233-.09 8.845-2.47 9-14.317.244-9.838-6.664-27.316-9.62-24.335-9.018-65.48 4.077-49.646-20.707-70.515" style="display:inline;fill:#ff0000;fill-opacity:1;stroke-width:2.07778"/>
  <path id="path83" fill="#ff00f1" d="M258.475 184.322c-.299 8.018-6.412 21.37-14.666 40.605-8.7.49-5.557 25.651-17.593 32.454-4.51 8.927-7.734 19.709-10.773 30.695-3.206 11.383-4.35 23.523-3.428 30.909l8.09 10.94c7.71.96 15.655-11.233 22.731-37.68 1.83-8.5 5.66-20.775 10.757-30.214 15.29-27.225 21.973-50.93 20.05-71.112-2.02-21.37-5.207-33.335-9.558-35.893-.953 11.39-3.465 21.89-6.252 30.031" style="display:inline;fill:#ff00f1;fill-opacity:1;stroke-width:2.07778"/>
  <path id="path82" fill="#ff0000" d="m240.918 222.346-.052.052-16.57 33.4v-.052q-7.073 13.894-11.843 31.01-5.222 18.749-3.533 30.96 1.77 14.22 11.272 15.531 9.145 1.93 15.428-7.584 2.93-9.08 4.935-18.544 1.475-7.006 2.441-14.233.413-2.969.727-5.973-.266 1.022-.52 2.026-10.615 39.67-22.18 38.23-5.645-1.246-6.804-10.336v-.052q-1.382-11.079 3.428-28.154 4.559-16.479 11.324-29.868v-.052l16.57-33.4.104-.104q12.382-28.854 12.83-40.88l-.675-.052q-7.61 21.646-16.778 37.92l-.104.155" style="display:inline;fill:#ff0000;fill-opacity:1;stroke-width:2.07778"/>
  <path id="path60" fill="#b10000" stroke-width=".686" d="M266.038 65.509v.102c-2.194-2.693-3.822-7.097-5.254-8.07-5.865 2.693-14.848 11.58-22.906 22.623-6.304 8.6-13.259 17.695-17.646 29.258-2.055 5.544.224 13.597-.053 21.087.854.972-.778 6.458 1.346 8.744 13.855 14.414 20.743 31.495 26.908 39.12 1.27 6.45 4.228 6.693 5.567 15.79l5.389-.66c8.359-7.988 15.3-18.845 19.248-30.07 2.332-6.313 4.648-15.563 6.356-26.787 3.048-19.98 1.615-40.756-6.467-57.727-2.817-5.974-6.429-10.812-10.1-15.247" display="inline"/>
  <path id="path61" stroke-width=".686" d="M266.038 65.61v-.101q5.508 6.653 9.733 15.613 12.123 25.457 7.551 55.428-2.563 16.836-6.061 26.306-5.923 16.835-18.462 28.817l-.208.102-2.113 1.968q6.997-.305 16.765-12.389 5.3-8.01 9.663-18.193 2.321-5.6 3.81-11.336 1.386-5.5 2.98-14.358 4.675-31.906-8.175-58.958-4.676-9.674-10.738-16.937-5.403-6.45-8.693-7.705-1.178-.611-2.217-.102-10.634 3.428-27.155 28.172-10.08 15.104-14.236 29.225-4.018 14.255 1.697 19.347.416-11.235 3.498-19.551 6.581-17.345 16.037-30.243 12.089-16.564 20.886-20.603 2.148 1.46 5.438 5.499" display="inline"/>
  <path id="path62" stroke-width=".686" d="M265.38 127.691q2.979-20.67-2.009-32.313 1.282 13.815-1.073 27.765-2.633 15.478-6.893 27.867-1.386 4.039-3.083 7.773-.208.645-.52 1.255.312-.407.728-.814 2.147-2.512 3.949-5.33 6.684-10.487 8.901-26.203" display="inline"/>
  <path id="path111" fill="#ff00f1" d="m199.259 90.719-31.582-25.66c-17.644-.993-34.854-.94-51.633.155v.052c-25.042 1.853-45.278 4.942-58.78 12.162-13.503 7.235-25.006 18.638-28.332 34.016-7.456 30.537-3.226 28.656 5.759 50.32 5.44 1.575 16.358-.557 19.435-3.31l5.492-18.7c.712-7.568 1.102-12.861 3.68-24.754 11.428 25.989 19.024 39.847 26.261 47.172l22.344 11.673c27.2-5.217 5.247-35.16-2.641-47.292 2.65.12 4.093 4.251-4.548-8.836 23.825 23.205 32.605 27.915 46.214 29.956 5.782.878 12.01.037 15.406-.98 4.565-.872 11.205-2.136 8.326-6.88-.258-.425 1.67-2.665 4.215-7.071l20.384-42.023" style="display:inline;fill:#ff00f1;fill-opacity:1;stroke-width:2.07778"/>
  <path id="path112" fill="#ff0000" d="M177.234 132.066c-2.544 4.407-3.981 6.796-4.311 7.169-1.308 1.478-2.727 2.672-4.26 3.584a14.77 14.77 0 0 1-3.48 1.506c-4.518 1.324-9.268.897-13.869.26-13.61-2.04-32.327-14.663-56.152-37.867a22990.59 22990.59 0 0 0 13.038 19.738c10.246 15.663 15.285 27.333 15.116 35.01-.583 5.374-3.648 8.214-9.194 8.52h-.052c-8.526.53-16.214-2.62-23.063-9.454-7.238-7.325-16.57-23.982-27.998-49.97-2.578 11.893-4.223 21.624-4.935 29.192v.052c-.738 8.234-2.73 14-5.974 17.298-3.078 2.752-7.337 3.34-12.778 1.766h-.052c-10.192-3.217-12.287-18.575-6.285-46.075 3.326-15.378 11.74-26.685 25.245-33.92 13.501-7.22 32.772-11.756 57.814-13.61-14.633-.904-25.282-.852-31.946.157-10.683 1.565-19.894 4.283-27.634 8.155-16 7.925-25.869 20.547-29.609 37.867-7.017 32.195-3.45 50.012 10.7 53.451 8.067 2.304 14.352 1.196 18.857-3.324 4.34-3.973 6.971-11.055 7.895-21.245.395-4.192.464-9.438.208-15.74 6.87 19.073 14.247 32.51 22.128 40.31 8.235 8.25 17.499 12.025 27.79 11.323h.052c9.104-.541 14.125-5.251 15.064-14.129a4.047 4.047 0 0 0 0-.156c.384-5.598-1.763-13.061-6.44-22.388 8.713 6.105 17.804 9.828 27.27 11.168 6.962 1.062 12.485.923 16.57-.415l-.104.052c2.983-.819 5.788-2.17 8.415-4.052 2.278-1.602 4.078-3.853 5.403-6.753l18.596-48.827-22.025 41.347" style="display:inline;fill:#ff0000;fill-opacity:1;stroke-width:2.07778"/>
  <path id="path115" fill="#ff00f1" d="m146.275 104.016 7.614 11.985c6.815 8.455 12.687 16.178 18.581 21.817 14.504 13.792 29.741 21.294 47.061 21.735l2.761.438c5.363.095 11.141-1.795 14.055-5.284 2.646-3.362 3.62-10.793 2.152-15.153l-14.513-23.701c-3.764-4.105-4.438-4.598-11.029-14.034-1.058-1.514-8.835-8.684-9.958-10.321-6.08-3.836-24.988.337-56.724 12.518" style="display:inline;fill:#ff00f1;fill-opacity:1;stroke-width:2.07778"/>
  <path id="path113" fill="#ff0000" d="M154.898 115.08q-4.203-5.177-8.623-11.064 2.604 5.966 5.299 11.22 8.569 16.448 18.18 25.609 23.517 22.374 51.685 23.011h.208q11.326.227 17.35-7.428 6.251-7.67 2.752-17.713-.041-.17-.104-.363-5.905-15.75-15.323-26.18-5.758-6.302-17.61-16-2.684-2.256-5.713-4.674 1.685 2.456 3.272 4.727 9.886 14.154 15.532 20.31 8.676 9.647 14.129 24.206.064.131.155.26 2.203 6.54-1.766 11.583-4.371 5.234-12.414 5.091l-.156-.052q-25.98-.66-47.737-21.349-8.841-8.459-19.064-21.141l-.052-.052m-8.623-11.065 8.675 11.065h-.052q-4.203-5.178-8.623-11.065" style="display:inline;fill:#ff0000;fill-opacity:1;stroke-width:2.07778"/>
  <path id="path116" fill="#ff0000" d="M140.146 92.485q-8.06-1.118-16.259.415-3.41.626-6.856 1.714-6.676 2.112-13.454 5.974-8.197 4.58-13.661 9.246-2.629 2.192-4.623 4.415-3.35 3.75-4.987 7.532 12.037-11.459 27.219-18.855l2.39-1.091q.332-.146.675-.312 3.974-1.702 8.155-3.272 10.098-3.682 21.401-5.766" style="display:inline;fill:#ff000c;fill-opacity:1;stroke-width:2.07778"/>
  <path id="path117" fill="#000000" d="M117.03 94.614q3.448-1.088 6.857-1.714-13.9-13.823-21.245-20.881-3.948-4.052-6.025-6.026-.728-.831-1.143-1.247-8-6.96-14.13-11.427v-.104q-15.582-11.22-21.816-6.753-5.817 2.701.728 19.531 2.493 6.441 6.856 15.064 1.974 4.156 4.364 8.727 5.298 9.765 10.18 18.18 1.902 3.327 3.637 6.285 1.994-2.223 4.623-4.415-1.089-1.866-2.338-3.948 14.233-7.791 14.337-25.972 5.963 5.785 15.116 14.7" style="display:inline;fill:#000000;fill-opacity:1;stroke-width:2.07778"/>
  <path id="path118" fill="#b10000" d="M87.37 65.993q-2.181-1.974-5.506-4.571.208 2.493.104 4.571-.935 8.311-8.83 13.194h-.104q1.766 3.74 4.051 7.792 4.78 9.142 9.558 17.141 13.714-7.687 13.09-26.387-.727-.728-1.35-1.247-5.299-5.195-7.169-6.96-.935-.728-1.662-1.455-.831-.935-2.182-2.078" style="display:inline;fill:#b10000;fill-opacity:1;stroke-width:2.07778"/>
  <path id="path119" fill="#b10000" d="M79.787 65.993q.311-2.909-.416-6.441-.831-.623-1.662-1.143-11.324-8.103-15.168-6.649-1.766 1.35 4.052 14.233 2.181 4.883 5.506 11.324 6.856-4.26 7.688-11.324" style="display:inline;fill:#b10000;fill-opacity:1;stroke-width:2.07778"/>
  <path id="path120" fill="#b10000" d="M117.03 94.614c-6.101-5.943-11.14-10.843-15.115-14.7-.07 12.12-4.848 20.778-14.337 25.972a381.376 381.376 0 0 1 2.338 3.948c3.643-3.11 8.197-6.193 13.661-9.246 4.519-2.575 9.003-4.566 13.454-5.974" style="display:inline;fill:#b10000;fill-opacity:1;stroke-width:2.07778"/>
  <path id="path121" fill="#ff00f1" d="m80.306 121.781 10.077 9.87 56.62-28.57-6.857-10.596q-11.303 2.084-21.401 5.766-4.18 1.57-8.155 3.272-.343.166-.676.312l-2.39 1.09q-15.181 7.397-27.218 18.856" style="display:inline;fill:#ff00f1;fill-opacity:1;stroke-width:2.07778"/>
</svg>
